<svg width="24" height="24" viewBox="0 0 24 24" fill="none" xmlns="http://www.w3.org/2000/svg">
<path fill-rule="evenodd" clip-rule="evenodd" d="M3.60624 6.76024C2.36959 7.27417 1.5 8.49374 1.5 9.91641V15.1C1.5 17.3402 1.5 18.4603 1.93597 19.316C2.31947 20.0686 2.93139 20.6805 3.68404 21.064C4.53969 21.5 5.65979 21.5 7.9 21.5H16.1C16.6369 21.5 17.1095 21.5 17.5295 21.494L13.8164 17.5647C13.2713 17.843 12.654 18 12 18C9.79086 18 8 16.2091 8 14C8 13.2653 8.19808 12.5768 8.54376 11.9852L3.60624 6.76024ZM6.75406 5.72342L10.9317 10.1442C11.2718 10.0502 11.63 10 12 10C14.2091 10 16 11.7909 16 14C16 14.4493 15.9259 14.8814 15.7893 15.2846L20.321 20.0801C20.5272 20.2983 20.6552 20.5621 20.7058 20.8368C21.2802 20.4571 21.7491 19.934 22.064 19.316C22.5 18.4603 22.5 17.3402 22.5 15.1V9.91641C22.5 8.02958 20.9704 6.5 19.0836 6.5C18.1131 6.5 17.2258 5.95166 16.7918 5.08359L16.3 4.1C16.061 3.622 15.9415 3.38301 15.7791 3.19449C15.5106 2.88296 15.1527 2.66174 14.754 2.56098C14.5128 2.5 14.2456 2.5 13.7111 2.5H10.2888C9.75444 2.5 9.48723 2.5 9.24598 2.56098C8.84729 2.66174 8.48936 2.88296 8.22093 3.19449C8.0585 3.38301 7.939 3.622 7.7 4.1L7.2082 5.08359C7.08864 5.32273 6.93468 5.53759 6.75406 5.72342ZM20.5 10C20.5 10.8284 19.8284 11.5 19 11.5C18.1716 11.5 17.5 10.8284 17.5 10C17.5 9.17157 18.1716 8.5 19 8.5C19.8284 8.5 20.5 9.17157 20.5 10Z" fill="white"/>
<path d="M2.7832 5.94685C2.40387 5.54544 2.42177 4.91253 2.82318 4.5332C3.22459 4.15387 3.8575 4.17177 4.23683 4.57318L20.034 21.2899C20.4133 21.6913 20.3954 22.3242 19.994 22.7036C19.5926 23.0829 18.9597 23.065 18.5804 22.6636L2.7832 5.94685Z" fill="white"/>
</svg>
