<svg width="125" height="39" viewBox="0 0 125 39" fill="none" xmlns="http://www.w3.org/2000/svg">
<rect width="11.9048" height="37.2024" rx="5.95238" transform="matrix(1 0 0 -1 10.4167 37.6429)" fill="#2C7DF7" fill-opacity="0.75"/>
<rect width="11.9048" height="11.9048" rx="5.95238" transform="matrix(0 -1 -1 0 22.3215 12.3453)" fill="#2CF765" fill-opacity="0.75"/>
<rect width="11.9048" height="11.9048" rx="5.95238" transform="matrix(0 -1 -1 0 22.3215 12.3453)" fill="url(#paint0_linear)" fill-opacity="0.6"/>
<path d="M10.4167 6.39287C10.4167 3.10547 13.0817 0.440491 16.3691 0.440491H22.3215V6.39287C22.3215 9.68028 19.6565 12.3453 16.3691 12.3453H10.4167V6.39287Z" fill="#47FFDE" fill-opacity="0.75"/>
<path d="M10.4167 6.39287C10.4167 3.10547 13.0817 0.440491 16.3691 0.440491H22.3215V6.39287C22.3215 9.68028 19.6565 12.3453 16.3691 12.3453H10.4167V6.39287Z" fill="url(#paint1_linear)" style="mix-blend-mode:lighten"/>
<rect width="22.3214" height="22.3214" rx="5.95238" transform="matrix(1 0 0 -1 0 37.6429)" fill="#02A2AF"/>
<rect width="22.3214" height="22.3214" rx="5.95238" transform="matrix(1 0 0 -1 0 37.6429)" fill="url(#paint2_linear)"/>
<rect width="11.9048" height="11.9048" rx="4.46429" transform="matrix(1 0 0 -1 0 37.6429)" fill="#FFC000"/>
<rect width="11.9048" height="11.9048" rx="4.46429" transform="matrix(1 0 0 -1 0 37.6429)" fill="url(#paint3_linear)"/>
<path d="M38.7024 36.3928C38.0358 36.9405 37.2381 37.369 36.3096 37.6786C35.4048 37.9881 34.4762 38.1428 33.5239 38.1428C31.9286 38.1428 30.512 37.8214 29.2739 37.1786C28.0596 36.5357 27.1072 35.6309 26.4167 34.4643C25.75 33.2738 25.4167 31.9048 25.4167 30.3571C25.4167 28.8333 25.7739 27.4881 26.4881 26.3214C27.2024 25.1309 28.1548 24.2143 29.3453 23.5714C30.5358 22.9286 31.8215 22.6071 33.2024 22.6071C35.4643 22.6071 37.3334 23.2262 38.8096 24.4643L37.131 26.6428C36.6548 26.2857 36.1072 25.9881 35.4881 25.75C34.8691 25.4881 34.2024 25.3571 33.4881 25.3571C32.6072 25.3571 31.7977 25.5833 31.0596 26.0357C30.3453 26.4643 29.7739 27.0595 29.3453 27.8214C28.9405 28.5833 28.7381 29.4286 28.7381 30.3571C28.7381 31.2857 28.9524 32.1309 29.381 32.8928C29.8334 33.6548 30.4405 34.2619 31.2024 34.7143C31.9643 35.1667 32.8334 35.3928 33.8096 35.3928C35.0239 35.3928 36.0834 35.0357 36.9881 34.3214L38.7024 36.3928ZM42.0615 30.25C42.0615 28.7976 42.4068 27.4762 43.0972 26.2857C43.8115 25.0714 44.7877 24.119 46.0258 23.4286C47.2877 22.7381 48.7044 22.3928 50.2758 22.3928C51.8472 22.3928 53.2401 22.7381 54.4544 23.4286C55.6925 24.119 56.6449 25.0595 57.3115 26.25C58.002 27.4405 58.3472 28.7738 58.3472 30.25C58.3472 31.7262 58.002 33.0714 57.3115 34.2857C56.6449 35.4762 55.6925 36.4167 54.4544 37.1071C53.2163 37.7976 51.7996 38.1428 50.2044 38.1428C48.6568 38.1428 47.2639 37.8214 46.0258 37.1786C44.7877 36.5119 43.8115 35.5833 43.0972 34.3928C42.4068 33.2024 42.0615 31.8214 42.0615 30.25ZM45.4187 30.2857C45.4187 31.2143 45.621 32.0714 46.0258 32.8571C46.4544 33.6428 47.0258 34.2619 47.7401 34.7143C48.4782 35.1667 49.2877 35.3928 50.1687 35.3928C51.5496 35.3928 52.6925 34.9048 53.5972 33.9286C54.502 32.9524 54.9544 31.7381 54.9544 30.2857C54.9544 28.8333 54.502 27.619 53.5972 26.6428C52.6925 25.6428 51.5496 25.1428 50.1687 25.1428C49.2639 25.1428 48.4544 25.3809 47.7401 25.8571C47.0258 26.3095 46.4544 26.9286 46.0258 27.7143C45.621 28.5 45.4187 29.3571 45.4187 30.2857ZM72.3444 22.4286C73.7254 22.4286 74.8683 22.8452 75.773 23.6786C76.6778 24.4881 77.1421 25.5476 77.1659 26.8571V37.7857H73.8087V28C73.7611 27.1667 73.5111 26.5119 73.0587 26.0357C72.6064 25.5595 71.9278 25.3095 71.023 25.2857C69.7135 25.2857 68.6302 25.8095 67.773 26.8571C66.9159 27.9048 66.4873 29.2381 66.4873 30.8571V37.7857H63.1659V23H66.1659L66.3802 25.8571C66.904 24.7857 67.6897 23.9524 68.7373 23.3571C69.7849 22.7381 70.9873 22.4286 72.3444 22.4286ZM86.585 10.1071V37.7857H83.2635V10.1071H86.585ZM106.474 23V37.7857H103.474L103.259 34.9643C102.759 35.9643 101.986 36.7857 100.938 37.4286C99.8903 38.0476 98.7236 38.3571 97.4379 38.3571C96.0808 38.3571 94.9617 37.9524 94.0808 37.1428C93.2236 36.3095 92.7712 35.2381 92.7236 33.9286V23H96.0451V32.75C96.0927 33.5833 96.3308 34.25 96.7593 34.75C97.2117 35.2262 97.8784 35.4762 98.7593 35.5C99.5689 35.5 100.307 35.2619 100.974 34.7857C101.64 34.2857 102.164 33.6071 102.545 32.75C102.95 31.8928 103.152 30.9405 103.152 29.8928V23H106.474ZM116.791 38.1071C115.695 38.1071 114.648 37.9167 113.648 37.5357C112.672 37.1548 111.874 36.5952 111.255 35.8571L112.683 33.9286C113.279 34.5 113.898 34.9405 114.541 35.25C115.207 35.5595 115.862 35.7143 116.505 35.7143C117.291 35.7143 117.933 35.5595 118.433 35.25C118.933 34.9405 119.183 34.4643 119.183 33.8214C119.183 33.3214 119.029 32.9167 118.719 32.6071C118.41 32.2976 118.052 32.0714 117.648 31.9286C117.267 31.7857 116.612 31.5714 115.683 31.2857C113.16 30.4762 111.898 29.0357 111.898 26.9643C111.898 25.7262 112.35 24.6667 113.255 23.7857C114.183 22.9048 115.469 22.4643 117.112 22.4643C118.16 22.4643 119.088 22.5952 119.898 22.8571C120.707 23.119 121.457 23.5357 122.148 24.1071L120.826 26.1428C120.445 25.7381 119.957 25.4167 119.362 25.1786C118.791 24.9405 118.243 24.8095 117.719 24.7857C117.052 24.7857 116.481 24.9524 116.005 25.2857C115.529 25.5952 115.291 26.0238 115.291 26.5714C115.291 27.0238 115.445 27.4048 115.755 27.7143C116.064 28 116.386 28.2143 116.719 28.3571C117.052 28.4762 117.707 28.6905 118.683 29C119.898 29.4048 120.838 29.9286 121.505 30.5714C122.195 31.2143 122.541 32.0833 122.541 33.1786C122.541 34.6071 122.041 35.7857 121.041 36.7143C120.041 37.6428 118.624 38.1071 116.791 38.1071Z" fill="#260452"/>
<defs>
<linearGradient id="paint0_linear" x1="5.95238" y1="0" x2="5.95238" y2="11.9048" gradientUnits="userSpaceOnUse">
<stop stop-color="#FFF068"/>
<stop offset="1" stop-color="white" stop-opacity="0"/>
</linearGradient>
<linearGradient id="paint1_linear" x1="10.4167" y1="12.3453" x2="22.3215" y2="0.440491" gradientUnits="userSpaceOnUse">
<stop stop-color="#6BFF46" stop-opacity="0.83"/>
<stop offset="1" stop-color="white" stop-opacity="0"/>
</linearGradient>
<linearGradient id="paint2_linear" x1="20.7556" y1="20.8333" x2="1.41035" y2="1.4881" gradientUnits="userSpaceOnUse">
<stop stop-color="#1737AA"/>
<stop offset="1" stop-color="white" stop-opacity="0"/>
</linearGradient>
<linearGradient id="paint3_linear" x1="10.4167" y1="10.4167" x2="1.48809" y2="1.48809" gradientUnits="userSpaceOnUse">
<stop stop-color="#FF6B00"/>
<stop offset="1" stop-color="white" stop-opacity="0"/>
</linearGradient>
</defs>
</svg>
