<svg width="150" height="45" viewBox="0 0 150 45" fill="none" xmlns="http://www.w3.org/2000/svg">
<rect width="14.2857" height="44.6429" rx="7.14286" transform="matrix(1 0 0 -1 12.5 44.6429)" fill="#2C7DF7" fill-opacity="0.75"/>
<rect width="14.2857" height="14.2857" rx="7.14286" transform="matrix(0 -1 -1 0 26.7856 14.2857)" fill="#2CF765" fill-opacity="0.75"/>
<rect width="14.2857" height="14.2857" rx="7.14286" transform="matrix(0 -1 -1 0 26.7856 14.2857)" fill="url(#paint0_linear)" fill-opacity="0.6"/>
<path d="M12.5 7.14286C12.5 3.19797 15.698 0 19.6429 0H26.7857V7.14285C26.7857 11.0877 23.5877 14.2857 19.6429 14.2857H12.5V7.14286Z" fill="#47FFDE" fill-opacity="0.75"/>
<path d="M12.5 7.14286C12.5 3.19797 15.698 0 19.6429 0H26.7857V7.14285C26.7857 11.0877 23.5877 14.2857 19.6429 14.2857H12.5V7.14286Z" fill="url(#paint1_linear)" style="mix-blend-mode:lighten"/>
<rect width="26.7857" height="26.7857" rx="7.14286" transform="matrix(1 0 0 -1 0 44.6429)" fill="#02A2AF"/>
<rect width="26.7857" height="26.7857" rx="7.14286" transform="matrix(1 0 0 -1 0 44.6429)" fill="url(#paint2_linear)"/>
<rect width="14.2857" height="14.2857" rx="5.35714" transform="matrix(1 0 0 -1 0 44.6429)" fill="#FFC000"/>
<rect width="14.2857" height="14.2857" rx="5.35714" transform="matrix(1 0 0 -1 0 44.6429)" fill="url(#paint3_linear)"/>
<path d="M46.443 42.5429C45.643 43.2 44.6858 43.7143 43.5715 44.0857C42.4858 44.4572 41.3715 44.6429 40.2287 44.6429C38.3144 44.6429 36.6144 44.2572 35.1287 43.4857C33.6715 42.7143 32.5287 41.6286 31.7001 40.2286C30.9001 38.8 30.5001 37.1572 30.5001 35.3C30.5001 33.4714 30.9287 31.8572 31.7858 30.4572C32.643 29.0286 33.7858 27.9286 35.2144 27.1572C36.643 26.3857 38.1858 26 39.843 26C42.5572 26 44.8001 26.7429 46.5715 28.2286L44.5572 30.8429C43.9858 30.4143 43.3287 30.0572 42.5858 29.7714C41.843 29.4572 41.043 29.3 40.1858 29.3C39.1287 29.3 38.1572 29.5714 37.2715 30.1143C36.4144 30.6286 35.7287 31.3429 35.2144 32.2572C34.7287 33.1714 34.4858 34.1857 34.4858 35.3C34.4858 36.4143 34.743 37.4286 35.2572 38.3429C35.8001 39.2572 36.5287 39.9857 37.443 40.5286C38.3572 41.0714 39.4001 41.3429 40.5715 41.3429C42.0287 41.3429 43.3001 40.9143 44.3858 40.0572L46.443 42.5429ZM50.4739 35.1714C50.4739 33.4286 50.8882 31.8429 51.7167 30.4143C52.5739 28.9572 53.7453 27.8143 55.231 26.9857C56.7453 26.1572 58.4453 25.7429 60.331 25.7429C62.2167 25.7429 63.8882 26.1572 65.3453 26.9857C66.831 27.8143 67.9739 28.9429 68.7739 30.3714C69.6025 31.8 70.0167 33.4 70.0167 35.1714C70.0167 36.9429 69.6025 38.5572 68.7739 40.0143C67.9739 41.4429 66.831 42.5714 65.3453 43.4C63.8596 44.2286 62.1596 44.6429 60.2453 44.6429C58.3882 44.6429 56.7167 44.2572 55.231 43.4857C53.7453 42.6857 52.5739 41.5714 51.7167 40.1429C50.8882 38.7143 50.4739 37.0572 50.4739 35.1714ZM54.5024 35.2143C54.5024 36.3286 54.7453 37.3572 55.231 38.3C55.7453 39.2429 56.431 39.9857 57.2882 40.5286C58.1739 41.0714 59.1453 41.3429 60.2024 41.3429C61.8596 41.3429 63.231 40.7572 64.3167 39.5857C65.4024 38.4143 65.9453 36.9572 65.9453 35.2143C65.9453 33.4714 65.4024 32.0143 64.3167 30.8429C63.231 29.6429 61.8596 29.0429 60.2024 29.0429C59.1167 29.0429 58.1453 29.3286 57.2882 29.9C56.431 30.4429 55.7453 31.1857 55.231 32.1286C54.7453 33.0714 54.5024 34.1 54.5024 35.2143ZM86.8134 25.7857C88.4705 25.7857 89.842 26.2857 90.9277 27.2857C92.0134 28.2572 92.5705 29.5286 92.5991 31.1V44.2143H88.5705V32.4714C88.5134 31.4714 88.2134 30.6857 87.6705 30.1143C87.1277 29.5429 86.3134 29.2429 85.2277 29.2143C83.6562 29.2143 82.3562 29.8429 81.3277 31.1C80.2991 32.3572 79.7848 33.9572 79.7848 35.9V44.2143H75.7991V26.4714H79.3991L79.6562 29.9C80.2848 28.6143 81.2277 27.6143 82.4848 26.9C83.742 26.1572 85.1848 25.7857 86.8134 25.7857ZM103.902 11V44.2143H99.9163V11H103.902ZM127.768 26.4714V44.2143H124.168L123.911 40.8286C123.311 42.0286 122.383 43.0143 121.126 43.7857C119.868 44.5286 118.468 44.9 116.926 44.9C115.297 44.9 113.954 44.4143 112.897 43.4429C111.868 42.4429 111.326 41.1572 111.268 39.5857V26.4714H115.254V38.1714C115.311 39.1714 115.597 39.9714 116.111 40.5714C116.654 41.1429 117.454 41.4429 118.511 41.4714C119.483 41.4714 120.368 41.1857 121.168 40.6143C121.968 40.0143 122.597 39.2 123.054 38.1714C123.54 37.1429 123.783 36 123.783 34.7429V26.4714H127.768ZM140.149 44.6C138.834 44.6 137.577 44.3714 136.377 43.9143C135.206 43.4572 134.249 42.7857 133.506 41.9L135.22 39.5857C135.934 40.2714 136.677 40.8 137.449 41.1714C138.249 41.5429 139.034 41.7286 139.806 41.7286C140.749 41.7286 141.52 41.5429 142.12 41.1714C142.72 40.8 143.02 40.2286 143.02 39.4572C143.02 38.8572 142.834 38.3714 142.463 38C142.092 37.6286 141.663 37.3572 141.177 37.1857C140.72 37.0143 139.934 36.7572 138.82 36.4143C135.792 35.4429 134.277 33.7143 134.277 31.2286C134.277 29.7429 134.82 28.4714 135.906 27.4143C137.02 26.3572 138.563 25.8286 140.534 25.8286C141.792 25.8286 142.906 25.9857 143.877 26.3C144.849 26.6143 145.749 27.1143 146.577 27.8L144.992 30.2429C144.534 29.7572 143.949 29.3714 143.234 29.0857C142.549 28.8 141.892 28.6429 141.263 28.6143C140.463 28.6143 139.777 28.8143 139.206 29.2143C138.634 29.5857 138.349 30.1 138.349 30.7572C138.349 31.3 138.534 31.7572 138.906 32.1286C139.277 32.4714 139.663 32.7286 140.063 32.9C140.463 33.0429 141.249 33.3 142.42 33.6714C143.877 34.1572 145.006 34.7857 145.806 35.5572C146.634 36.3286 147.049 37.3714 147.049 38.6857C147.049 40.4 146.449 41.8143 145.249 42.9286C144.049 44.0429 142.349 44.6 140.149 44.6Z" fill="#260452"/>
<defs>
<linearGradient id="paint0_linear" x1="7.14286" y1="0" x2="7.14286" y2="14.2857" gradientUnits="userSpaceOnUse">
<stop stop-color="#FFF068"/>
<stop offset="1" stop-color="white" stop-opacity="0"/>
</linearGradient>
<linearGradient id="paint1_linear" x1="12.5" y1="14.2857" x2="26.7857" y2="0" gradientUnits="userSpaceOnUse">
<stop stop-color="#6BFF46" stop-opacity="0.83"/>
<stop offset="1" stop-color="white" stop-opacity="0"/>
</linearGradient>
<linearGradient id="paint2_linear" x1="24.9067" y1="25" x2="1.69242" y2="1.78571" gradientUnits="userSpaceOnUse">
<stop stop-color="#1737AA"/>
<stop offset="1" stop-color="white" stop-opacity="0"/>
</linearGradient>
<linearGradient id="paint3_linear" x1="12.5" y1="12.5" x2="1.78571" y2="1.78571" gradientUnits="userSpaceOnUse">
<stop stop-color="#FF6B00"/>
<stop offset="1" stop-color="white" stop-opacity="0"/>
</linearGradient>
</defs>
</svg>
