<svg width="21" height="24" viewBox="0 0 21 24" fill="none" xmlns="http://www.w3.org/2000/svg">
<path d="M16.0695 17.3008H5.48127V9.82578C5.48127 6.95078 7.83421 4.65078 10.7754 4.65078C13.7166 4.65078 16.0695 6.95078 16.0695 9.82578V17.3008ZM18.4225 16.1508V9.82578C18.4225 6.29528 15.9048 3.33978 12.5401 2.55778V1.77578C12.5401 1.31828 12.3542 0.879522 12.0232 0.556022C11.6923 0.232522 11.2434 0.0507813 10.7754 0.0507812C10.3074 0.0507813 9.8585 0.232522 9.52756 0.556022C9.19661 0.879522 9.01069 1.31828 9.01069 1.77578V2.55778C5.63421 3.33978 3.12833 6.29528 3.12833 9.82578V16.1508L0.775391 18.4508V19.6008H20.7754V18.4508L18.4225 16.1508ZM10.7754 23.0508C11.3994 23.0508 11.9979 22.8085 12.4392 22.3771C12.8804 21.9458 13.1283 21.3608 13.1283 20.7508H8.42245C8.42245 21.3608 8.67035 21.9458 9.11161 22.3771C9.55287 22.8085 10.1514 23.0508 10.7754 23.0508Z" fill="#C7FFF1"/>
</svg>
