<svg width="21" height="23" viewBox="0 0 21 23" fill="none" xmlns="http://www.w3.org/2000/svg">
<path d="M4.77539 10.641H7.17539V12.9743H4.77539V10.641ZM4.77539 15.3077H7.17539V17.641H4.77539V15.3077ZM9.57539 10.641H11.9754V12.9743H9.57539V10.641ZM9.57539 15.3077H11.9754V17.641H9.57539V15.3077ZM14.3754 10.641H16.7754V12.9743H14.3754V10.641ZM14.3754 15.3077H16.7754V17.641H14.3754V15.3077Z" fill="#C7FFF1"/>
<path d="M2.99761 22.6407H18.5532C19.7787 22.6407 20.7754 21.654 20.7754 20.4407V5.04075C20.7754 3.82745 19.7787 2.84075 18.5532 2.84075H16.3309V0.640747H14.1087V2.84075H7.44206V0.640747H5.21984V2.84075H2.99761C1.77206 2.84075 0.775391 3.82745 0.775391 5.04075V20.4407C0.775391 21.654 1.77206 22.6407 2.99761 22.6407ZM18.5532 7.24075L18.5543 20.4407H2.99761V7.24075H18.5532Z" fill="#C7FFF1"/>
</svg>
