<svg width="24" height="24" viewBox="0 0 24 24" fill="none" xmlns="http://www.w3.org/2000/svg">
<path fill-rule="evenodd" clip-rule="evenodd" d="M1.5 9.91641C1.5 8.02958 3.02958 6.5 4.91641 6.5C5.88694 6.5 6.77417 5.95166 7.2082 5.08359L7.7 4.1C7.939 3.622 8.0585 3.38301 8.22093 3.19449C8.48936 2.88296 8.84729 2.66175 9.24598 2.56098C9.48723 2.5 9.75444 2.5 10.2889 2.5H13.7111C14.2456 2.5 14.5128 2.5 14.754 2.56098C15.1527 2.66175 15.5106 2.88296 15.7791 3.19449C15.9415 3.38301 16.061 3.622 16.3 4.1L16.7918 5.08359C17.2258 5.95166 18.1131 6.5 19.0836 6.5C20.9704 6.5 22.5 8.02958 22.5 9.91641V15.1C22.5 17.3402 22.5 18.4603 22.064 19.316C21.6805 20.0686 21.0686 20.6805 20.316 21.064C19.4603 21.5 18.3402 21.5 16.1 21.5H7.9C5.65979 21.5 4.53969 21.5 3.68404 21.064C2.93139 20.6805 2.31947 20.0686 1.93597 19.316C1.5 18.4603 1.5 17.3402 1.5 15.1V9.91641ZM16 14C16 16.2091 14.2091 18 12 18C9.79086 18 8 16.2091 8 14C8 11.7909 9.79086 10 12 10C14.2091 10 16 11.7909 16 14ZM19 11.5C19.8284 11.5 20.5 10.8284 20.5 10C20.5 9.17157 19.8284 8.5 19 8.5C18.1716 8.5 17.5 9.17157 17.5 10C17.5 10.8284 18.1716 11.5 19 11.5Z" fill="white"/>
</svg>
