<svg width="22" height="22" viewBox="0 0 22 22" fill="none" xmlns="http://www.w3.org/2000/svg">
<path fill-rule="evenodd" clip-rule="evenodd" d="M2.60624 4.76024C1.36959 5.27417 0.5 6.49374 0.5 7.91641V13.1C0.5 15.3402 0.5 16.4603 0.935974 17.316C1.31947 18.0686 1.93139 18.6805 2.68404 19.064C3.53969 19.5 4.65979 19.5 6.9 19.5H15.1C15.6369 19.5 16.1095 19.5 16.5295 19.494L12.8164 15.5647C12.2713 15.843 11.654 16 11 16C8.79086 16 7 14.2091 7 12C7 11.2653 7.19808 10.5768 7.54376 9.98516L2.60624 4.76024ZM5.75406 3.72342L9.9317 8.14425C10.2718 8.05023 10.63 8 11 8C13.2091 8 15 9.79086 15 12C15 12.4493 14.9259 12.8814 14.7893 13.2846L19.321 18.0801C19.5272 18.2983 19.6552 18.5621 19.7058 18.8368C20.2802 18.4571 20.7491 17.934 21.064 17.316C21.5 16.4603 21.5 15.3402 21.5 13.1V7.91641C21.5 6.02958 19.9704 4.5 18.0836 4.5C17.1131 4.5 16.2258 3.95166 15.7918 3.08359L15.3 2.1C15.061 1.622 14.9415 1.38301 14.7791 1.19449C14.5106 0.882961 14.1527 0.661745 13.754 0.560977C13.5128 0.5 13.2456 0.5 12.7111 0.5H9.28885C8.75444 0.5 8.48723 0.5 8.24598 0.560977C7.84729 0.661745 7.48936 0.882961 7.22093 1.19449C7.0585 1.38301 6.939 1.622 6.7 2.1L6.2082 3.08359C6.08864 3.32273 5.93468 3.53759 5.75406 3.72342ZM19.5 8C19.5 8.82843 18.8284 9.5 18 9.5C17.1716 9.5 16.5 8.82843 16.5 8C16.5 7.17157 17.1716 6.5 18 6.5C18.8284 6.5 19.5 7.17157 19.5 8Z" fill="white"/>
<rect width="2" height="25" rx="1" transform="matrix(-0.726815 0.686834 0.686834 0.726815 2.55 1.84344)" fill="white"/>
</svg>
