<svg width="25" height="25" viewBox="0 0 25 25" fill="none" xmlns="http://www.w3.org/2000/svg">
<path fill-rule="evenodd" clip-rule="evenodd" d="M22.676 11.1045C22.5306 11.9866 22.2291 12.8281 21.7949 13.6099C21.8479 13.8669 21.8752 14.1278 21.8752 14.3906C21.8752 15.1634 21.6512 15.9019 21.2381 16.571C21.0496 16.8765 20.9989 17.2391 20.9792 17.4889C20.9568 17.772 20.9642 18.0839 20.9848 18.3861C21.0113 18.7774 21.0628 19.1918 21.1199 19.5724C20.6911 19.4448 20.2126 19.3129 19.7593 19.2107C19.4254 19.1353 19.086 19.0717 18.7803 19.0401C18.5104 19.0122 18.1362 18.9929 17.8067 19.0994C17.0296 19.3507 16.1751 19.4906 15.2752 19.4906C14.1199 19.4906 13.0628 19.2682 12.1492 18.8855C12.025 18.8889 11.9003 18.8906 11.7752 18.8906C10.6349 18.8906 9.53522 18.7486 8.50098 18.4852C10.064 20.2188 12.5807 21.2906 15.2752 21.2906C16.3536 21.2906 17.388 21.1241 18.3401 20.8187L18.3399 20.819C18.34 20.8194 18.3436 20.8193 18.3513 20.8191C18.3781 20.8182 18.4532 20.8159 18.5954 20.8306C18.8015 20.8519 19.0637 20.899 19.3631 20.9665C19.9596 21.1011 20.6284 21.2993 21.1482 21.4643C22.1758 21.7904 23.1727 20.8931 22.989 19.8497C22.9041 19.3679 22.8155 18.7774 22.7806 18.2642C22.7631 18.0063 22.7609 17.7912 22.7736 17.6306C22.7805 17.5425 22.7903 17.4948 22.7944 17.4763C23.3538 16.5552 23.6752 15.5066 23.6752 14.3906C23.6752 13.1787 23.3096 12.0662 22.676 11.1045Z" fill="#C7FFF1"/>
<path d="M20.2754 9.89062C20.2754 13.4805 16.4698 16.3906 11.7754 16.3906C10.5277 16.3906 9.34275 16.185 8.27539 15.8158C7.59083 15.5789 5.24385 16.4139 3.84664 16.9576C3.43851 17.1164 3.01472 16.7153 3.15172 16.2994C3.58424 14.9861 4.20132 12.894 3.92683 12.3906C3.50715 11.621 3.27539 10.7765 3.27539 9.89062C3.27539 6.30077 7.08096 3.39062 11.7754 3.39062C16.4698 3.39062 20.2754 6.30077 20.2754 9.89062Z" stroke="#C7FFF1" stroke-width="2.5"/>
</svg>
