<svg width="20" height="20" viewBox="0 0 20 20" fill="none" xmlns="http://www.w3.org/2000/svg">
<path fill-rule="evenodd" clip-rule="evenodd" d="M8.07143 2.5C7.10528 2.5 6.17871 2.89509 5.49554 3.59835C4.81237 4.30161 4.42857 5.25544 4.42857 6.25V11.25C4.42857 12.9076 5.06824 14.4973 6.20685 15.6694C7.34547 16.8415 8.88976 17.5 10.5 17.5C12.1102 17.5 13.6545 16.8415 14.7931 15.6694C15.9318 14.4973 16.5714 12.9076 16.5714 11.25V6.25C16.5714 5.91848 16.6994 5.60054 16.9271 5.36612C17.1548 5.1317 17.4637 5 17.7857 5C18.1078 5 18.4166 5.1317 18.6443 5.36612C18.8721 5.60054 19 5.91848 19 6.25V11.25C19 12.3991 18.7801 13.5369 18.353 14.5985C17.9258 15.6601 17.2997 16.6247 16.5104 17.4372C15.7211 18.2497 14.7841 18.8942 13.7528 19.3339C12.7215 19.7737 11.6162 20 10.5 20C9.38376 20 8.27846 19.7737 7.24719 19.3339C6.21592 18.8942 5.27889 18.2497 4.48959 17.4372C3.70029 16.6247 3.07419 15.6601 2.64702 14.5985C2.21986 13.5369 2 12.3991 2 11.25V6.25C2 4.5924 2.63967 3.00269 3.77828 1.83058C4.91689 0.65848 6.46119 0 8.07143 0C9.68167 0 11.226 0.65848 12.3646 1.83058C13.5032 3.00269 14.1429 4.5924 14.1429 6.25V11.25C14.1429 12.2446 13.7591 13.1984 13.0759 13.9017C12.3927 14.6049 11.4661 15 10.5 15C9.53385 15 8.60728 14.6049 7.92411 13.9017C7.24094 13.1984 6.85714 12.2446 6.85714 11.25V6.25C6.85714 5.91848 6.98508 5.60054 7.2128 5.36612C7.44052 5.1317 7.74938 5 8.07143 5C8.39348 5 8.70234 5.1317 8.93006 5.36612C9.15778 5.60054 9.28571 5.91848 9.28571 6.25V11.25C9.28571 11.5815 9.41365 11.8995 9.64137 12.1339C9.86909 12.3683 10.178 12.5 10.5 12.5C10.822 12.5 11.1309 12.3683 11.3586 12.1339C11.5864 11.8995 11.7143 11.5815 11.7143 11.25V6.25C11.7143 5.25544 11.3305 4.30161 10.6473 3.59835C9.96415 2.89509 9.03757 2.5 8.07143 2.5V2.5Z" fill="#1FDBAE"/>
</svg>
