<svg width="16" height="17" viewBox="0 0 16 17" fill="none" xmlns="http://www.w3.org/2000/svg">
<path d="M8 16.5C3.58214 16.5 0 12.9179 0 8.5C0 4.08214 3.58214 0.5 8 0.5C12.4179 0.5 16 4.08214 16 8.5C16 12.9179 12.4179 16.5 8 16.5ZM8 1.85714C4.33214 1.85714 1.35714 4.83214 1.35714 8.5C1.35714 12.1679 4.33214 15.1429 8 15.1429C11.6679 15.1429 14.6429 12.1679 14.6429 8.5C14.6429 4.83214 11.6679 1.85714 8 1.85714Z" fill="#1FDBAE"/>
<path d="M7.14258 5.35714C7.14258 5.12981 7.23288 4.9118 7.39363 4.75105C7.55437 4.59031 7.77239 4.5 7.99972 4.5C8.22705 4.5 8.44507 4.59031 8.60581 4.75105C8.76656 4.9118 8.85686 5.12981 8.85686 5.35714C8.85686 5.58447 8.76656 5.80249 8.60581 5.96323C8.44507 6.12398 8.22705 6.21429 7.99972 6.21429C7.77239 6.21429 7.55437 6.12398 7.39363 5.96323C7.23288 5.80249 7.14258 5.58447 7.14258 5.35714ZM7.57115 7.35714H8.42829C8.50686 7.35714 8.57115 7.42143 8.57115 7.5V12.3571C8.57115 12.4357 8.50686 12.5 8.42829 12.5H7.57115C7.49258 12.5 7.42829 12.4357 7.42829 12.3571V7.5C7.42829 7.42143 7.49258 7.35714 7.57115 7.35714Z" fill="#1FDBAE"/>
</svg>
