<svg width="13" height="15" viewBox="0 0 13 15" fill="none" xmlns="http://www.w3.org/2000/svg">
<path d="M6.5 0.5C4.25994 0.5 2.4375 2.0701 2.4375 4V6.1H1.625C0.728812 6.1 0 6.7279 0 7.5V13.1C0 13.8721 0.728812 14.5 1.625 14.5H11.375C12.2712 14.5 13 13.8721 13 13.1V7.5C13 6.7279 12.2712 6.1 11.375 6.1H10.5625V4C10.5625 2.0701 8.74006 0.5 6.5 0.5ZM11.375 7.5L11.3766 13.1H1.625V7.5H11.375ZM4.0625 6.1V4C4.0625 2.8422 5.15612 1.9 6.5 1.9C7.84387 1.9 8.9375 2.8422 8.9375 4V6.1H4.0625Z" fill="white"/>
</svg>
