<svg width="16" height="14" viewBox="0 0 16 14" fill="none" xmlns="http://www.w3.org/2000/svg">
<path fill-rule="evenodd" clip-rule="evenodd" d="M1 0C1.26522 0 1.51957 0.105357 1.70711 0.292893C1.89464 0.48043 2 0.734784 2 1V13C2 13.2652 1.89464 13.5196 1.70711 13.7071C1.51957 13.8946 1.26522 14 1 14C0.734784 14 0.48043 13.8946 0.292893 13.7071C0.105357 13.5196 0 13.2652 0 13V1C0 0.734784 0.105357 0.48043 0.292893 0.292893C0.48043 0.105357 0.734784 0 1 0ZM8.707 3.293C8.89447 3.48053 8.99979 3.73484 8.99979 4C8.99979 4.26516 8.89447 4.51947 8.707 4.707L7.414 6H15C15.2652 6 15.5196 6.10536 15.7071 6.29289C15.8946 6.48043 16 6.73478 16 7C16 7.26522 15.8946 7.51957 15.7071 7.70711C15.5196 7.89464 15.2652 8 15 8H7.414L8.707 9.293C8.88916 9.4816 8.98995 9.7342 8.98767 9.9964C8.9854 10.2586 8.88023 10.5094 8.69482 10.6948C8.50941 10.8802 8.2586 10.9854 7.9964 10.9877C7.7342 10.99 7.4816 10.8892 7.293 10.707L4.293 7.707C4.10553 7.51947 4.00021 7.26516 4.00021 7C4.00021 6.73484 4.10553 6.48053 4.293 6.293L7.293 3.293C7.48053 3.10553 7.73484 3.00021 8 3.00021C8.26516 3.00021 8.51947 3.10553 8.707 3.293Z" fill="#004348"/>
</svg>
