<svg width="167" height="56" viewBox="0 0 167 56" fill="none" xmlns="http://www.w3.org/2000/svg">
<g clip-path="url(#clip0)">
<rect x="27.796" y="55.5508" width="39.3095" height="39.2511" rx="10" transform="rotate(-135 27.796 55.5508)" fill="#1FDBAE"/>
<rect x="28" y="47.5508" width="28.3053" height="28.2632" rx="7.5" transform="rotate(-135 28 47.5508)" fill="#02A2AF"/>
<path d="M25.5972 19.5508C25.5972 18.4462 26.4927 17.5508 27.5972 17.5508H31.192V34.34C31.192 35.4446 30.2966 36.34 29.192 36.34H25.5972V19.5508Z" fill="white"/>
<path d="M35.7892 24.1433C36.8938 24.1433 37.7892 25.0387 37.7892 26.1433L37.7892 29.7381L21 29.7381C19.8954 29.7381 19 28.8427 19 27.7381L19 24.1433L35.7892 24.1433Z" fill="white"/>
<path d="M66.5849 21.2377H72.4293V37.2754H75.8271V21.2377H81.6715V18.3663H66.5849V21.2377ZM82.6299 37.2754H85.9168V35.041H86.1107C86.637 36.0751 87.7357 37.5247 90.1732 37.5247C93.5156 37.5247 96.0177 34.8748 96.0177 30.2029C96.0177 25.4757 93.4417 22.9089 90.164 22.9089C87.6619 22.9089 86.6185 24.4139 86.1107 25.4387H85.9722V18.3663H82.6299V37.2754ZM85.9076 30.1845C85.9076 27.4331 87.0894 25.6511 89.2407 25.6511C91.4658 25.6511 92.6107 27.5439 92.6107 30.1845C92.6107 32.8436 91.4474 34.7825 89.2407 34.7825C87.1079 34.7825 85.9076 32.9359 85.9076 30.1845ZM103.188 37.5524C106.493 37.5524 108.764 35.9366 109.355 33.4714L106.234 33.1206C105.782 34.3208 104.674 34.9487 103.234 34.9487C101.073 34.9487 99.6421 33.5268 99.6144 31.0985H109.494V30.0737C109.494 25.0971 106.502 22.9089 103.012 22.9089C98.9496 22.9089 96.2998 25.8912 96.2998 30.2676C96.2998 34.7179 98.9127 37.5524 103.188 37.5524ZM99.6236 28.8457C99.7252 27.036 101.064 25.5126 103.058 25.5126C104.979 25.5126 106.271 26.916 106.29 28.8457H99.6236ZM110.519 37.2754H113.806V35.041H114C114.526 36.0751 115.625 37.5247 118.062 37.5247C121.405 37.5247 123.907 34.8748 123.907 30.2029C123.907 25.4757 121.331 22.9089 118.053 22.9089C115.551 22.9089 114.508 24.4139 114 25.4387H113.861V18.3663H110.519V37.2754ZM113.797 30.1845C113.797 27.4331 114.978 25.6511 117.13 25.6511C119.355 25.6511 120.5 27.5439 120.5 30.1845C120.5 32.8436 119.336 34.7825 117.13 34.7825C114.997 34.7825 113.797 32.9359 113.797 30.1845ZM133.394 28.024H124.881V30.7754H133.394V28.024ZM135.107 37.2754H146.861V34.4039H138.533V18.3663H135.107V37.2754ZM147.736 37.2754H151.078V23.0936H147.736V37.2754ZM149.416 21.0808C150.478 21.0808 151.346 20.2683 151.346 19.2711C151.346 18.2647 150.478 17.4522 149.416 17.4522C148.345 17.4522 147.478 18.2647 147.478 19.2711C147.478 20.2683 148.345 21.0808 149.416 21.0808ZM152.565 37.2754H155.908V32.5112L157.126 31.2093L161.466 37.2754H165.464L159.647 29.215L165.141 23.0936H161.235L156.139 28.7903H155.908V18.3663H152.565V37.2754Z" fill="#1FDBAE"/>
</g>
<defs>
<clipPath id="clip0">
<rect width="166.551" height="55.5508" fill="white"/>
</clipPath>
</defs>
</svg>
