<svg width="21" height="23" viewBox="0 0 21 23" fill="none" xmlns="http://www.w3.org/2000/svg">
<path d="M10.7754 0.640625C9.02539 0.640625 7.97789 0.911394 7.31206 1.24901C6.97872 1.41824 6.74206 1.59593 6.58289 1.77786C6.42289 1.95978 6.32206 2.22716 6.32206 2.22716C6.29593 2.29512 6.27856 2.36622 6.27039 2.4387L5.82706 8.22978C5.82122 8.26532 5.83289 8.32286 5.82706 8.36178L5.77539 8.94393C5.77054 8.99656 5.77054 9.04954 5.77539 9.10216C5.77539 11.8945 8.02539 14.1791 10.7754 14.1791C13.5254 14.1791 15.7754 11.8945 15.7754 9.10216V8.97016C15.7755 8.96142 15.7755 8.95268 15.7754 8.94393L15.2804 2.4387C15.2722 2.36622 15.2549 2.29512 15.2287 2.22716C15.2287 2.22716 15.1279 1.95978 14.9679 1.77786C14.8087 1.59509 14.5721 1.41739 14.2387 1.24901C13.5729 0.910548 12.5254 0.640625 10.7754 0.640625ZM10.7754 14.1791C5.27539 14.1791 0.775391 16.8072 0.775391 19.1765V22.6406H20.7754V19.1765C20.7754 16.9257 16.7071 14.4465 11.5829 14.2053C11.3141 14.1873 11.0448 14.1786 10.7754 14.1791V14.1791ZM10.7754 2.33293C12.3587 2.33293 13.1496 2.58678 13.4837 2.75601C13.5954 2.8127 13.6087 2.8347 13.6404 2.86178L13.9787 7.19832C13.2121 7.2457 12.1671 7.40986 10.7754 7.40986C9.38372 7.40986 8.33956 7.2457 7.57206 7.19832L7.91039 2.86178C7.94122 2.8347 7.95539 2.8127 8.06706 2.75601C8.40122 2.58678 9.19206 2.33293 10.7754 2.33293V2.33293ZM10.0979 3.17909V4.18432H9.10872V5.55932H10.0987V6.5637H11.4521V5.55847H12.4421V4.18432H11.4521V3.17909H10.0987H10.0979ZM8.27539 16.0829L10.4112 20.9483H2.44206V19.1765C2.44206 18.5461 4.56706 16.6998 8.27539 16.0829ZM13.2754 16.0829C16.9837 16.7006 19.1087 18.5461 19.1087 19.1765V20.9483H11.1396L13.2754 16.0829Z" fill="#C7FFF1"/>
</svg>
