<svg width="17" height="22" viewBox="0 0 17 22" fill="none" xmlns="http://www.w3.org/2000/svg">
<path fill-rule="evenodd" clip-rule="evenodd" d="M5.00004 4C5.00004 1.79086 6.7909 0 9.00004 0C11.2092 0 13 1.79086 13 4V11C13 11.7277 12.8057 12.4099 12.4662 12.9978L5.00004 5.09771V4ZM5.00004 9.22339V11C5.00004 13.2091 6.7909 15 9.00004 15C9.44251 15 9.86821 14.9282 10.2661 14.7955L5.00004 9.22339ZM11.4428 16.0406C10.7046 16.399 9.87578 16.6 9.00004 16.6C5.90724 16.6 3.40004 14.0928 3.40004 11V10C3.40004 9.50294 2.99709 9.1 2.50004 9.1C2.00298 9.1 1.60004 9.50294 1.60004 10V11C1.60004 14.7823 4.4376 17.9018 8.10004 18.3458V20.1H5.00004C4.50298 20.1 4.10004 20.5029 4.10004 21C4.10004 21.4971 4.50298 21.9 5.00004 21.9H9.00004H13C13.4971 21.9 13.9 21.4971 13.9 21C13.9 20.5029 13.4971 20.1 13 20.1H9.90004V18.3458C10.9198 18.2222 11.8755 17.8911 12.7239 17.3961L11.4428 16.0406ZM14.8553 15.5257C15.8237 14.2745 16.4 12.7046 16.4 11V10C16.4 9.50294 15.9971 9.1 15.5 9.1C15.003 9.1 14.6 9.50294 14.6 10V11C14.6 12.1882 14.23 13.2899 13.5989 14.1963L14.8553 15.5257Z" fill="white"/>
<rect width="1.8892" height="20.7812" rx="0.944598" transform="matrix(-0.726784 0.686866 0.686866 0.726784 2.33102 3.64883)" fill="white"/>
</svg>
