<svg width="24" height="24" viewBox="0 0 24 24" fill="none" xmlns="http://www.w3.org/2000/svg">
<path fill-rule="evenodd" clip-rule="evenodd" d="M12 1C9.79087 1 8.00001 2.79086 8.00001 5V12C8.00001 14.2091 9.79087 16 12 16C14.2091 16 16 14.2091 16 12V5C16 2.79086 14.2091 1 12 1ZM6.40001 11C6.40001 10.5029 5.99706 10.1 5.50001 10.1C5.00295 10.1 4.60001 10.5029 4.60001 11V12C4.60001 15.7823 7.43757 18.9018 11.1 19.3458V21.1H8.00001C7.50295 21.1 7.10001 21.5029 7.10001 22C7.10001 22.4971 7.50295 22.9 8.00001 22.9H12H16C16.4971 22.9 16.9 22.4971 16.9 22C16.9 21.5029 16.4971 21.1 16 21.1H12.9V19.3458C16.5624 18.9018 19.4 15.7823 19.4 12V11C19.4 10.5029 18.9971 10.1 18.5 10.1C18.0029 10.1 17.6 10.5029 17.6 11V12C17.6 15.0928 15.0928 17.6 12 17.6C8.90721 17.6 6.40001 15.0928 6.40001 12V11Z" fill="white"/>
</svg>
