<svg width="24" height="24" viewBox="0 0 24 24" fill="none" xmlns="http://www.w3.org/2000/svg">
<path fill-rule="evenodd" clip-rule="evenodd" d="M8.00004 5C8.00004 2.79086 9.7909 1 12 1C14.2092 1 16 2.79086 16 5V12C16 12.7277 15.8057 13.4099 15.4662 13.9978L8.00004 6.09771V5ZM8.00004 10.2234V12C8.00004 14.2091 9.7909 16 12 16C12.4425 16 12.8682 15.9282 13.2661 15.7955L8.00004 10.2234ZM14.4428 17.0406C13.7046 17.399 12.8758 17.6 12 17.6C8.90724 17.6 6.40004 15.0928 6.40004 12V11C6.40004 10.5029 5.99709 10.1 5.50004 10.1C5.00298 10.1 4.60004 10.5029 4.60004 11V12C4.60004 15.7823 7.4376 18.9018 11.1 19.3458V21.1H8.00004C7.50298 21.1 7.10004 21.5029 7.10004 22C7.10004 22.4971 7.50298 22.9 8.00004 22.9H12H16C16.4971 22.9 16.9 22.4971 16.9 22C16.9 21.5029 16.4971 21.1 16 21.1H12.9V19.3458C13.9198 19.2222 14.8755 18.8911 15.7239 18.3961L14.4428 17.0406ZM17.8553 16.5257C18.8237 15.2745 19.4 13.7046 19.4 12V11C19.4 10.5029 18.9971 10.1 18.5 10.1C18.003 10.1 17.6 10.5029 17.6 11V12C17.6 13.1882 17.23 14.2899 16.5989 15.1963L17.8553 16.5257Z" fill="white"/>
<path d="M4.6445 5.29762L4.64451 5.29762C5.02366 4.93929 5.62151 4.95617 5.97984 5.33532L18.9561 19.0657C19.3144 19.4449 19.2976 20.0427 18.9184 20.4011C18.5392 20.7594 17.9414 20.7425 17.5831 20.3634L4.6068 6.63295C4.24847 6.2538 4.26535 5.65595 4.6445 5.29762Z" fill="white"/>
</svg>
