<svg width="21" height="26" viewBox="0 0 21 26" fill="none" xmlns="http://www.w3.org/2000/svg">
<path d="M12.0254 15.7207H7.02539C6.69387 15.7207 6.37593 15.8524 6.14151 16.0868C5.90709 16.3212 5.77539 16.6392 5.77539 16.9707C5.77539 17.3022 5.90709 17.6202 6.14151 17.8546C6.37593 18.089 6.69387 18.2207 7.02539 18.2207H12.0254C12.3569 18.2207 12.6749 18.089 12.9093 17.8546C13.1437 17.6202 13.2754 17.3022 13.2754 16.9707C13.2754 16.6392 13.1437 16.3212 12.9093 16.0868C12.6749 15.8524 12.3569 15.7207 12.0254 15.7207ZM17.0254 3.2207H15.5504C15.2925 2.49127 14.8153 1.85945 14.1842 1.41188C13.5531 0.964301 12.7991 0.722878 12.0254 0.720703H9.52539C8.75171 0.722878 7.99764 0.964301 7.36656 1.41188C6.73548 1.85945 6.25828 2.49127 6.00039 3.2207H4.52539C3.53083 3.2207 2.577 3.61579 1.87374 4.31905C1.17048 5.02231 0.775391 5.97614 0.775391 6.9707V21.9707C0.775391 22.9653 1.17048 23.9191 1.87374 24.6224C2.577 25.3256 3.53083 25.7207 4.52539 25.7207H17.0254C18.02 25.7207 18.9738 25.3256 19.677 24.6224C20.3803 23.9191 20.7754 22.9653 20.7754 21.9707V6.9707C20.7754 5.97614 20.3803 5.02231 19.677 4.31905C18.9738 3.61579 18.02 3.2207 17.0254 3.2207ZM8.27539 4.4707C8.27539 4.13918 8.40709 3.82124 8.64151 3.58682C8.87593 3.3524 9.19387 3.2207 9.52539 3.2207H12.0254C12.3569 3.2207 12.6749 3.3524 12.9093 3.58682C13.1437 3.82124 13.2754 4.13918 13.2754 4.4707V5.7207H8.27539V4.4707ZM18.2754 21.9707C18.2754 22.3022 18.1437 22.6202 17.9093 22.8546C17.6749 23.089 17.3569 23.2207 17.0254 23.2207H4.52539C4.19387 23.2207 3.87593 23.089 3.64151 22.8546C3.40709 22.6202 3.27539 22.3022 3.27539 21.9707V6.9707C3.27539 6.63918 3.40709 6.32124 3.64151 6.08682C3.87593 5.8524 4.19387 5.7207 4.52539 5.7207H5.77539V6.9707C5.77539 7.30222 5.90709 7.62017 6.14151 7.85459C6.37593 8.08901 6.69387 8.2207 7.02539 8.2207H14.5254C14.8569 8.2207 15.1749 8.08901 15.4093 7.85459C15.6437 7.62017 15.7754 7.30222 15.7754 6.9707V5.7207H17.0254C17.3569 5.7207 17.6749 5.8524 17.9093 6.08682C18.1437 6.32124 18.2754 6.63918 18.2754 6.9707V21.9707ZM14.5254 10.7207H7.02539C6.69387 10.7207 6.37593 10.8524 6.14151 11.0868C5.90709 11.3212 5.77539 11.6392 5.77539 11.9707C5.77539 12.3022 5.90709 12.6202 6.14151 12.8546C6.37593 13.089 6.69387 13.2207 7.02539 13.2207H14.5254C14.8569 13.2207 15.1749 13.089 15.4093 12.8546C15.6437 12.6202 15.7754 12.3022 15.7754 11.9707C15.7754 11.6392 15.6437 11.3212 15.4093 11.0868C15.1749 10.8524 14.8569 10.7207 14.5254 10.7207Z" fill="#C7FFF1"/>
</svg>
