<svg width="16" height="16" viewBox="0 0 16 16" fill="none" xmlns="http://www.w3.org/2000/svg">
<path fill-rule="evenodd" clip-rule="evenodd" d="M14.75 5.04282C14.2415 5.55134 13.9872 5.80561 13.6814 5.86202C13.5615 5.88413 13.4385 5.88413 13.3186 5.86202C13.0128 5.80561 12.7585 5.55135 12.25 5.04282L10.75 3.54282C10.2415 3.03429 9.98721 2.78003 9.9308 2.4742C9.90868 2.35429 9.90868 2.23134 9.9308 2.11143C9.98721 1.80561 10.2415 1.55135 10.75 1.04282C11.2585 0.53429 11.5128 0.280027 11.8186 0.223619C11.9385 0.201502 12.0615 0.201502 12.1814 0.223619C12.4872 0.280027 12.7415 0.53429 13.25 1.04282L14.75 2.54282C15.2585 3.05134 15.5128 3.30561 15.5692 3.61143C15.5913 3.73134 15.5913 3.85429 15.5692 3.9742C15.5128 4.28003 15.2585 4.53429 14.75 5.04282ZM2 15.7928C1.05719 15.7928 0.585786 15.7928 0.292893 15.4999C0 15.207 0 14.7356 0 13.7928V12.6212C0 12.2125 0 12.0081 0.0761205 11.8243C0.152241 11.6406 0.296756 11.4961 0.585787 11.207L7.08579 4.70703C7.75245 4.04036 8.08579 3.70703 8.5 3.70703C8.91421 3.70703 9.24755 4.04036 9.91421 4.70703L11.0858 5.8786C11.7525 6.54527 12.0858 6.8786 12.0858 7.29282C12.0858 7.70703 11.7525 8.04036 11.0858 8.70703L4.58579 15.207C4.29676 15.4961 4.15224 15.6406 3.96847 15.7167C3.7847 15.7928 3.58032 15.7928 3.17157 15.7928H2Z" fill="#004348"/>
</svg>
