<svg width="18" height="18" viewBox="0 0 18 18" fill="none" xmlns="http://www.w3.org/2000/svg">
<path d="M0 1.125C0 0.826631 0.118526 0.540483 0.329505 0.329505C0.540483 0.118526 0.826631 0 1.125 0H3.54712C3.81342 0.00012259 4.07104 0.0947033 4.27415 0.266917C4.47726 0.439131 4.6127 0.677811 4.65637 0.9405L5.48888 5.92987C5.52865 6.1675 5.4911 6.41161 5.38173 6.62628C5.27237 6.84096 5.09698 7.01486 4.88138 7.12238L3.13987 7.992C3.76437 9.53961 4.69444 10.9454 5.8745 12.1255C7.05456 13.3056 8.46039 14.2356 10.008 14.8601L10.8788 13.1186C10.9862 12.9032 11.1599 12.728 11.3744 12.6186C11.5888 12.5093 11.8327 12.4716 12.0701 12.5111L17.0595 13.3436C17.3222 13.3873 17.5609 13.5227 17.7331 13.7258C17.9053 13.929 17.9999 14.1866 18 14.4529V16.875C18 17.1734 17.8815 17.4595 17.6705 17.6705C17.4595 17.8815 17.1734 18 16.875 18H14.625C6.5475 18 0 11.4525 0 3.375V1.125Z" fill="white"/>
</svg>
