<svg width="19" height="20" viewBox="0 0 19 20" fill="none" xmlns="http://www.w3.org/2000/svg">
<path d="M0.597494 10.416L4.04949 11.927L13.9975 6.50003L7.99749 13.5L16.5975 17.416C16.7446 17.4804 16.905 17.5085 17.0652 17.4978C17.2254 17.4871 17.3807 17.438 17.5179 17.3547C17.6551 17.2713 17.7703 17.1561 17.8536 17.0188C17.9369 16.8816 17.9859 16.7262 17.9965 16.566L18.9965 1.56603C19.0076 1.39242 18.9734 1.21889 18.8971 1.06254C18.8208 0.906177 18.7051 0.772374 18.5614 0.674294C18.4178 0.576213 18.251 0.517234 18.0776 0.503162C17.9042 0.489089 17.7301 0.520407 17.5725 0.594034L0.572494 8.59403C0.399083 8.67631 0.252952 8.80666 0.151478 8.96958C0.0500053 9.1325 -0.00253903 9.32114 9.43439e-05 9.51306C0.00272772 9.70498 0.0604279 9.89211 0.166333 10.0522C0.272238 10.2123 0.421891 10.3385 0.597494 10.416ZM5.99749 19.5L10.7735 17.184L5.99749 14.956V19.5Z" fill="#1FDBAE"/>
</svg>
