<svg width="264" height="264" viewBox="0 0 264 264" fill="none" xmlns="http://www.w3.org/2000/svg">
<path fill-rule="evenodd" clip-rule="evenodd" d="M237.6 132C237.6 160.007 226.474 186.867 206.67 206.671C186.867 226.474 160.007 237.6 132 237.6C103.993 237.6 77.1334 226.474 57.3295 206.671C37.5257 186.867 26.4 160.007 26.4 132C26.4 103.993 37.5257 77.1334 57.3295 57.3295C77.1334 37.5257 103.993 26.4 132 26.4C160.007 26.4 186.867 37.5257 206.67 57.3295C226.474 77.1334 237.6 103.993 237.6 132V132ZM158.4 92.4C158.4 99.4017 155.619 106.117 150.668 111.068C145.717 116.019 139.002 118.8 132 118.8C124.998 118.8 118.283 116.019 113.332 111.068C108.381 106.117 105.6 99.4017 105.6 92.4C105.6 85.3983 108.381 78.6834 113.332 73.7324C118.283 68.7814 124.998 66 132 66C139.002 66 145.717 68.7814 150.668 73.7324C155.619 78.6834 158.4 85.3983 158.4 92.4V92.4ZM132 145.2C119.362 145.197 106.99 148.823 96.3523 155.647C85.7149 162.47 77.2602 172.204 71.9928 183.691C79.4201 192.332 88.6284 199.264 98.9861 204.012C109.344 208.761 120.606 211.212 132 211.2C143.394 211.212 154.656 208.761 165.014 204.012C175.372 199.264 184.58 192.332 192.007 183.691C186.74 172.204 178.285 162.47 167.648 155.647C157.01 148.823 144.638 145.197 132 145.2V145.2Z" fill="#D2D6DB"/>
</svg>
