<svg width="230" height="393" viewBox="0 0 230 393" fill="none" xmlns="http://www.w3.org/2000/svg">
<path fill-rule="evenodd" clip-rule="evenodd" d="M74.2999 3.9908V29.6471C74.2999 30.4727 73.9643 31.2201 73.4216 31.7611C72.8781 32.303 72.127 32.6379 71.2972 32.6379L60.8245 32.637L55.6499 38.275L50.4745 32.637L40.0028 32.6379C39.1731 32.6379 38.4217 32.3032 37.878 31.7611C37.3356 31.2203 37 30.4731 37 29.6471V3.9908C37 3.16512 37.3356 2.41771 37.8783 1.87671C38.4218 1.33481 39.1729 1 40.0028 1H71.2971C72.1268 1 72.8782 1.33469 73.422 1.87679C73.9643 2.41755 74.2999 3.16472 74.2999 3.9908Z" fill="#004348" stroke="white" stroke-width="2"/>
<path d="M55.9983 26.5C57.379 26.5 58.4983 25.3807 58.4983 24C58.4983 23.6444 58.4241 23.3062 58.2903 23H53.7063C53.5725 23.3062 53.4983 23.6444 53.4983 24C53.4983 25.3807 54.6176 26.5 55.9983 26.5Z" stroke="white" stroke-width="1.8"/>
<path d="M56 8C52.4101 8 49.5 11.4101 49.5 15V18.3333C49.5 19.3825 49.006 20.3705 48.1667 21C47.3124 21.6407 47.7655 23 48.8333 23H63.1667C64.2345 23 64.6876 21.6407 63.8333 21C62.994 20.3705 62.5 19.3825 62.5 18.3333V15C62.5 11.4101 59.5899 8 56 8Z" stroke="white" stroke-width="1.8" stroke-linecap="round" stroke-linejoin="round"/>
<path fill-rule="evenodd" clip-rule="evenodd" d="M22.3923 365L20.7846 391.785L12.3723 382.114L0 379.785L22.3923 365Z" fill="#1FDBAE"/>
<path fill-rule="evenodd" clip-rule="evenodd" d="M209.194 389.677L35.0674 358.974C33.1637 358.638 31.5764 357.563 30.5488 356.095C29.5213 354.628 29.0536 352.768 29.3892 350.864L38.8599 297.154C39.1955 295.25 40.271 293.663 41.7385 292.635C43.206 291.608 45.0654 291.14 46.9691 291.476L221.095 322.179C222.999 322.515 224.586 323.59 225.614 325.058C226.641 326.525 227.109 328.385 226.774 330.288L217.303 383.999C216.967 385.902 215.892 387.49 214.424 388.517C212.957 389.545 211.097 390.012 209.194 389.677Z" stroke="#1FDBAE" stroke-width="2"/>
<path fill-rule="evenodd" clip-rule="evenodd" d="M49.5507 305.241L167.929 326.114C169.561 326.402 170.65 327.958 170.363 329.59L169.873 332.364C169.586 333.996 168.03 335.085 166.398 334.798L48.0196 313.924C46.3879 313.637 45.2984 312.081 45.5861 310.449L46.0754 307.675C46.3631 306.043 47.9191 304.953 49.5507 305.241Z" fill="#1FDBAE"/>
<path opacity="0.3" d="M88.097 334.72L45.6719 327.239C44.0402 326.951 42.4842 328.041 42.1965 329.673L41.7073 332.447C41.4196 334.079 42.5091 335.635 44.1408 335.923L86.5658 343.403C88.1975 343.691 89.7535 342.601 90.0412 340.97L90.5304 338.195C90.8182 336.563 89.7286 335.007 88.097 334.72Z" fill="#1FDBAE"/>
<path opacity="0.3" d="M65.0347 344.382L43.3242 340.554C41.6925 340.266 40.1365 341.355 39.8488 342.987L39.3596 345.762C39.0718 347.393 40.1614 348.949 41.793 349.237L63.5036 353.065C65.1353 353.353 66.6912 352.263 66.9789 350.632L67.4682 347.857C67.7559 346.225 66.6664 344.67 65.0347 344.382Z" fill="#1FDBAE"/>
<path d="M199.869 379.693C205.459 380.678 210.794 376.919 211.786 371.295C212.778 365.671 209.05 360.313 203.46 359.328C197.871 358.342 192.535 362.102 191.544 367.726C190.552 373.349 194.28 378.707 199.869 379.693Z" fill="#1FDBAE"/>
</svg>
