<?xml version="1.0" encoding="UTF-8"?>
<svg xmlns="http://www.w3.org/2000/svg" xmlns:xlink="http://www.w3.org/1999/xlink" width="300pt" height="400pt" viewBox="0 0 300 400" version="1.1">
<g id="surface1">
<path style=" stroke:none;fill-rule:evenodd;fill:rgb(66.666667%,85.490196%,94.509804%);fill-opacity:1;" d="M 281.234375 226.828125 C 250 226.375 234.585938 339.003906 237.210938 347.097656 C 237.8125 348.941406 239.238281 350.964844 241.0625 352.894531 L 268.542969 352.894531 C 272.691406 344.039062 278.632812 326.003906 283.304688 306.082031 L 275.457031 301.703125 L 285.367188 296.714844 C 287.554688 286.464844 289.089844 276.085938 289.96875 265.640625 L 282.265625 263.863281 L 286.5 257.703125 L 281.632812 256.582031 L 289.960938 247.566406 C 289.0625 237.792969 286.5 230.167969 281.234375 226.828125 Z M 281.234375 226.828125 "/>
<path style="fill:none;stroke-width:2;stroke-linecap:round;stroke-linejoin:round;stroke:rgb(44.705882%,64.705882%,74.117647%);stroke-opacity:1;stroke-miterlimit:4;" d="M 501.388493 404.902213 L 450.674936 629.902894 " transform="matrix(0.560747,0,0,0.560224,0,0)"/>
<path style=" stroke:none;fill-rule:evenodd;fill:rgb(66.666667%,85.490196%,94.509804%);fill-opacity:1;" d="M 224.757812 199.882812 C 186.628906 214.078125 213.09375 339.070312 220.703125 352.527344 L 261.046875 352.527344 C 261.101562 352.417969 261.1875 352.335938 261.234375 352.230469 C 265.71875 343.113281 264.632812 281.441406 252.476562 239.363281 L 242.453125 239.589844 L 249.289062 229.628906 C 243.367188 213.289062 235.359375 201.394531 224.757812 199.882812 Z M 224.757812 199.882812 "/>
<path style="fill:none;stroke-width:2;stroke-linecap:round;stroke-linejoin:round;stroke:rgb(44.705882%,64.705882%,74.117647%);stroke-opacity:1;stroke-miterlimit:4;" d="M 339.376792 629.930784 L 534.380169 629.930784 " transform="matrix(0.560747,0,0,0.560224,0,0)"/>
<path style="fill:none;stroke-width:2;stroke-linecap:round;stroke-linejoin:round;stroke:rgb(44.705882%,64.705882%,74.117647%);stroke-opacity:1;stroke-miterlimit:4;" d="M 400.657994 356.860604 L 433.586975 629.400862 " transform="matrix(0.560747,0,0,0.560224,0,0)"/>
<path style=" stroke:none;fill-rule:evenodd;fill:rgb(96.862745%,49.803922%,53.72549%);fill-opacity:1;" d="M 218.523438 336.695312 C 222.449219 339.542969 234.328125 349.136719 234.976562 351.742188 C 235.621094 354.347656 229.132812 371.699219 227.742188 372.953125 C 226.351562 374.207031 212.570312 377.542969 211.914062 378.433594 C 211.257812 379.324219 211.78125 382.042969 212.4375 383.382812 C 213.09375 384.722656 234.179688 383.210938 234.179688 383.210938 C 234.179688 383.210938 261.546875 356.195312 261.207031 354.191406 C 260.867188 352.183594 230.15625 324.496094 230.15625 324.496094 C 230.15625 324.496094 214.609375 333.855469 218.523438 336.695312 Z M 218.523438 336.695312 "/>
<path style=" stroke:none;fill-rule:evenodd;fill:rgb(38.823529%,40.392157%,99.215686%);fill-opacity:1;" d="M 248.921875 341.804688 C 247.875 348.886719 244.160156 359.566406 232.523438 361.625 C 230.71875 366.878906 228.5 372.269531 227.734375 372.953125 C 226.34375 374.199219 212.570312 377.542969 211.914062 378.433594 C 211.257812 379.324219 211.796875 382.042969 212.4375 383.382812 C 213.085938 384.722656 234.171875 383.210938 234.171875 383.210938 C 234.171875 383.210938 261.5625 356.207031 261.210938 354.199219 C 261.066406 353.355469 255.269531 347.765625 248.921875 341.804688 Z M 248.921875 341.804688 "/>
<path style=" stroke:none;fill-rule:evenodd;fill:rgb(96.862745%,49.803922%,53.72549%);fill-opacity:1;" d="M 82.699219 360.457031 C 81.308594 364.144531 66.398438 399.441406 64.816406 400.179688 C 63.234375 400.917969 19.0625 379.394531 18.726562 377.269531 C 18.390625 375.148438 20.414062 370.644531 22.003906 370.96875 C 38.875 374.332031 59.40625 375.480469 61.640625 371.226562 C 63.882812 366.972656 66.757812 357.089844 66.757812 357.089844 C 66.757812 357.089844 84.109375 356.800781 82.699219 360.457031 Z M 82.699219 360.457031 "/>
<path style=" stroke:none;fill-rule:evenodd;fill:rgb(38.823529%,40.392157%,99.215686%);fill-opacity:1;" d="M 22 370.96875 C 20.382812 370.652344 18.367188 375.152344 18.722656 377.269531 C 19.078125 379.390625 63.226562 400.933594 64.8125 400.175781 C 65.511719 399.832031 68.953125 392.410156 72.570312 384.222656 C 58.9375 386.28125 51.6875 379.898438 48.617188 373.933594 C 39.671875 373.734375 30.765625 372.746094 22 370.96875 Z M 22 370.96875 "/>
<path style=" stroke:none;fill-rule:evenodd;fill:rgb(76.862745%,76.862745%,76.862745%);fill-opacity:1;" d="M 124.4375 258.863281 C 169.484375 314.667969 213.265625 344.398438 213.265625 344.398438 L 236.570312 320.867188 L 169.28125 242.652344 C 169.28125 242.652344 174.796875 182.269531 163.109375 171.191406 C 151.421875 160.117188 96.109375 223.777344 124.4375 258.863281 Z M 124.4375 258.863281 "/>
<path style=" stroke:none;fill-rule:evenodd;fill:rgb(76.862745%,76.862745%,76.862745%);fill-opacity:1;" d="M 105.453125 167.582031 L 59.25 356.242188 L 84.296875 368.566406 C 84.296875 368.566406 126.246094 258.199219 132.449219 251.480469 C 145.210938 237.667969 165.925781 188.003906 164.113281 168.785156 C 162.304688 149.5625 105.453125 167.582031 105.453125 167.582031 Z M 105.453125 167.582031 "/>
<path style=" stroke:none;fill-rule:evenodd;fill:rgb(96.862745%,49.803922%,53.72549%);fill-opacity:1;" d="M 185.949219 180.761719 C 187.023438 184.332031 190.492188 191.753906 187.1875 205.035156 C 193.445312 214.699219 190.523438 221.507812 176.195312 223.214844 C 173.78125 220.273438 171.359375 218.339844 168.671875 214.101562 C 167.796875 210.28125 167.875 204.414062 167.796875 202.824219 C 167.648438 199.605469 174.1875 185.382812 173.015625 179.667969 C 171.84375 173.957031 184.875 177.1875 185.949219 180.761719 Z M 185.949219 180.761719 "/>
<path style="fill:none;stroke-width:2;stroke-linecap:round;stroke-linejoin:round;stroke:rgb(79.607843%,36.470588%,40%);stroke-opacity:1;stroke-miterlimit:4;" d="M 335.63597 390.399086 C 332.974902 387.57516 330.585513 384.50719 328.509601 381.230041 " transform="matrix(0.560747,0,0,0.560224,0,0)"/>
<path style="fill:none;stroke-width:2;stroke-linecap:round;stroke-linejoin:round;stroke:rgb(79.607843%,36.470588%,40%);stroke-opacity:1;stroke-miterlimit:4;" d="M 324.58766 396.388599 C 320.387073 392.330512 314.249896 383.761116 311.101198 378.622268 " transform="matrix(0.560747,0,0,0.560224,0,0)"/>
<path style=" stroke:none;fill-rule:evenodd;fill:rgb(96.862745%,49.803922%,53.72549%);fill-opacity:1;" d="M 66.785156 166.609375 C 63.804688 169.027344 60.707031 171.894531 56.730469 173.394531 C 50.789062 174.828125 39.90625 186.746094 39.90625 189.308594 C 39.90625 191.742188 42.078125 192.558594 43.429688 192.671875 C 44.59375 192.746094 47.078125 190.050781 47.710938 189.285156 C 46.625 191.746094 46.023438 195.085938 47.195312 196.136719 C 48.367188 197.183594 50.125 197.546875 51.296875 196.191406 C 53.238281 193.949219 52.761719 191.40625 52.9375 189.917969 C 53.890625 188.097656 56.492188 184.042969 57.585938 183.550781 C 58.359375 183.589844 59.511719 183.859375 59.730469 185.085938 C 59.949219 186.3125 57.09375 189.050781 56.773438 190.195312 C 56.773438 191.644531 58.359375 193.488281 59.730469 193.125 C 61.289062 192.710938 66.109375 188.035156 67.179688 186.753906 C 68.613281 185.035156 69.265625 181.285156 70.03125 180.035156 C 70.800781 178.785156 73.78125 176.113281 74.335938 175.550781 C 74.890625 174.992188 69.761719 164.199219 66.785156 166.609375 Z M 66.785156 166.609375 "/>
<path style="fill:none;stroke-width:2;stroke-linecap:round;stroke-linejoin:round;stroke:rgb(79.607843%,36.470588%,40%);stroke-opacity:1;stroke-miterlimit:4;" d="M 105.32119 328.412162 C 99.016826 323.175696 89.187591 333.885698 84.715324 338.208746 " transform="matrix(0.560747,0,0,0.560224,0,0)"/>
<path style=" stroke:none;fill-rule:evenodd;fill:rgb(96.862745%,81.960784%,40.392157%);fill-opacity:1;" d="M 113.097656 70.589844 C 101.546875 81.621094 95.890625 109.246094 92.8125 127.027344 C 82.679688 136.988281 62.277344 159.042969 62.292969 164.335938 C 62.3125 169.628906 72.269531 178.472656 74.804688 178.410156 C 77.335938 178.347656 100.9375 152.550781 104.601562 149.535156 C 108.269531 146.519531 115.851562 67.949219 113.097656 70.589844 Z M 113.097656 70.589844 "/>
<path style=" stroke:none;fill-rule:evenodd;fill:rgb(0%,0%,0%);fill-opacity:1;" d="M 108.824219 25.210938 C 107.273438 23.816406 104.632812 23.277344 104.632812 15.601562 C 104.632812 7.429688 114.390625 0 126.820312 0 C 146.332031 0 152 17.097656 152.671875 23.144531 C 153.347656 29.1875 152.289062 43.488281 153.644531 49.300781 C 156.367188 61.1875 167.8125 70.363281 167.8125 90.230469 C 167.8125 96.269531 141.59375 91.035156 136.898438 90.335938 C 132.207031 89.636719 126.726562 58.539062 126.726562 58.539062 C 126.726562 58.539062 110.375 26.605469 108.824219 25.210938 Z M 108.824219 25.210938 "/>
<path style=" stroke:none;fill-rule:evenodd;fill:rgb(96.862745%,49.803922%,53.72549%);fill-opacity:1;" d="M 138.628906 43.488281 C 137.691406 47.265625 137.554688 63.417969 138.25 68.808594 C 135.070312 71.085938 123.242188 70.824219 120.773438 68.355469 C 121.519531 61.699219 121.519531 55.777344 120.773438 52.894531 C 120.027344 50.015625 139.5625 39.714844 138.628906 43.488281 Z M 138.628906 43.488281 "/>
<path style=" stroke:none;fill-rule:evenodd;fill:rgb(96.862745%,49.803922%,53.72549%);fill-opacity:1;" d="M 103.738281 31.640625 C 103.738281 18.710938 113.101562 8.230469 124.660156 8.230469 C 136.21875 8.230469 145.582031 18.710938 145.582031 31.640625 C 145.582031 44.570312 136.21875 55.046875 124.660156 55.046875 C 113.101562 55.046875 103.738281 44.566406 103.738281 31.640625 Z M 103.738281 31.640625 "/>
<path style=" stroke:none;fill-rule:evenodd;fill:rgb(100%,100%,100%);fill-opacity:1;" d="M 128.757812 53.816406 C 128.453125 49.816406 125.15625 41.125 123.445312 40.089844 C 121.726562 39.050781 108.257812 37.460938 103.738281 30.738281 C 101.4375 32.636719 99.554688 36.167969 99.742188 36.902344 C 100.121094 38.417969 103.726562 40.992188 103.726562 40.992188 C 103.726562 40.992188 104.539062 50.730469 111.578125 55.070312 C 116.664062 58.21875 126.726562 55.644531 128.757812 53.816406 Z M 128.757812 53.816406 "/>
<path style="fill:none;stroke-width:2;stroke-linecap:round;stroke-linejoin:round;stroke:rgb(100%,100%,100%);stroke-opacity:1;stroke-miterlimit:4;" d="M 219.350064 73.882277 C 223.536719 66.881729 234.759183 57.719658 240.729172 55.160692 " transform="matrix(0.560747,0,0,0.560224,0,0)"/>
<path style="fill:none;stroke-width:2;stroke-linecap:round;stroke-linejoin:round;stroke:rgb(100%,100%,100%);stroke-opacity:1;stroke-miterlimit:4;" d="M 224.860287 84.3064 C 224.860287 84.3064 248.607885 87.939155 252.460165 77.626594 " transform="matrix(0.560747,0,0,0.560224,0,0)"/>
<path style=" stroke:none;fill-rule:evenodd;fill:rgb(0%,0%,0%);fill-opacity:1;" d="M 113.1875 9.703125 C 115.929688 12.179688 117.140625 18.363281 119.648438 21.46875 C 123.710938 26.511719 131.53125 27.367188 133.9375 34.015625 C 136.339844 40.667969 148.929688 35.292969 148.929688 35.292969 L 147.3125 19.484375 L 137.988281 9.742188 L 123.488281 5.601562 C 123.488281 5.601562 110.46875 7.222656 113.1875 9.703125 Z M 113.1875 9.703125 "/>
<path style=" stroke:none;fill-rule:evenodd;fill:rgb(96.862745%,49.803922%,53.72549%);fill-opacity:1;" d="M 130.339844 37.460938 C 130.339844 33.050781 133.921875 29.472656 138.335938 29.472656 C 142.75 29.472656 146.332031 33.050781 146.332031 37.460938 C 146.332031 41.875 142.75 45.449219 138.335938 45.449219 C 133.921875 45.449219 130.34375 41.871094 130.339844 37.460938 Z M 130.339844 37.460938 "/>
<path style=" stroke:none;fill-rule:evenodd;fill:rgb(79.607843%,36.470588%,40%);fill-opacity:1;" d="M 112.8125 30.015625 C 112.8125 28.398438 113.523438 27.085938 114.398438 27.085938 C 115.273438 27.085938 115.992188 28.398438 115.992188 30.015625 C 115.992188 31.636719 115.28125 32.949219 114.398438 32.949219 C 113.515625 32.949219 112.8125 31.636719 112.8125 30.015625 Z M 112.8125 30.015625 "/>
<path style=" stroke:none;fill-rule:evenodd;fill:rgb(96.862745%,81.960784%,40.392157%);fill-opacity:1;" d="M 129.71875 60.050781 C 164.054688 60.050781 187.976562 125.089844 190.460938 134.957031 C 192.953125 144.824219 191.023438 180.792969 190.132812 183.527344 C 186.726562 184.195312 174.429688 181.941406 171.875 180.410156 C 169.632812 176.667969 168.804688 148.300781 167.890625 145.730469 C 167.25 143.566406 166.113281 141.582031 164.574219 139.925781 C 165.570312 147.558594 164.492188 166.292969 163.828125 169.027344 C 163.164062 171.757812 109.875 171.628906 105.828125 169.9375 C 103.296875 168.878906 101.507812 167.777344 101.148438 165.222656 C 100.585938 161.003906 102.304688 158.214844 101.835938 154.691406 C 101.371094 151.164062 99.390625 150.621094 98.792969 144.886719 C 98.171875 138.878906 102.226562 130.878906 100.894531 124.953125 C 93.875 93.597656 110.710938 60.050781 129.71875 60.050781 Z M 129.71875 60.050781 "/>
<path style=" stroke:none;fill-rule:evenodd;fill:rgb(96.862745%,81.960784%,40.392157%);fill-opacity:1;" d="M 122.332031 59.839844 L 137.078125 59.839844 C 137.949219 59.839844 138.65625 60.835938 138.65625 62.078125 L 138.65625 68.160156 C 138.65625 69.390625 137.949219 70.402344 137.078125 70.402344 L 122.332031 70.402344 C 121.457031 70.402344 120.75 69.40625 120.75 68.160156 L 120.75 62.0625 C 120.75 60.835938 121.457031 59.839844 122.332031 59.839844 Z M 122.332031 59.839844 "/>
<path style="fill:none;stroke-width:2;stroke-linecap:round;stroke-linejoin:round;stroke:rgb(55.294118%,55.294118%,55.294118%);stroke-opacity:1;stroke-miterlimit:4;" d="M 115.568393 640.766294 L 214.16725 314.871261 " transform="matrix(0.560747,0,0,0.560224,0,0)"/>
<path style="fill:none;stroke-width:2;stroke-linecap:round;stroke-linejoin:round;stroke:rgb(55.294118%,55.294118%,55.294118%);stroke-opacity:1;stroke-miterlimit:4;" d="M 157.616062 638.848813 L 110.615462 615.56711 " transform="matrix(0.560747,0,0,0.560224,0,0)"/>
<path style="fill:none;stroke-width:2;stroke-linecap:round;stroke-linejoin:round;stroke:rgb(55.294118%,55.294118%,55.294118%);stroke-opacity:1;stroke-miterlimit:4;" d="M 209.890035 464.567242 C 205.118224 467.321442 194.975513 465.864157 190.036514 462.573062 " transform="matrix(0.560747,0,0,0.560224,0,0)"/>
<path style="fill:none;stroke-width:2;stroke-linecap:round;stroke-linejoin:round;stroke:rgb(55.294118%,55.294118%,55.294118%);stroke-opacity:1;stroke-miterlimit:4;" d="M 196.786711 436.467433 L 217.65729 456.144272 " transform="matrix(0.560747,0,0,0.560224,0,0)"/>
<path style="fill:none;stroke-width:2;stroke-linecap:round;stroke-linejoin:round;stroke:rgb(55.294118%,55.294118%,55.294118%);stroke-opacity:1;stroke-miterlimit:4;" d="M 226.15599 468.172106 C 230.830276 457.845601 234.376045 450.852025 236.159379 448.878763 C 256.451768 426.880029 288.015383 354.050623 292.341361 314.187941 " transform="matrix(0.560747,0,0,0.560224,0,0)"/>
<path style="fill:none;stroke-width:2;stroke-linecap:round;stroke-linejoin:round;stroke:rgb(55.294118%,55.294118%,55.294118%);stroke-opacity:1;stroke-miterlimit:4;" d="M 394.325766 600.575897 C 394.325766 600.575897 259.830349 472.181384 253.581715 467.147126 C 253.177678 458.152398 252.578589 440.623137 246.350853 435.240245 " transform="matrix(0.560747,0,0,0.560224,0,0)"/>
<path style="fill:none;stroke-width:2;stroke-linecap:round;stroke-linejoin:round;stroke:rgb(55.294118%,55.294118%,55.294118%);stroke-opacity:1;stroke-miterlimit:4;" d="M 298.896506 441.264621 C 294.591427 444.207083 287.221243 454.735795 286.740578 460.815953 " transform="matrix(0.560747,0,0,0.560224,0,0)"/>
<path style="fill:none;stroke-width:2;stroke-linecap:round;stroke-linejoin:round;stroke:rgb(55.294118%,55.294118%,55.294118%);stroke-opacity:1;stroke-miterlimit:4;" d="M 293.999304 437.199562 C 291.589017 437.87591 284.629836 441.836379 282.846502 445.050774 " transform="matrix(0.560747,0,0,0.560224,0,0)"/>
<path style="fill:none;stroke-width:2;stroke-linecap:round;stroke-linejoin:round;stroke:rgb(55.294118%,55.294118%,55.294118%);stroke-opacity:1;stroke-miterlimit:4;" d="M 294.208289 431.44712 L 285.479706 430.798663 L 270.997084 425.332099 " transform="matrix(0.560747,0,0,0.560224,0,0)"/>
<path style="fill:none;stroke-width:2;stroke-linecap:round;stroke-linejoin:round;stroke:rgb(55.294118%,55.294118%,55.294118%);stroke-opacity:1;stroke-miterlimit:4;" d="M 293.908745 431.433174 L 285.911607 430.833526 " transform="matrix(0.560747,0,0,0.560224,0,0)"/>
<path style="fill:none;stroke-width:2;stroke-linecap:round;stroke-linejoin:round;stroke:rgb(55.294118%,55.294118%,55.294118%);stroke-opacity:1;stroke-miterlimit:4;" d="M 408.878049 557.596437 L 361.995874 601.175545 " transform="matrix(0.560747,0,0,0.560224,0,0)"/>
<path style="fill:none;stroke-width:2;stroke-linecap:round;stroke-linejoin:round;stroke:rgb(55.294118%,55.294118%,55.294118%);stroke-opacity:1;stroke-miterlimit:4;" d="M 181.781629 324.807298 C 181.781629 324.807298 216.591469 331.11058 238.1099 328.168119 " transform="matrix(0.560747,0,0,0.560224,0,0)"/>
<path style="fill:none;stroke-width:2;stroke-linecap:round;stroke-linejoin:round;stroke:rgb(100%,19.607843%,45.490196%);stroke-opacity:1;stroke-miterlimit:4;" d="M 185.856825 304.997978 C 182.861381 303.408213 180.855131 301.441923 180.381433 297.906786 C 179.378308 290.390261 182.436446 285.397839 181.607475 279.122447 C 180.778503 272.840083 177.246666 271.856938 176.180846 261.621077 C 175.066262 250.89713 182.297123 236.617128 179.928633 226.039606 C 175.546926 205.825873 176.159947 184.852119 181.705001 164.931237 " transform="matrix(0.560747,0,0,0.560224,0,0)"/>
<path style="fill:none;stroke-width:2;stroke-linecap:round;stroke-linejoin:round;stroke:rgb(100%,19.607843%,45.490196%);stroke-opacity:1;stroke-miterlimit:4;" d="M 143.760393 310.081046 C 140.0962 307.989248 121.336364 290.899265 116.850164 281.716276 " transform="matrix(0.560747,0,0,0.560224,0,0)"/>
<path style="fill:none;stroke-width:2;stroke-linecap:round;stroke-linejoin:round;stroke:rgb(100%,19.607843%,45.490196%);stroke-opacity:1;stroke-miterlimit:4;" d="M 138.849259 306.232139 L 129.138449 316.642316 " transform="matrix(0.560747,0,0,0.560224,0,0)"/>
<path style="fill:none;stroke-width:2;stroke-linecap:round;stroke-linejoin:round;stroke:rgb(100%,19.607843%,45.490196%);stroke-opacity:1;stroke-miterlimit:4;" d="M 132.607591 301.421005 L 122.910713 311.838155 " transform="matrix(0.560747,0,0,0.560224,0,0)"/>
<path style="fill:none;stroke-width:2;stroke-linecap:round;stroke-linejoin:round;stroke:rgb(100%,19.607843%,45.490196%);stroke-opacity:1;stroke-miterlimit:4;" d="M 126.547042 295.821961 L 117.379592 305.660381 " transform="matrix(0.560747,0,0,0.560224,0,0)"/>
<path style="fill:none;stroke-width:2;stroke-linecap:round;stroke-linejoin:round;stroke:rgb(100%,19.607843%,45.490196%);stroke-opacity:1;stroke-miterlimit:4;" d="M 121.698603 289.469871 L 112.761035 299.064247 " transform="matrix(0.560747,0,0,0.560224,0,0)"/>
<path style="fill:none;stroke-width:2;stroke-linecap:round;stroke-linejoin:round;stroke:rgb(100%,19.607843%,45.490196%);stroke-opacity:1;stroke-miterlimit:4;" d="M 340.637664 314.801535 L 303.640453 310.799229 " transform="matrix(0.560747,0,0,0.560224,0,0)"/>
<path style="fill:none;stroke-width:2;stroke-linecap:round;stroke-linejoin:round;stroke:rgb(100%,19.607843%,45.490196%);stroke-opacity:1;stroke-miterlimit:4;" d="M 334.528353 314.139132 L 333.525227 330.706166 " transform="matrix(0.560747,0,0,0.560224,0,0)"/>
<path style="fill:none;stroke-width:2;stroke-linecap:round;stroke-linejoin:round;stroke:rgb(100%,19.607843%,45.490196%);stroke-opacity:1;stroke-miterlimit:4;" d="M 325.277308 313.128097 L 323.856214 329.548705 " transform="matrix(0.560747,0,0,0.560224,0,0)"/>
<path style="fill:none;stroke-width:2;stroke-linecap:round;stroke-linejoin:round;stroke:rgb(100%,19.607843%,45.490196%);stroke-opacity:1;stroke-miterlimit:4;" d="M 316.179519 312.13798 L 315.106733 327.819486 " transform="matrix(0.560747,0,0,0.560224,0,0)"/>
<path style="fill:none;stroke-width:2;stroke-linecap:round;stroke-linejoin:round;stroke:rgb(100%,19.607843%,45.490196%);stroke-opacity:1;stroke-miterlimit:4;" d="M 342.636949 271.94061 C 331.29606 271.926665 321.550419 263.908109 319.356083 252.779747 C 317.168712 241.651386 323.145667 230.523025 333.636686 226.220896 " transform="matrix(0.560747,0,0,0.560224,0,0)"/>
<path style="fill:none;stroke-width:2;stroke-linecap:round;stroke-linejoin:round;stroke:rgb(100%,19.607843%,45.490196%);stroke-opacity:1;stroke-miterlimit:4;" d="M 293.497742 252.765802 C 290.216686 247.389883 252.03523 187.153096 250.056844 184.768448 " transform="matrix(0.560747,0,0,0.560224,0,0)"/>
<path style="fill:none;stroke-width:2;stroke-linecap:round;stroke-linejoin:round;stroke:rgb(100%,19.607843%,45.490196%);stroke-opacity:1;stroke-miterlimit:4;" d="M 241.397922 185.061299 L 250.098641 184.53835 " transform="matrix(0.560747,0,0,0.560224,0,0)"/>
<path style="fill:none;stroke-width:2;stroke-linecap:round;stroke-linejoin:round;stroke:rgb(100%,19.607843%,45.490196%);stroke-opacity:1;stroke-miterlimit:4;" d="M 242.665761 194.71843 L 250.001115 184.552295 " transform="matrix(0.560747,0,0,0.560224,0,0)"/>
<path style="fill:none;stroke-width:2;stroke-linecap:round;stroke-linejoin:round;stroke:rgb(100%,19.607843%,45.490196%);stroke-opacity:1;stroke-miterlimit:4;" d="M 248.830802 199.996731 L 249.959318 184.698721 " transform="matrix(0.560747,0,0,0.560224,0,0)"/>
<path style="fill:none;stroke-width:2;stroke-linecap:round;stroke-linejoin:round;stroke:rgb(100%,19.607843%,45.490196%);stroke-opacity:1;stroke-miterlimit:4;" d="M 198.785995 278.996939 L 225.640495 265.888343 " transform="matrix(0.560747,0,0,0.560224,0,0)"/>
<path style="fill:none;stroke-width:2;stroke-linecap:round;stroke-linejoin:round;stroke:rgb(100%,19.607843%,45.490196%);stroke-opacity:1;stroke-miterlimit:4;" d="M 225.18073 262.360179 L 189.764834 269.472289 " transform="matrix(0.560747,0,0,0.560224,0,0)"/>
<path style="fill:none;stroke-width:2;stroke-linecap:round;stroke-linejoin:round;stroke:rgb(100%,19.607843%,45.490196%);stroke-opacity:1;stroke-miterlimit:4;" d="M 194.181372 264.089398 L 223.7875 244.593848 " transform="matrix(0.560747,0,0,0.560224,0,0)"/>
<path style="fill:none;stroke-width:2;stroke-linecap:round;stroke-linejoin:round;stroke:rgb(100%,19.607843%,45.490196%);stroke-opacity:1;stroke-miterlimit:4;" d="M 231.88913 125.612422 L 218.158853 125.612422 C 216.598436 125.612422 215.337563 123.827422 215.337563 121.610117 L 215.337563 110.78158 C 215.337563 108.592166 216.598436 106.779275 218.158853 106.779275 L 244.456061 106.779275 C 245.36166 106.835056 246.169733 107.358005 246.587702 108.159861 " transform="matrix(0.560747,0,0,0.560224,0,0)"/>
<path style="fill:none;stroke-width:2;stroke-linecap:round;stroke-linejoin:round;stroke:rgb(100%,19.607843%,45.490196%);stroke-opacity:1;stroke-miterlimit:4;" d="M 222.254948 106.814138 L 222.436067 125.612422 " transform="matrix(0.560747,0,0,0.560224,0,0)"/>
<path style="fill:none;stroke-width:2;stroke-linecap:round;stroke-linejoin:round;stroke:rgb(100%,19.607843%,45.490196%);stroke-opacity:1;stroke-miterlimit:4;" d="M 230.001304 107.072127 L 230.084898 116.21328 L 230.175458 125.870411 " transform="matrix(0.560747,0,0,0.560224,0,0)"/>
<path style="fill:none;stroke-width:2;stroke-linecap:round;stroke-linejoin:round;stroke:rgb(100%,19.607843%,45.490196%);stroke-opacity:1;stroke-miterlimit:4;" d="M 238.660226 107.072127 L 238.750786 116.21328 L 238.841346 125.870411 " transform="matrix(0.560747,0,0,0.560224,0,0)"/>
<path style="fill:none;stroke-width:2;stroke-linecap:round;stroke-linejoin:round;stroke:rgb(100%,100%,100%);stroke-opacity:1;stroke-miterlimit:4;" d="M 121.050751 704.259312 L 35.199945 665.770243 " transform="matrix(0.560747,0,0,0.560224,0,0)"/>
<path style="fill:none;stroke-width:2;stroke-linecap:round;stroke-linejoin:round;stroke:rgb(100%,100%,100%);stroke-opacity:1;stroke-miterlimit:4;" d="M 460.754952 626.381702 L 414.701749 675.880596 L 377.697571 680.768429 " transform="matrix(0.560747,0,0,0.560224,0,0)"/>
<path style=" stroke:none;fill-rule:evenodd;fill:rgb(66.666667%,85.490196%,94.509804%);fill-opacity:1;" d="M 6.828125 48.667969 C 3.269531 47.164062 3.71875 38.730469 7.5 35.496094 C 11.289062 32.261719 20.792969 29.46875 24.53125 19.394531 C 25.890625 16.65625 29.945312 20.644531 31.003906 27.449219 C 31.59375 43.644531 14.640625 51.960938 6.828125 48.667969 Z M 6.828125 48.667969 "/>
<path style="fill:none;stroke-width:2;stroke-linecap:round;stroke-linejoin:round;stroke:rgb(44.705882%,64.705882%,74.117647%);stroke-opacity:1;stroke-miterlimit:4;" d="M 42.375077 52.071805 C 41.364986 58.451787 27.996948 87.207026 0.996159 94.528316 " transform="matrix(0.560747,0,0,0.560224,0,0)"/>
<path style="fill:none;stroke-width:2;stroke-linecap:round;stroke-linejoin:round;stroke:rgb(78.823529%,78.823529%,78.823529%);stroke-opacity:1;stroke-miterlimit:4;" d="M 184.999989 54.867841 C 180.896928 58.256552 177.539244 64.559835 177.866653 65.870694 C 178.549336 68.576085 184.97909 73.171066 184.97909 73.171066 C 184.97909 73.171066 186.428049 90.553901 198.981048 98.300524 C 203.390619 101.01986 209.890035 101.298766 215.825193 100.552692 " transform="matrix(0.560747,0,0,0.560224,0,0)"/>
<path style="fill:none;stroke-width:2;stroke-linecap:round;stroke-linejoin:round;stroke:rgb(44.705882%,64.705882%,74.117647%);stroke-opacity:1;stroke-miterlimit:4;" d="M 467.567845 623.223088 C 472.715828 598.749061 470.869799 519.40022 456.777282 453.564389 " transform="matrix(0.560747,0,0,0.560224,0,0)"/>
</g>
</svg>
