<?xml version="1.0" encoding="UTF-8"?>
<svg xmlns="http://www.w3.org/2000/svg" xmlns:xlink="http://www.w3.org/1999/xlink" width="300pt" height="400pt" viewBox="0 0 300 400" version="1.1">
<defs>
<filter id="alpha" filterUnits="objectBoundingBox" x="0%" y="0%" width="100%" height="100%">
  <feColorMatrix type="matrix" in="SourceGraphic" values="0 0 0 0 1 0 0 0 0 1 0 0 0 0 1 0 0 0 1 0"/>
</filter>
<mask id="mask0">
  <g filter="url(#alpha)">
<rect x="0" y="0" width="300" height="400" style="fill:rgb(0%,0%,0%);fill-opacity:0.25098;stroke:none;"/>
  </g>
</mask>
<clipPath id="clip1">
  <rect width="300" height="400"/>
</clipPath>
<g id="surface6" clip-path="url(#clip1)">
<path style=" stroke:none;fill-rule:evenodd;fill:rgb(100%,100%,100%);fill-opacity:1;" d="M 13.382812 0.636719 L 124.949219 0.636719 C 131.210938 0.636719 136.28125 7.691406 136.28125 16.394531 L 136.28125 95.421875 C 136.28125 104.125 131.210938 111.179688 124.949219 111.179688 L 13.382812 111.179688 C 7.125 111.175781 2.054688 104.121094 2.054688 95.421875 L 2.054688 16.394531 C 2.054688 7.691406 7.125 0.636719 13.382812 0.636719 Z M 13.382812 0.636719 "/>
</g>
</defs>
<g id="surface1">
<path style=" stroke:none;fill-rule:evenodd;fill:rgb(55.294118%,77.254902%,87.843137%);fill-opacity:1;" d="M 130.734375 178.464844 C 130.734375 174.132812 135.636719 170.628906 141.679688 170.628906 C 147.71875 170.628906 152.621094 174.132812 152.621094 178.464844 C 152.621094 182.796875 147.71875 186.292969 141.679688 186.292969 C 135.636719 186.292969 130.734375 182.800781 130.734375 178.464844 Z M 130.734375 178.464844 "/>
<path style=" stroke:none;fill-rule:evenodd;fill:rgb(100%,19.607843%,45.490196%);fill-opacity:1;" d="M 113.636719 360.507812 L 116.957031 375.375 L 130.734375 371 L 129.382812 352.09375 Z M 113.636719 360.507812 "/>
<path style=" stroke:none;fill-rule:evenodd;fill:rgb(66.666667%,85.490196%,94.509804%);fill-opacity:1;" d="M 77.070312 180.214844 L 286.601562 180.214844 C 287.722656 180.214844 288.628906 181.476562 288.628906 183.03125 L 288.628906 188.128906 C 288.628906 189.683594 287.722656 190.941406 286.601562 190.941406 L 77.070312 190.941406 C 75.953125 190.941406 75.046875 189.683594 75.046875 188.128906 L 75.046875 183.03125 C 75.046875 181.476562 75.953125 180.214844 77.070312 180.214844 Z M 77.070312 180.214844 "/>
<path style="fill:none;stroke-width:2;stroke-linecap:round;stroke-linejoin:round;stroke:rgb(66.666667%,85.490196%,94.509804%);stroke-opacity:1;stroke-miterlimit:4;" d="M 230.546354 300.182773 L 138.002018 583.99707 " transform="matrix(0.458015,0,0,0.636943,0,0)"/>
<path style="fill:none;stroke-width:2;stroke-linecap:round;stroke-linejoin:round;stroke:rgb(66.666667%,85.490196%,94.509804%);stroke-opacity:1;stroke-miterlimit:4;" d="M 305.658138 300.182773 L 213.147917 583.99707 " transform="matrix(0.458015,0,0,0.636943,0,0)"/>
<path style="fill:none;stroke-width:2;stroke-linecap:round;stroke-linejoin:round;stroke:rgb(66.666667%,85.490196%,94.509804%);stroke-opacity:1;stroke-miterlimit:4;" d="M 305.658138 300.182773 L 398.159831 583.99707 " transform="matrix(0.458015,0,0,0.636943,0,0)"/>
<path style="fill:none;stroke-width:2;stroke-linecap:round;stroke-linejoin:round;stroke:rgb(66.666667%,85.490196%,94.509804%);stroke-opacity:1;stroke-miterlimit:4;" d="M 230.546354 300.182773 L 323.048047 583.99707 " transform="matrix(0.458015,0,0,0.636943,0,0)"/>
<path style=" stroke:none;fill-rule:evenodd;fill:rgb(100%,19.607843%,45.490196%);fill-opacity:1;" d="M 67.683594 342.382812 L 63.222656 356.394531 L 75.574219 363.75 L 81.070312 349.585938 Z M 67.683594 342.382812 "/>
<path style=" stroke:none;fill-rule:evenodd;fill:rgb(41.568627%,20.392157%,8.627451%);fill-opacity:1;" d="M 62.941406 355.101562 L 75.992188 362.960938 C 75.992188 362.960938 92.261719 384.160156 99.769531 389.324219 C 99.746094 394.03125 99.3125 396.214844 96.710938 397.558594 C 95.546875 398.160156 74.519531 386.453125 74.519531 386.453125 L 70.992188 381.191406 L 57.390625 372.492188 Z M 62.941406 355.101562 "/>
<path style="fill:none;stroke-width:2;stroke-linecap:round;stroke-linejoin:round;stroke:rgb(100%,100%,100%);stroke-opacity:1;stroke-miterlimit:4;" d="M 154.632878 551.707813 C 154.632878 549.702383 156.25332 548.077188 158.257552 548.077188 C 160.261784 548.077188 161.890755 549.702383 161.890755 551.707813 C 161.890755 553.713242 160.261784 555.338438 158.257552 555.338438 C 157.293815 555.34457 156.372721 554.958203 155.69043 554.277461 C 155.008138 553.596719 154.624349 552.670664 154.632878 551.707813 Z M 154.632878 551.707813 " transform="matrix(0.458015,0,0,0.636943,0,0)"/>
<path style="fill:none;stroke-width:2;stroke-linecap:round;stroke-linejoin:round;stroke:rgb(100%,100%,100%);stroke-opacity:1;stroke-miterlimit:4;" d="M 140.901758 556.442344 C 140.901758 554.430781 142.530729 552.799453 144.54349 552.799453 C 146.55625 552.799453 148.185221 554.436914 148.176693 556.448477 C 148.176693 558.460039 146.539193 560.085234 144.526432 560.079102 C 142.522201 560.072969 140.901758 558.447773 140.901758 556.442344 Z M 140.901758 556.442344 " transform="matrix(0.458015,0,0,0.636943,0,0)"/>
<path style="fill:none;stroke-width:2;stroke-linecap:round;stroke-linejoin:round;stroke:rgb(100%,100%,100%);stroke-opacity:1;stroke-miterlimit:4;" d="M 159.715951 562.832734 C 159.715951 560.827305 161.344922 559.202109 163.349154 559.202109 C 165.353385 559.202109 166.982357 560.827305 166.982357 562.832734 C 166.982357 564.832031 165.353385 566.457227 163.349154 566.457227 C 161.344922 566.457227 159.715951 564.832031 159.715951 562.832734 Z M 159.715951 562.832734 " transform="matrix(0.458015,0,0,0.636943,0,0)"/>
<path style=" stroke:none;fill-rule:evenodd;fill:rgb(23.529412%,10.588235%,3.529412%);fill-opacity:1;" d="M 56.363281 369.148438 L 69.679688 377.382812 C 70.398438 377.820312 70.730469 378.984375 70.417969 379.988281 L 69.257812 383.625 C 69.097656 384.101562 68.8125 384.472656 68.457031 384.652344 C 68.101562 384.835938 67.710938 384.8125 67.371094 384.59375 L 54.046875 376.355469 C 53.699219 376.148438 53.425781 375.757812 53.285156 375.269531 C 53.148438 374.785156 53.152344 374.238281 53.304688 373.757812 L 54.460938 370.121094 C 54.621094 369.640625 54.910156 369.265625 55.265625 369.085938 C 55.625 368.902344 56.019531 368.925781 56.363281 369.148438 Z M 56.363281 369.148438 "/>
<path style=" stroke:none;fill-rule:evenodd;fill:rgb(76.862745%,76.862745%,76.862745%);fill-opacity:1;" d="M 33.84375 208.28125 C 64.167969 196.402344 107.671875 202.980469 117.054688 221.101562 C 120.40625 227.574219 119.273438 237.699219 118.429688 241.515625 C 117.585938 245.332031 82.097656 351.210938 82.097656 351.210938 L 66.1875 342.796875 L 81.824219 256.808594 C 81.824219 256.808594 30.074219 209.746094 33.84375 208.28125 Z M 33.84375 208.28125 "/>
<path style="fill:none;stroke-width:2;stroke-linecap:round;stroke-linejoin:round;stroke:rgb(55.294118%,55.294118%,55.294118%);stroke-opacity:1;stroke-miterlimit:4;" d="M 156.807682 542.858164 L 196.798503 414.001641 " transform="matrix(0.458015,0,0,0.636943,0,0)"/>
<path style="fill:none;stroke-width:2;stroke-linecap:round;stroke-linejoin:round;stroke:rgb(55.294118%,55.294118%,55.294118%);stroke-opacity:1;stroke-miterlimit:4;" d="M 147.997591 524.330938 L 185.276302 538.332148 " transform="matrix(0.458015,0,0,0.636943,0,0)"/>
<path style=" stroke:none;fill-rule:evenodd;fill:rgb(41.568627%,20.392157%,8.627451%);fill-opacity:1;" d="M 116.683594 374.007812 L 130.359375 368.578125 C 130.359375 368.578125 152.605469 370.636719 160.769531 368.011719 C 162.898438 371.675781 163.570312 373.746094 162.140625 377.082031 C 161.515625 378.566406 139.914062 388.050781 139.914062 388.050781 L 134.789062 387.089844 L 120.320312 392.355469 Z M 116.683594 374.007812 "/>
<path style=" stroke:none;fill-rule:evenodd;fill:rgb(23.529412%,10.588235%,3.529412%);fill-opacity:1;" d="M 118 390.675781 L 132.050781 385.304688 C 132.414062 385.160156 132.800781 385.21875 133.132812 385.472656 C 133.460938 385.726562 133.703125 386.152344 133.808594 386.65625 L 134.570312 390.476562 C 134.664062 390.984375 134.613281 391.523438 134.421875 391.976562 C 134.230469 392.429688 133.917969 392.761719 133.550781 392.890625 L 119.5 398.261719 C 119.140625 398.40625 118.75 398.347656 118.421875 398.09375 C 118.089844 397.839844 117.847656 397.414062 117.742188 396.910156 L 116.980469 393.089844 C 116.886719 392.582031 116.9375 392.042969 117.128906 391.589844 C 117.320312 391.136719 117.632812 390.808594 118 390.675781 Z M 118 390.675781 "/>
<path style="fill:none;stroke-width:2;stroke-linecap:round;stroke-linejoin:round;stroke:rgb(100%,100%,100%);stroke-opacity:1;stroke-miterlimit:4;" d="M 268.097982 576.741953 C 268.097982 575.263945 268.984961 573.933125 270.341016 573.368906 C 271.705599 572.804688 273.27487 573.111328 274.315365 574.153906 C 275.355859 575.196484 275.662891 576.766484 275.1 578.127969 C 274.537109 579.489453 273.206641 580.372578 271.731185 580.372578 C 269.726953 580.372578 268.097982 578.747383 268.097982 576.741953 Z M 268.097982 576.741953 " transform="matrix(0.458015,0,0,0.636943,0,0)"/>
<path style="fill:none;stroke-width:2;stroke-linecap:round;stroke-linejoin:round;stroke:rgb(100%,100%,100%);stroke-opacity:1;stroke-miterlimit:4;" d="M 274.613867 564.997617 C 274.605339 563.525742 275.492318 562.194922 276.848372 561.630703 C 278.212956 561.060352 279.782227 561.373125 280.822721 562.415703 C 281.863216 563.458281 282.178776 565.028281 281.607357 566.389766 C 281.044466 567.75125 279.713997 568.634375 278.238542 568.628242 C 276.23431 568.622109 274.613867 567.003047 274.613867 564.997617 Z M 274.613867 564.997617 " transform="matrix(0.458015,0,0,0.636943,0,0)"/>
<path style="fill:none;stroke-width:2;stroke-linecap:round;stroke-linejoin:round;stroke:rgb(100%,100%,100%);stroke-opacity:1;stroke-miterlimit:4;" d="M 254.75918 574.147773 C 254.75918 572.142344 256.388151 570.517148 258.392383 570.517148 C 260.396615 570.517148 262.017057 572.142344 262.017057 574.147773 C 262.017057 576.153203 260.396615 577.778398 258.392383 577.778398 C 256.388151 577.778398 254.75918 576.153203 254.75918 574.147773 Z M 254.75918 574.147773 " transform="matrix(0.458015,0,0,0.636943,0,0)"/>
<path style=" stroke:none;fill-rule:evenodd;fill:rgb(66.666667%,85.490196%,94.509804%);fill-opacity:1;" d="M 8.992188 260.273438 L 78.515625 260.273438 C 83.484375 260.273438 87.507812 265.871094 87.507812 272.777344 C 87.507812 279.683594 83.484375 285.28125 78.515625 285.28125 L 8.992188 285.28125 C 4.023438 285.28125 0 279.683594 0 272.777344 C 0 265.871094 4.023438 260.273438 8.992188 260.273438 Z M 8.992188 260.273438 "/>
<path style=" stroke:none;fill-rule:evenodd;fill:rgb(66.666667%,85.490196%,94.509804%);fill-opacity:1;" d="M 40.839844 276.738281 L 46.667969 276.738281 C 47.628906 276.738281 48.40625 277.824219 48.40625 279.160156 L 48.40625 368.714844 C 48.40625 370.050781 47.628906 371.132812 46.667969 371.132812 L 40.839844 371.132812 C 39.878906 371.132812 39.101562 370.050781 39.101562 368.714844 L 39.101562 279.160156 C 39.101562 277.824219 39.878906 276.738281 40.839844 276.738281 Z M 40.839844 276.738281 "/>
<path style=" stroke:none;fill-rule:evenodd;fill:rgb(66.666667%,85.490196%,94.509804%);fill-opacity:1;" d="M 38.496094 342.382812 L 49.03125 342.382812 C 50.613281 342.382812 51.898438 344.167969 51.898438 346.371094 L 51.898438 367.988281 C 51.898438 369.050781 51.59375 370.070312 51.050781 370.816406 C 50.507812 371.566406 49.773438 371.984375 49.007812 371.972656 L 38.472656 371.972656 C 36.890625 371.972656 35.605469 370.1875 35.605469 367.988281 L 35.605469 346.371094 C 35.605469 345.304688 35.910156 344.289062 36.453125 343.539062 C 36.996094 342.789062 37.730469 342.375 38.496094 342.382812 Z M 38.496094 342.382812 "/>
<path style="fill:none;stroke-width:2;stroke-linecap:round;stroke-linejoin:round;stroke:rgb(66.666667%,85.490196%,94.509804%);stroke-opacity:1;stroke-miterlimit:4;" d="M 19.317383 608.172617 L 19.317383 601.543047 C 19.317383 591.853203 27.172266 583.99707 36.860807 583.99707 L 95.529362 583.99707 " transform="matrix(0.458015,0,0,0.636943,0,0)"/>
<path style="fill:none;stroke-width:2;stroke-linecap:round;stroke-linejoin:round;stroke:rgb(66.666667%,85.490196%,94.509804%);stroke-opacity:1;stroke-miterlimit:4;" d="M 171.570768 608.172617 L 171.570768 601.543047 C 171.56224 591.840937 163.698828 583.990937 154.001758 583.99707 L 95.35026 583.99707 " transform="matrix(0.458015,0,0,0.636943,0,0)"/>
<path style="fill:none;stroke-width:2;stroke-linecap:round;stroke-linejoin:round;stroke:rgb(66.666667%,85.490196%,94.509804%);stroke-opacity:1;stroke-miterlimit:4;" d="M 66.779297 608.172617 L 66.779297 600.169297 C 66.779297 591.239922 71.427409 583.99707 77.158659 583.99707 L 113.900065 583.99707 C 119.631315 583.99707 124.279427 591.239922 124.279427 600.169297 L 124.279427 608.172617 " transform="matrix(0.458015,0,0,0.636943,0,0)"/>
<path style="fill:none;stroke-width:2;stroke-linecap:round;stroke-linejoin:round;stroke:rgb(66.666667%,85.490196%,94.509804%);stroke-opacity:1;stroke-miterlimit:4;" d="M 9.714128 617.788867 C 9.714128 612.483984 14.012565 608.17875 19.317383 608.17875 C 24.630729 608.17875 28.929167 612.483984 28.929167 617.788867 C 28.929167 623.099883 24.630729 627.398984 19.317383 627.398984 C 14.012565 627.392852 9.714128 623.09375 9.714128 617.788867 Z M 9.714128 617.788867 " transform="matrix(0.458015,0,0,0.636943,0,0)"/>
<path style="fill:none;stroke-width:2;stroke-linecap:round;stroke-linejoin:round;stroke:rgb(66.666667%,85.490196%,94.509804%);stroke-opacity:1;stroke-miterlimit:4;" d="M 57.167513 617.788867 C 57.167513 612.483984 61.474479 608.17875 66.779297 608.17875 C 72.084115 608.17875 76.391081 612.483984 76.391081 617.788867 C 76.391081 623.099883 72.084115 627.398984 66.779297 627.398984 C 61.474479 627.392852 57.176042 623.09375 57.167513 617.788867 Z M 57.167513 617.788867 " transform="matrix(0.458015,0,0,0.636943,0,0)"/>
<path style="fill:none;stroke-width:2;stroke-linecap:round;stroke-linejoin:round;stroke:rgb(66.666667%,85.490196%,94.509804%);stroke-opacity:1;stroke-miterlimit:4;" d="M 124.279427 608.172617 C 129.592773 608.166484 133.908268 612.471719 133.908268 617.782734 C 133.916797 623.099883 129.609831 627.405117 124.296484 627.41125 C 118.983138 627.41125 114.667643 623.106016 114.667643 617.788867 C 114.667643 612.483984 118.974609 608.172617 124.279427 608.172617 " transform="matrix(0.458015,0,0,0.636943,0,0)"/>
<path style="fill:none;stroke-width:2;stroke-linecap:round;stroke-linejoin:round;stroke:rgb(66.666667%,85.490196%,94.509804%);stroke-opacity:1;stroke-miterlimit:4;" d="M 162.001628 617.788867 C 162.001628 612.483984 166.300065 608.17875 171.613411 608.17875 C 176.918229 608.17875 181.216667 612.483984 181.216667 617.788867 C 181.216667 623.099883 176.918229 627.398984 171.613411 627.398984 C 166.308594 627.392852 162.001628 623.09375 162.001628 617.788867 Z M 162.001628 617.788867 " transform="matrix(0.458015,0,0,0.636943,0,0)"/>
<path style=" stroke:none;fill-rule:evenodd;fill:rgb(76.862745%,76.862745%,76.862745%);fill-opacity:1;" d="M 11.597656 183.355469 C -16.144531 263.941406 39.847656 266.113281 59.496094 265.714844 C 79.144531 265.3125 84.316406 263.253906 89.632812 261.464844 C 91.332031 268.625 111.699219 361.335938 111.699219 361.335938 L 129.585938 353.820312 C 129.585938 353.820312 115.914062 236.039062 112.828125 228.082031 C 104.351562 206.210938 54.203125 205.027344 47.859375 205.554688 C 41.515625 206.082031 15.113281 173.140625 11.597656 183.355469 Z M 11.597656 183.355469 "/>
<path style="fill:none;stroke-width:2;stroke-linecap:round;stroke-linejoin:round;stroke:rgb(55.294118%,55.294118%,55.294118%);stroke-opacity:1;stroke-miterlimit:4;" d="M 29.09974 305.162617 C -12.392122 408.709023 165.549544 402.471953 204.465755 390.611094 C 210.29082 407.26168 258.469141 562.01707 258.469141 562.01707 " transform="matrix(0.458015,0,0,0.636943,0,0)"/>
<path style="fill:none;stroke-width:2;stroke-linecap:round;stroke-linejoin:round;stroke:rgb(55.294118%,55.294118%,55.294118%);stroke-opacity:1;stroke-miterlimit:4;" d="M 254.111003 390.801211 C 228.337435 385.496328 209.6 363.154492 208.858008 336.850859 " transform="matrix(0.458015,0,0,0.636943,0,0)"/>
<path style="fill:none;stroke-width:2;stroke-linecap:round;stroke-linejoin:round;stroke:rgb(55.294118%,55.294118%,55.294118%);stroke-opacity:1;stroke-miterlimit:4;" d="M 177.071745 414.302148 C 183.348828 413.376094 189.566211 412.106602 195.698307 410.499805 C 197.241992 415.160742 205.787695 442.930117 215.263021 473.827227 " transform="matrix(0.458015,0,0,0.636943,0,0)"/>
<path style="fill:none;stroke-width:2;stroke-linecap:round;stroke-linejoin:round;stroke:rgb(55.294118%,55.294118%,55.294118%);stroke-opacity:1;stroke-miterlimit:4;" d="M 253.821029 388.777383 C 250.563086 372.507031 247.816862 360.909883 246.341406 358.088789 C 228.942969 325.830195 131.179102 322.230234 107.989714 322.610469 " transform="matrix(0.458015,0,0,0.636943,0,0)"/>
<path style="fill:none;stroke-width:2;stroke-linecap:round;stroke-linejoin:round;stroke:rgb(55.294118%,55.294118%,55.294118%);stroke-opacity:1;stroke-miterlimit:4;" d="M 281.061523 544.060195 L 240.516341 556.307422 " transform="matrix(0.458015,0,0,0.636943,0,0)"/>
<path style=" stroke:none;fill-rule:evenodd;fill:rgb(41.568627%,20.392157%,8.627451%);fill-opacity:1;" d="M 45.191406 58.394531 C 45.191406 51.105469 49.441406 45.195312 54.683594 45.199219 C 59.925781 45.199219 64.175781 51.109375 64.171875 58.398438 C 64.171875 65.6875 59.917969 71.597656 54.679688 71.59375 C 49.4375 71.59375 45.191406 65.683594 45.191406 58.394531 Z M 45.191406 58.394531 "/>
<path style=" stroke:none;fill-rule:evenodd;fill:rgb(96.862745%,49.803922%,53.72549%);fill-opacity:1;" d="M 134.875 167.039062 C 136.4375 165.253906 140.671875 160.90625 142.027344 160.929688 C 143.382812 160.957031 147.484375 166.320312 147.578125 167.726562 C 147.667969 169.132812 146.363281 171.355469 145.585938 171.515625 C 144.804688 171.675781 142.300781 168.332031 141.75 168.628906 C 141.203125 168.929688 139.992188 170.714844 139.640625 171.503906 C 139.285156 172.292969 133.320312 168.789062 134.875 167.039062 Z M 134.875 167.039062 "/>
<path style=" stroke:none;fill-rule:evenodd;fill:rgb(96.862745%,49.803922%,53.72549%);fill-opacity:1;" d="M 78.90625 132.070312 L 88.277344 145.371094 C 88.277344 145.371094 95.367188 124.203125 100.304688 113.007812 C 99.308594 111.007812 97.558594 103.039062 97.78125 101.542969 C 98.007812 100.042969 103.164062 85.917969 104.410156 86.738281 C 105.65625 87.558594 106.816406 90.320312 106.183594 93.109375 C 106.917969 89.433594 108.164062 84.351562 109.265625 83.847656 C 110.363281 83.34375 112.675781 84.007812 112.574219 86.585938 C 113.101562 84.898438 114.03125 83.714844 115.09375 83.648438 C 116.011719 83.59375 117.878906 84.679688 118.007812 86.285156 C 118.164062 88.292969 116.101562 93.082031 115.851562 93.765625 C 116.8125 91.941406 116.804688 91.851562 117.378906 91.851562 C 118.539062 91.910156 120.5 94.304688 119.542969 97.765625 C 118.585938 101.222656 113.851562 117.363281 110.1875 118.050781 C 110.359375 121.183594 99.441406 164.910156 99.441406 164.910156 L 82.894531 163.992188 L 70.847656 141.828125 Z M 78.90625 132.070312 "/>
<path style=" stroke:none;fill-rule:evenodd;fill:rgb(23.137255%,25.490196%,38.039216%);fill-opacity:1;" d="M 46.316406 84.027344 C 15.886719 84.078125 5.71875 183.386719 8.898438 190.199219 C 11.230469 195.191406 38.832031 209.871094 48.289062 205.363281 C 51.628906 203.769531 60.316406 178.960938 65.234375 153.929688 C 70.480469 147.941406 80.40625 136.605469 82.019531 134.421875 C 81.5625 129.625 73.589844 110.300781 65.332031 101.738281 C 62.476562 92.675781 57.183594 84.027344 46.316406 84.027344 Z M 46.316406 84.027344 "/>
<path style=" stroke:none;fill-rule:evenodd;fill:rgb(96.862745%,49.803922%,53.72549%);fill-opacity:1;" d="M 54.183594 151.503906 C 54.183594 151.503906 68.707031 176.980469 72.527344 179.050781 C 76.347656 181.121094 117.605469 180.457031 120.617188 179.96875 C 123.632812 179.476562 123.082031 182.675781 125.808594 182.878906 C 128.628906 183.09375 130.253906 179.625 130.640625 177.871094 C 132.363281 180.535156 135.398438 184.628906 137.390625 183.203125 C 138.800781 182.183594 138.820312 181.292969 137.847656 179.886719 C 139.222656 180.988281 141.707031 182.605469 142.707031 181.515625 C 144.320312 179.769531 144.472656 178.140625 143.925781 176.785156 C 142.246094 172.585938 136.832031 166.644531 135.546875 165.957031 C 134.0625 165.140625 129.539062 167.382812 127.363281 167.566406 C 117.503906 168.414062 92.636719 159.886719 84.480469 159.371094 C 83.28125 156.183594 70.847656 135.273438 69.882812 133.183594 C 66.472656 137.242188 54.183594 151.503906 54.183594 151.503906 Z M 54.183594 151.503906 "/>
<path style=" stroke:none;fill-rule:evenodd;fill:rgb(96.862745%,49.803922%,53.72549%);fill-opacity:1;" d="M 50.128906 63.597656 C 50.128906 52.53125 56.578125 43.554688 64.539062 43.554688 C 72.496094 43.554688 78.949219 52.527344 78.949219 63.59375 C 78.945312 74.664062 72.492188 83.632812 64.535156 83.628906 C 56.578125 83.628906 50.132812 74.660156 50.128906 63.597656 Z M 50.128906 63.597656 "/>
<path style=" stroke:none;fill-rule:evenodd;fill:rgb(96.862745%,49.803922%,53.72549%);fill-opacity:1;" d="M 52.0625 59.234375 C 52.121094 62.351562 47.433594 82.042969 45.582031 85.816406 C 46.496094 88.828125 55.460938 96.382812 59.578125 94.769531 C 60.035156 90.949219 61.570312 83.265625 62.519531 81.558594 C 63.46875 79.851562 52.003906 56.09375 52.0625 59.234375 Z M 52.0625 59.234375 "/>
<path style=" stroke:none;fill-rule:evenodd;fill:rgb(41.568627%,20.392157%,8.627451%);fill-opacity:1;" d="M 68.527344 21.363281 C 65.757812 21.375 63.128906 23.078125 61.34375 26.027344 C 60.15625 25.402344 58.902344 25.082031 57.636719 25.070312 C 54.195312 25 50.9375 27.234375 48.878906 31.070312 C 46.816406 34.90625 46.207031 39.882812 47.230469 44.453125 C 45.9375 46.109375 45.199219 48.441406 45.195312 50.886719 C 45.21875 55.179688 47.429688 58.84375 50.464844 59.625 C 50.539062 59.132812 50.539062 58.789062 50.652344 58.230469 C 50.964844 56.738281 55.625 54.011719 56.148438 54.503906 C 56.558594 54.914062 57.027344 55.199219 57.523438 55.34375 C 57.566406 55.347656 57.609375 55.347656 57.648438 55.34375 C 61.59375 55.328125 65.222656 52.34375 67.125 47.542969 C 67.59375 47.65625 68.066406 47.722656 68.542969 47.738281 C 68.542969 55.027344 72.789062 60.9375 78.03125 60.9375 C 83.273438 60.9375 87.523438 55.027344 87.523438 47.738281 C 87.523438 40.449219 83.273438 34.542969 78.03125 34.542969 C 78.023438 27.253906 73.769531 21.351562 68.527344 21.363281 Z M 68.527344 21.363281 "/>
<path style=" stroke:none;fill-rule:evenodd;fill:rgb(96.862745%,49.803922%,53.72549%);fill-opacity:1;" d="M 46.308594 51.457031 C 46.316406 47.175781 48.820312 43.710938 51.898438 43.71875 C 54.976562 43.726562 57.46875 47.203125 57.46875 51.484375 C 57.464844 55.765625 54.96875 59.234375 51.886719 59.234375 C 50.40625 59.234375 48.984375 58.414062 47.9375 56.957031 C 46.890625 55.496094 46.304688 53.519531 46.308594 51.457031 Z M 46.308594 51.457031 "/>
<path style="fill:none;stroke-width:2;stroke-linecap:round;stroke-linejoin:round;stroke:rgb(45.098039%,47.45098%,60%);stroke-opacity:1;stroke-miterlimit:4;" d="M 38.583594 292.479961 C 37.270182 273.13707 55.751758 201.291172 69.576693 179.912188 " transform="matrix(0.458015,0,0,0.636943,0,0)"/>
<path style="fill:none;stroke-width:2;stroke-linecap:round;stroke-linejoin:round;stroke:rgb(45.098039%,47.45098%,60%);stroke-opacity:1;stroke-miterlimit:4;" d="M 79.529622 196.918477 C 82.753451 203.572578 98.676432 233.022344 112.177279 243.411328 C 117.328581 238.529609 154.453776 206.902695 154.453776 206.902695 C 149.711849 198.089844 126.923307 170.467656 119.528971 163.697031 " transform="matrix(0.458015,0,0,0.636943,0,0)"/>
<path style="fill:none;stroke-width:2;stroke-linecap:round;stroke-linejoin:round;stroke:rgb(45.098039%,47.45098%,60%);stroke-opacity:1;stroke-miterlimit:4;" d="M 105.192318 236.689766 L 149.814193 199.819297 " transform="matrix(0.458015,0,0,0.636943,0,0)"/>
<path style="fill:none;stroke-width:2;stroke-linecap:round;stroke-linejoin:round;stroke:rgb(45.098039%,47.45098%,60%);stroke-opacity:1;stroke-miterlimit:4;" d="M 137.55 150.572812 C 137.242969 151.560195 136.773893 152.492383 136.168359 153.332578 C 130.87207 160.72875 115.929883 159.919219 102.795768 151.529531 " transform="matrix(0.458015,0,0,0.636943,0,0)"/>
<path style="fill:none;stroke-width:2;stroke-linecap:round;stroke-linejoin:round;stroke:rgb(45.098039%,47.45098%,60%);stroke-opacity:1;stroke-miterlimit:4;" d="M 142.769531 159.802695 C 145.302539 166.37707 148.773698 181.7275 147.298242 196.421719 " transform="matrix(0.458015,0,0,0.636943,0,0)"/>
<path style="fill:none;stroke-width:2;stroke-linecap:round;stroke-linejoin:round;stroke:rgb(45.098039%,47.45098%,60%);stroke-opacity:1;stroke-miterlimit:4;" d="M 159.204232 217.628984 L 175.997135 202.720117 " transform="matrix(0.458015,0,0,0.636943,0,0)"/>
<path style="fill:none;stroke-width:2;stroke-linecap:round;stroke-linejoin:round;stroke:rgb(45.098039%,47.45098%,60%);stroke-opacity:1;stroke-miterlimit:4;" d="M 86.002865 279.000039 C 91.546484 278.12918 121.848763 278.748594 116.253971 280.649766 C 110.650651 282.550938 100.168945 283.900156 104.842643 284.99793 C 109.328711 286.052773 113.874479 286.831641 118.445833 287.340664 " transform="matrix(0.458015,0,0,0.636943,0,0)"/>
<path style="fill:none;stroke-width:2;stroke-linecap:round;stroke-linejoin:round;stroke:rgb(70.980392%,32.941176%,36.078431%);stroke-opacity:1;stroke-miterlimit:4;" d="M 157.583789 100.682383 C 157.268229 103.448281 157.882292 109.679219 159.97181 112.402188 " transform="matrix(0.458015,0,0,0.636943,0,0)"/>
<path style=" stroke:none;fill-rule:evenodd;fill:rgb(70.980392%,32.941176%,36.078431%);fill-opacity:1;" d="M 64.453125 61.785156 C 64.910156 60.273438 65.824219 59.363281 66.460938 59.75 C 67.097656 60.140625 67.226562 61.664062 66.753906 63.183594 C 66.285156 64.707031 65.382812 65.605469 64.746094 65.214844 C 64.109375 64.828125 63.976562 63.300781 64.453125 61.785156 Z M 64.453125 61.785156 "/>
<path style=" stroke:none;fill-rule:evenodd;fill:rgb(70.980392%,32.941176%,36.078431%);fill-opacity:1;" d="M 75.328125 65.230469 C 75.789062 63.71875 76.703125 62.808594 77.339844 63.191406 C 77.976562 63.574219 78.105469 65.101562 77.632812 66.625 C 77.160156 68.148438 76.257812 69.042969 75.621094 68.65625 C 74.984375 68.265625 74.851562 66.734375 75.328125 65.230469 Z M 75.328125 65.230469 "/>
<path style="fill:none;stroke-width:2;stroke-linecap:round;stroke-linejoin:round;stroke:rgb(70.980392%,32.941176%,36.078431%);stroke-opacity:1;stroke-miterlimit:4;" d="M 140.603255 119.810625 C 136.671549 118.565664 133.874154 115.088359 133.498893 110.991641 " transform="matrix(0.458015,0,0,0.636943,0,0)"/>
<path style="fill:none;stroke-width:2;stroke-linecap:round;stroke-linejoin:round;stroke:rgb(70.980392%,32.941176%,36.078431%);stroke-opacity:1;stroke-miterlimit:4;" d="M 135.110807 130.769961 C 126.675977 129.187695 119.256055 124.232383 114.556771 117.050859 " transform="matrix(0.458015,0,0,0.636943,0,0)"/>
<path style="fill:none;stroke-width:2;stroke-linecap:round;stroke-linejoin:round;stroke:rgb(70.980392%,32.941176%,36.078431%);stroke-opacity:1;stroke-miterlimit:4;" d="M 117.541797 92.200703 C 116.185742 92.709727 114.744401 92.973438 113.286003 92.967305 C 112.177279 92.967305 111.077083 92.820117 110.011003 92.519609 " transform="matrix(0.458015,0,0,0.636943,0,0)"/>
<path style="fill:none;stroke-width:2;stroke-linecap:round;stroke-linejoin:round;stroke:rgb(70.980392%,32.941176%,36.078431%);stroke-opacity:1;stroke-miterlimit:4;" d="M 110.940625 88.128516 C 107.375651 87.159531 105.141146 83.633164 105.789323 79.996406 C 106.4375 76.359648 109.763672 73.820664 113.439518 74.145703 C 117.115365 74.476875 119.938346 77.555547 119.938346 81.2475 " transform="matrix(0.458015,0,0,0.636943,0,0)"/>
<path style="fill:none;stroke-width:2;stroke-linecap:round;stroke-linejoin:round;stroke:rgb(70.980392%,32.941176%,36.078431%);stroke-opacity:1;stroke-miterlimit:4;" d="M 218.000716 255.290586 L 184.730469 250.212617 L 164.082617 223.688203 " transform="matrix(0.458015,0,0,0.636943,0,0)"/>
<path style="fill:none;stroke-width:2;stroke-linecap:round;stroke-linejoin:round;stroke:rgb(70.980392%,32.941176%,36.078431%);stroke-opacity:1;stroke-miterlimit:4;" d="M 231.26276 174.552109 C 232.499414 171.847539 235.936458 165.929375 234.750977 163.347461 C 233.556966 160.77168 225.318294 157.282109 226.333203 154.810586 C 227.339583 152.339063 231.919466 145.66043 231.919466 145.66043 " transform="matrix(0.458015,0,0,0.636943,0,0)"/>
<path style="fill:none;stroke-width:2;stroke-linecap:round;stroke-linejoin:round;stroke:rgb(70.980392%,32.941176%,36.078431%);stroke-opacity:1;stroke-miterlimit:4;" d="M 245.735872 135.921523 L 239.433203 148.818828 " transform="matrix(0.458015,0,0,0.636943,0,0)"/>
<path style="fill:none;stroke-width:2;stroke-linecap:round;stroke-linejoin:round;stroke:rgb(70.980392%,32.941176%,36.078431%);stroke-opacity:1;stroke-miterlimit:4;" d="M 253.241081 147.199766 L 248.106836 154.479414 " transform="matrix(0.458015,0,0,0.636943,0,0)"/>
<path style="fill:none;stroke-width:2;stroke-linecap:round;stroke-linejoin:round;stroke:rgb(70.980392%,32.941176%,36.078431%);stroke-opacity:1;stroke-miterlimit:4;" d="M 296.592188 260.85918 L 305.751953 267.862852 " transform="matrix(0.458015,0,0,0.636943,0,0)"/>
<path style="fill:none;stroke-width:2;stroke-linecap:round;stroke-linejoin:round;stroke:rgb(70.980392%,32.941176%,36.078431%);stroke-opacity:1;stroke-miterlimit:4;" d="M 300.839453 281.998984 L 293.999479 275.682187 " transform="matrix(0.458015,0,0,0.636943,0,0)"/>
<path style=" stroke:none;fill-rule:evenodd;fill:rgb(100%,19.607843%,45.490196%);fill-opacity:1;" d="M 118.96875 23.675781 L 124.25 23.675781 C 124.496094 23.675781 124.707031 24.082031 124.707031 24.585938 L 124.707031 29.164062 C 124.707031 29.667969 124.503906 30.070312 124.25 30.070312 L 118.96875 30.070312 C 118.71875 30.070312 118.511719 29.667969 118.511719 29.164062 L 118.511719 24.585938 C 118.515625 24.082031 118.71875 23.675781 118.96875 23.675781 Z M 118.96875 23.675781 "/>
<path style=" stroke:none;fill-rule:evenodd;fill:rgb(100%,19.607843%,45.490196%);fill-opacity:1;" d="M 126.988281 27.164062 L 126.988281 29.980469 C 126.988281 30.0625 126.949219 30.09375 126.902344 30.058594 L 125.144531 28.664062 L 123.390625 27.253906 C 123.339844 27.214844 123.339844 27.152344 123.390625 27.113281 L 125.144531 25.699219 L 126.902344 24.292969 C 126.917969 24.273438 126.945312 24.273438 126.960938 24.289062 C 126.980469 24.304688 126.992188 24.332031 126.988281 24.363281 Z M 126.988281 27.164062 "/>
<path style="fill:none;stroke-width:2;stroke-linecap:round;stroke-linejoin:round;stroke:rgb(100%,19.607843%,45.490196%);stroke-opacity:1;stroke-miterlimit:4;" d="M 250.998047 42.187617 C 250.998047 32.798281 258.614128 25.187461 268.004167 25.187461 C 277.385677 25.187461 285.001758 32.798281 285.001758 42.187617 C 285.001758 51.576953 277.385677 59.187773 268.004167 59.187773 C 258.614128 59.187773 250.998047 51.576953 250.998047 42.187617 Z M 250.998047 42.187617 " transform="matrix(0.458015,0,0,0.636943,0,0)"/>
<path style="fill:none;stroke-width:2;stroke-linecap:round;stroke-linejoin:round;stroke:rgb(60.784314%,60.784314%,60.784314%);stroke-opacity:1;stroke-miterlimit:4;" d="M 29.091211 0.999648 L 272.677865 0.999648 C 286.349284 0.993516 297.427995 12.075508 297.419466 25.739414 L 297.419466 149.812344 C 297.419466 163.47625 286.340755 174.552109 272.677865 174.552109 L 29.091211 174.552109 C 15.42832 174.545977 4.358138 163.470117 4.358138 149.812344 L 4.358138 25.739414 C 4.358138 12.075508 15.42832 0.999648 29.091211 0.999648 Z M 29.091211 0.999648 " transform="matrix(0.458015,0,0,0.636943,0,0)"/>
<path style="fill:none;stroke-width:2;stroke-linecap:round;stroke-linejoin:round;stroke:rgb(60.784314%,60.784314%,60.784314%);stroke-opacity:1;stroke-miterlimit:4;" d="M 295.833138 16.871367 L 6.200326 16.871367 " transform="matrix(0.458015,0,0,0.636943,0,0)"/>
<path style="fill:none;stroke-width:2;stroke-linecap:round;stroke-linejoin:round;stroke:rgb(100%,19.607843%,45.490196%);stroke-opacity:1;stroke-miterlimit:4;" d="M 22.140365 9.229883 C 22.131836 7.285781 23.709635 5.703516 25.654167 5.697383 C 27.598698 5.697383 29.176497 7.273516 29.176497 9.217617 C 29.185026 11.161719 27.607227 12.737852 25.662695 12.737852 C 23.718164 12.737852 22.148893 11.167852 22.140365 9.229883 Z M 22.140365 9.229883 " transform="matrix(0.458015,0,0,0.636943,0,0)"/>
<path style="fill:none;stroke-width:2;stroke-linecap:round;stroke-linejoin:round;stroke:rgb(100%,19.607843%,45.490196%);stroke-opacity:1;stroke-miterlimit:4;" d="M 35.999414 9.229883 C 35.990885 7.285781 37.568685 5.703516 39.513216 5.697383 C 41.457747 5.697383 43.035547 7.273516 43.044076 9.217617 C 43.044076 11.161719 41.466276 12.737852 39.521745 12.737852 C 38.583594 12.743984 37.688086 12.376016 37.03138 11.713672 C 36.374674 11.057461 35.999414 10.16207 35.999414 9.229883 Z M 35.999414 9.229883 " transform="matrix(0.458015,0,0,0.636943,0,0)"/>
<path style="fill:none;stroke-width:2;stroke-linecap:round;stroke-linejoin:round;stroke:rgb(100%,19.607843%,45.490196%);stroke-opacity:1;stroke-miterlimit:4;" d="M 49.892578 9.229883 C 49.884049 7.285781 51.461849 5.703516 53.40638 5.697383 C 55.350911 5.697383 56.928711 7.273516 56.928711 9.217617 C 56.928711 11.161719 55.35944 12.737852 53.40638 12.737852 C 51.470378 12.737852 49.892578 11.167852 49.892578 9.229883 Z M 49.892578 9.229883 " transform="matrix(0.458015,0,0,0.636943,0,0)"/>
<path style="fill:none;stroke-width:2;stroke-linecap:round;stroke-linejoin:round;stroke:rgb(66.666667%,85.490196%,94.509804%);stroke-opacity:1;stroke-miterlimit:4;" d="M 486.201042 300.182773 L 393.69082 583.99707 " transform="matrix(0.458015,0,0,0.636943,0,0)"/>
<path style="fill:none;stroke-width:2;stroke-linecap:round;stroke-linejoin:round;stroke:rgb(66.666667%,85.490196%,94.509804%);stroke-opacity:1;stroke-miterlimit:4;" d="M 561.312826 300.182773 L 468.802604 583.99707 " transform="matrix(0.458015,0,0,0.636943,0,0)"/>
<path style="fill:none;stroke-width:2;stroke-linecap:round;stroke-linejoin:round;stroke:rgb(66.666667%,85.490196%,94.509804%);stroke-opacity:1;stroke-miterlimit:4;" d="M 561.312826 300.182773 L 653.80599 583.99707 " transform="matrix(0.458015,0,0,0.636943,0,0)"/>
<path style="fill:none;stroke-width:2;stroke-linecap:round;stroke-linejoin:round;stroke:rgb(66.666667%,85.490196%,94.509804%);stroke-opacity:1;stroke-miterlimit:4;" d="M 486.201042 300.182773 L 578.702734 583.99707 " transform="matrix(0.458015,0,0,0.636943,0,0)"/>
<path style=" stroke:none;fill-rule:evenodd;fill:rgb(66.666667%,85.490196%,94.509804%);fill-opacity:1;" d="M 149.3125 73.503906 L 214.988281 73.503906 C 217.816406 73.503906 220.113281 76.695312 220.113281 80.628906 L 220.113281 156.050781 C 220.113281 159.988281 217.816406 163.179688 214.988281 163.179688 L 149.3125 163.179688 C 146.484375 163.171875 144.195312 159.980469 144.195312 156.050781 L 144.195312 80.628906 C 144.195312 76.699219 146.484375 73.511719 149.3125 73.503906 Z M 149.3125 73.503906 "/>
<path style=" stroke:none;fill-rule:evenodd;fill:rgb(55.294118%,77.254902%,87.843137%);fill-opacity:1;" d="M 149.3125 73.496094 C 146.484375 73.492188 144.1875 76.683594 144.1875 80.617188 L 144.1875 156.050781 C 144.199219 159.976562 146.492188 163.148438 149.3125 163.148438 L 152.605469 163.148438 C 152.578125 162.714844 152.503906 162.292969 152.503906 161.871094 L 152.503906 73.496094 Z M 149.3125 73.496094 "/>
<path style=" stroke:none;fill-rule:evenodd;fill:rgb(55.294118%,77.254902%,87.843137%);fill-opacity:1;" d="M 173.046875 140.941406 L 195.21875 140.941406 L 207.636719 180.214844 L 184.679688 180.214844 Z M 173.046875 140.941406 "/>
<path style=" stroke:none;fill-rule:evenodd;fill:rgb(55.294118%,77.254902%,87.843137%);fill-opacity:1;" d="M 247.117188 152.542969 L 265.382812 152.542969 L 265.382812 180.214844 L 247.117188 180.214844 Z M 247.117188 152.542969 "/>
<path style="fill:none;stroke-width:2;stroke-linecap:round;stroke-linejoin:round;stroke:rgb(55.294118%,77.254902%,87.843137%);stroke-opacity:1;stroke-miterlimit:4;" d="M 568.792448 261.20875 C 568.792448 255.529766 573.397917 250.917891 579.077995 250.917891 C 584.766602 250.917891 589.37207 255.529766 589.37207 261.20875 C 589.37207 266.893867 584.766602 271.499609 579.077995 271.499609 C 573.397917 271.499609 568.792448 266.893867 568.792448 261.20875 Z M 568.792448 261.20875 " transform="matrix(0.458015,0,0,0.636943,0,0)"/>
<path style="fill:none;stroke-width:2;stroke-linecap:round;stroke-linejoin:round;stroke:rgb(66.666667%,85.490196%,94.509804%);stroke-opacity:1;stroke-miterlimit:4;" d="M 539.539193 246.888633 L 579.077995 246.888633 " transform="matrix(0.458015,0,0,0.636943,0,0)"/>
<use xlink:href="#surface6" mask="url(#mask0)"/>
</g>
</svg>
