<?xml version="1.0" encoding="UTF-8"?>
<svg xmlns="http://www.w3.org/2000/svg" xmlns:xlink="http://www.w3.org/1999/xlink" width="300pt" height="400pt" viewBox="0 0 300 400" version="1.1">
<defs>
<filter id="alpha" filterUnits="objectBoundingBox" x="0%" y="0%" width="100%" height="100%">
  <feColorMatrix type="matrix" in="SourceGraphic" values="0 0 0 0 1 0 0 0 0 1 0 0 0 0 1 0 0 0 1 0"/>
</filter>
<mask id="mask0">
  <g filter="url(#alpha)">
<rect x="0" y="0" width="300" height="400" style="fill:rgb(0%,0%,0%);fill-opacity:0.180392;stroke:none;"/>
  </g>
</mask>
<clipPath id="clip1">
  <rect width="300" height="400"/>
</clipPath>
<g id="surface6" clip-path="url(#clip1)">
<path style=" stroke:none;fill-rule:nonzero;fill:rgb(12.156863%,85.882353%,68.235294%);fill-opacity:1;" d="M 5.429688 378.148438 C 14.238281 394.128906 29.039062 399.605469 42.847656 399.988281 C 58.050781 400.386719 73.132812 395.808594 87.042969 386.566406 C 100.074219 377.890625 111.925781 365.214844 125.449219 358.453125 C 153.617188 344.382812 184.21875 357.800781 213.90625 357.894531 C 234.738281 357.964844 256.140625 350.933594 273.023438 332.527344 C 289.902344 314.121094 301.53125 283.335938 299.703125 252.132812 C 298.605469 233.574219 292.988281 216.175781 285.589844 201.234375 C 266.09375 161.925781 235.132812 139.203125 212.894531 103.417969 C 198.414062 80.140625 186.664062 50.316406 166.84375 39.042969 C 157.429688 33.683594 147.136719 33.242188 137.085938 33.394531 C 127.441406 33.589844 117.578125 34.414062 108.691406 40.015625 C 98.917969 46.164062 91 57.730469 84.859375 70.710938 C 67.515625 107.363281 63.425781 154.28125 50.910156 195.15625 C 42.363281 223.15625 29.910156 248.152344 21.335938 276.144531 C 13.035156 303.355469 -10.28125 349.625 5.429688 378.148438 Z M 5.429688 378.148438 "/>
</g>
<mask id="mask1">
  <g filter="url(#alpha)">
<rect x="0" y="0" width="300" height="400" style="fill:rgb(0%,0%,0%);fill-opacity:0.180392;stroke:none;"/>
  </g>
</mask>
<clipPath id="clip2">
  <rect width="300" height="400"/>
</clipPath>
<g id="surface9" clip-path="url(#clip2)">
<path style=" stroke:none;fill-rule:nonzero;fill:rgb(12.156863%,85.882353%,68.235294%);fill-opacity:1;" d="M 175.035156 194.613281 L 165.390625 201.386719 L 233.542969 251.644531 L 243.195312 244.882812 Z M 175.035156 194.613281 "/>
</g>
<linearGradient id="linear0" gradientUnits="userSpaceOnUse" x1="343.65" y1="122.9" x2="356.43" y2="122.9" gradientTransform="matrix(0.771544,0,0,1.159925,-43.395139,-8.107873)">
<stop offset="0" style="stop-color:rgb(89.803922%,77.254902%,83.529412%);stop-opacity:1;"/>
<stop offset="0.42" style="stop-color:rgb(91.764706%,83.137255%,81.960784%);stop-opacity:1;"/>
<stop offset="1" style="stop-color:rgb(94.117647%,91.372549%,79.607843%);stop-opacity:1;"/>
</linearGradient>
<linearGradient id="linear1" gradientUnits="userSpaceOnUse" x1="352.44" y1="137.42" x2="393.53" y2="137.42" gradientTransform="matrix(0.771544,0,0,1.159925,-43.395139,-8.107873)">
<stop offset="0" style="stop-color:rgb(0%,0%,0%);stop-opacity:0;"/>
<stop offset="0.99" style="stop-color:rgb(0%,0%,0%);stop-opacity:1;"/>
</linearGradient>
<linearGradient id="linear2" gradientUnits="userSpaceOnUse" x1="111.2" y1="132.73" x2="117.21" y2="147.6" gradientTransform="matrix(0.771544,0,0,1.159925,-43.395139,-8.107873)">
<stop offset="0" style="stop-color:rgb(0%,0%,0%);stop-opacity:0;"/>
<stop offset="0.99" style="stop-color:rgb(0%,0%,0%);stop-opacity:1;"/>
</linearGradient>
<linearGradient id="linear3" gradientUnits="userSpaceOnUse" x1="382.84" y1="119.56" x2="401.52" y2="119.56" gradientTransform="matrix(0.771544,0,0,1.159925,-43.395139,-8.107873)">
<stop offset="0" style="stop-color:rgb(89.803922%,77.254902%,83.529412%);stop-opacity:1;"/>
<stop offset="0.42" style="stop-color:rgb(91.764706%,83.137255%,81.960784%);stop-opacity:1;"/>
<stop offset="1" style="stop-color:rgb(94.117647%,91.372549%,79.607843%);stop-opacity:1;"/>
</linearGradient>
<linearGradient id="linear4" gradientUnits="userSpaceOnUse" x1="215.14" y1="80.5" x2="264.5" y2="80.5" gradientTransform="matrix(0.771544,0,0,1.159925,-43.395139,-8.107873)">
<stop offset="0" style="stop-color:rgb(0%,0%,0%);stop-opacity:0;"/>
<stop offset="0.99" style="stop-color:rgb(0%,0%,0%);stop-opacity:1;"/>
</linearGradient>
<linearGradient id="linear5" gradientUnits="userSpaceOnUse" x1="301.64" y1="47.22" x2="318.54" y2="47.22" gradientTransform="matrix(0.771544,0,0,1.159925,-43.395139,-8.107873)">
<stop offset="0" style="stop-color:rgb(89.803922%,77.254902%,83.529412%);stop-opacity:1;"/>
<stop offset="0.42" style="stop-color:rgb(91.764706%,83.137255%,81.960784%);stop-opacity:1;"/>
<stop offset="1" style="stop-color:rgb(94.117647%,91.372549%,79.607843%);stop-opacity:1;"/>
</linearGradient>
<mask id="mask2">
  <g filter="url(#alpha)">
<rect x="0" y="0" width="300" height="400" style="fill:rgb(0%,0%,0%);fill-opacity:0.180392;stroke:none;"/>
  </g>
</mask>
<clipPath id="clip3">
  <rect width="300" height="400"/>
</clipPath>
<g id="surface12" clip-path="url(#clip3)">
<path style=" stroke:none;fill-rule:nonzero;fill:rgb(12.156863%,85.882353%,68.235294%);fill-opacity:1;" d="M 243.195312 244.882812 L 175.035156 194.613281 L 175.035156 0 L 243.195312 58.644531 Z M 243.195312 244.882812 "/>
</g>
<mask id="mask3">
  <g filter="url(#alpha)">
<rect x="0" y="0" width="300" height="400" style="fill:rgb(0%,0%,0%);fill-opacity:0.180392;stroke:none;"/>
  </g>
</mask>
<clipPath id="clip4">
  <rect width="300" height="400"/>
</clipPath>
<g id="surface15" clip-path="url(#clip4)">
<path style=" stroke:none;fill-rule:nonzero;fill:rgb(12.156863%,85.882353%,68.235294%);fill-opacity:1;" d="M 233.542969 251.644531 L 165.390625 201.386719 L 165.390625 6.761719 L 233.542969 65.40625 Z M 233.542969 251.644531 "/>
</g>
<linearGradient id="linear6" gradientUnits="userSpaceOnUse" x1="89.59" y1="142.49" x2="113.2" y2="142.49" gradientTransform="matrix(0.771544,0,0,1.159925,-43.395139,-8.107873)">
<stop offset="0" style="stop-color:rgb(52.54902%,45.882353%,50.196078%);stop-opacity:1;"/>
<stop offset="0.57" style="stop-color:rgb(60.784314%,56.078431%,55.686275%);stop-opacity:1;"/>
</linearGradient>
<linearGradient id="linear7" gradientUnits="userSpaceOnUse" x1="130.33" y1="241.24" x2="54.82" y2="120.96" gradientTransform="matrix(0.771544,0,0,1.159925,-43.395139,-8.107873)">
<stop offset="0" style="stop-color:rgb(0%,0%,0%);stop-opacity:0;"/>
<stop offset="0.99" style="stop-color:rgb(0%,0%,0%);stop-opacity:1;"/>
</linearGradient>
<linearGradient id="linear8" gradientUnits="userSpaceOnUse" x1="134.99" y1="149.83" x2="147.46" y2="149.83" gradientTransform="matrix(0.771544,0,0,1.159925,-43.395139,-8.107873)">
<stop offset="0" style="stop-color:rgb(52.54902%,45.882353%,50.196078%);stop-opacity:1;"/>
<stop offset="0.57" style="stop-color:rgb(60.784314%,56.078431%,55.686275%);stop-opacity:1;"/>
</linearGradient>
<linearGradient id="linear9" gradientUnits="userSpaceOnUse" x1="119.17" y1="133.84" x2="137.04" y2="133.84" gradientTransform="matrix(0.771544,0,0,1.159925,-43.395139,-8.107873)">
<stop offset="0" style="stop-color:rgb(52.54902%,45.882353%,50.196078%);stop-opacity:1;"/>
<stop offset="0.57" style="stop-color:rgb(60.784314%,56.078431%,55.686275%);stop-opacity:1;"/>
</linearGradient>
<linearGradient id="linear10" gradientUnits="userSpaceOnUse" x1="272.7" y1="85.34" x2="294.71" y2="85.34" gradientTransform="matrix(0.771544,0,0,1.159925,-43.395139,-8.107873)">
<stop offset="0" style="stop-color:rgb(89.803922%,77.254902%,83.529412%);stop-opacity:1;"/>
<stop offset="0.42" style="stop-color:rgb(91.764706%,83.137255%,81.960784%);stop-opacity:1;"/>
<stop offset="1" style="stop-color:rgb(94.117647%,91.372549%,79.607843%);stop-opacity:1;"/>
</linearGradient>
<linearGradient id="linear11" gradientUnits="userSpaceOnUse" x1="231.36" y1="31.82" x2="251.91" y2="31.82" gradientTransform="matrix(0.771544,0,0,1.159925,-43.395139,-8.107873)">
<stop offset="0" style="stop-color:rgb(89.803922%,77.254902%,83.529412%);stop-opacity:1;"/>
<stop offset="0.42" style="stop-color:rgb(91.764706%,83.137255%,81.960784%);stop-opacity:1;"/>
<stop offset="1" style="stop-color:rgb(94.117647%,91.372549%,79.607843%);stop-opacity:1;"/>
</linearGradient>
<linearGradient id="linear12" gradientUnits="userSpaceOnUse" x1="320.64" y1="179.81" x2="344.81" y2="179.81" gradientTransform="matrix(0.771544,0,0,1.159925,-43.395139,-8.107873)">
<stop offset="0" style="stop-color:rgb(89.803922%,77.254902%,83.529412%);stop-opacity:1;"/>
<stop offset="0.42" style="stop-color:rgb(91.764706%,83.137255%,81.960784%);stop-opacity:1;"/>
<stop offset="1" style="stop-color:rgb(94.117647%,91.372549%,79.607843%);stop-opacity:1;"/>
</linearGradient>
<mask id="mask4">
  <g filter="url(#alpha)">
<rect x="0" y="0" width="300" height="400" style="fill:rgb(0%,0%,0%);fill-opacity:0.180392;stroke:none;"/>
  </g>
</mask>
<clipPath id="clip5">
  <rect width="300" height="400"/>
</clipPath>
<g id="surface18" clip-path="url(#clip5)">
<path style=" stroke:none;fill-rule:nonzero;fill:rgb(12.156863%,85.882353%,68.235294%);fill-opacity:1;" d="M 165.390625 6.761719 L 175.035156 0 L 243.195312 58.644531 L 233.542969 65.40625 Z M 165.390625 6.761719 "/>
</g>
<mask id="mask5">
  <g filter="url(#alpha)">
<rect x="0" y="0" width="300" height="400" style="fill:rgb(0%,0%,0%);fill-opacity:0.568627;stroke:none;"/>
  </g>
</mask>
<clipPath id="clip6">
  <rect width="300" height="400"/>
</clipPath>
<g id="surface21" clip-path="url(#clip6)">
<path style=" stroke:none;fill-rule:nonzero;fill:rgb(12.156863%,85.882353%,68.235294%);fill-opacity:1;" d="M 198.476562 81.460938 L 179.914062 108.023438 L 199.472656 129.203125 C 199.472656 129.203125 219.578125 101.597656 218.683594 101.15625 C 217.789062 100.714844 198.476562 81.460938 198.476562 81.460938 Z M 198.476562 81.460938 "/>
</g>
<mask id="mask6">
  <g filter="url(#alpha)">
<rect x="0" y="0" width="300" height="400" style="fill:rgb(0%,0%,0%);fill-opacity:0.819608;stroke:none;"/>
  </g>
</mask>
<clipPath id="clip7">
  <rect width="300" height="400"/>
</clipPath>
<g id="surface24" clip-path="url(#clip7)">
<path style=" stroke:none;fill-rule:nonzero;fill:rgb(12.156863%,85.882353%,68.235294%);fill-opacity:1;" d="M 179.90625 108.035156 L 188 145.535156 L 203.214844 162.585938 L 199.472656 129.203125 Z M 179.90625 108.035156 "/>
</g>
<mask id="mask7">
  <g filter="url(#alpha)">
<rect x="0" y="0" width="300" height="400" style="fill:rgb(0%,0%,0%);fill-opacity:0.388235;stroke:none;"/>
  </g>
</mask>
<clipPath id="clip8">
  <rect width="300" height="400"/>
</clipPath>
<g id="surface27" clip-path="url(#clip8)">
<path style=" stroke:none;fill-rule:nonzero;fill:rgb(12.156863%,85.882353%,68.235294%);fill-opacity:1;" d="M 218.675781 101.15625 L 221.878906 129.933594 L 203.214844 162.585938 L 199.472656 129.203125 Z M 218.675781 101.15625 "/>
</g>
</defs>
<g id="surface1">
<use xlink:href="#surface6" mask="url(#mask0)"/>
<use xlink:href="#surface9" mask="url(#mask1)"/>
<path style=" stroke:none;fill-rule:nonzero;fill:url(#linear0);" d="M 228.914062 128.972656 C 228.691406 128.710938 228.421875 128.546875 228.140625 128.496094 C 227.863281 128.457031 227.597656 128.683594 227.476562 129.066406 C 227.402344 129.402344 227.476562 129.808594 227.339844 130.085938 C 227.1875 130.296875 226.980469 130.394531 226.777344 130.351562 C 225.882812 130.339844 224.992188 130.109375 224.144531 129.679688 C 223.757812 129.441406 223.355469 129.28125 222.941406 129.203125 C 222.523438 129.132812 222.109375 129.40625 221.863281 129.921875 C 221.691406 130.484375 221.679688 131.121094 221.824219 131.699219 C 222.726562 136.351562 225.382812 139.753906 228.582031 140.363281 C 229.578125 140.523438 230.765625 140.234375 231.242188 138.914062 C 232.355469 135.839844 230.585938 130.6875 228.914062 128.972656 Z M 228.914062 128.972656 "/>
<path style=" stroke:none;fill-rule:nonzero;fill:rgb(12.156863%,85.882353%,68.235294%);fill-opacity:1;" d="M 230.425781 132.996094 C 230.648438 135.46875 228.929688 137.382812 228.597656 139.828125 C 228.171875 142.855469 229.933594 145.476562 231.511719 147.449219 C 237.394531 154.746094 243.304688 162.078125 249.875 167.875 C 250.972656 168.839844 252.191406 169.800781 253.449219 169.546875 C 255.0625 169.222656 256.195312 167.050781 257.003906 164.90625 C 258.023438 162.226562 261.148438 153.308594 259.96875 150.1875 C 259.042969 147.75 253.796875 147.554688 251.9375 146.707031 C 244.46875 143.320312 237.445312 138.148438 230.425781 132.996094 Z M 230.425781 132.996094 "/>
<path style=" stroke:none;fill-rule:nonzero;fill:url(#linear1);" d="M 230.425781 132.996094 C 230.648438 135.46875 228.929688 137.382812 228.597656 139.828125 C 228.171875 142.855469 229.933594 145.476562 231.511719 147.449219 C 237.394531 154.746094 243.304688 162.078125 249.875 167.875 C 250.972656 168.839844 252.191406 169.800781 253.449219 169.546875 C 255.0625 169.222656 256.195312 167.050781 257.003906 164.90625 C 258.023438 162.226562 261.148438 153.308594 259.96875 150.1875 C 259.042969 147.75 253.796875 147.554688 251.9375 146.707031 C 244.46875 143.320312 237.445312 138.148438 230.425781 132.996094 Z M 230.425781 132.996094 "/>
<path style=" stroke:none;fill-rule:nonzero;fill:rgb(24.313725%,24.313725%,32.941176%);fill-opacity:1;" d="M 134.007812 172.339844 C 135.144531 193.414062 134.703125 214.609375 132.6875 235.535156 C 132.492188 237.507812 132.371094 239.824219 133.351562 241.160156 C 134.3125 242.226562 135.628906 242.226562 136.589844 241.160156 C 137.507812 240.070312 138.238281 238.664062 138.71875 237.066406 C 141.859375 228.308594 144.019531 218.855469 146.164062 209.460938 C 148.648438 198.542969 151.164062 187.316406 150.863281 175.820312 C 150.65625 167.828125 149.089844 159.976562 149.320312 151.984375 C 150.175781 152.945312 150.898438 154.148438 151.449219 155.523438 C 154.167969 161.390625 156.945312 167.46875 157.894531 174.476562 C 158.28125 177.898438 158.4375 181.375 158.355469 184.84375 C 158.300781 200.1875 157.816406 215.507812 156.914062 230.800781 C 156.765625 233.296875 156.628906 235.941406 157.414062 238.144531 C 158.203125 240.347656 160.308594 241.625 161.574219 240.011719 C 162 239.378906 162.332031 238.617188 162.546875 237.773438 C 167.058594 222.695312 168.71875 206.09375 169.992188 189.695312 C 170.800781 179.335938 171.457031 168.734375 169.875 158.597656 C 169.035156 153.769531 167.945312 149.050781 166.617188 144.480469 L 160.847656 123.160156 C 160.605469 122.085938 160.238281 121.085938 159.761719 120.203125 C 158.585938 118.289062 156.636719 118.136719 154.90625 118.160156 C 149.84375 118.214844 144.792969 118.601562 139.753906 119.320312 C 138.355469 119.53125 135.410156 119.125 134.261719 120.65625 C 133.109375 122.1875 133.074219 126.976562 132.886719 129.273438 C 131.746094 143.585938 133.234375 158.027344 134.007812 172.339844 Z M 134.007812 172.339844 "/>
<path style=" stroke:none;fill-rule:nonzero;fill:rgb(24.313725%,24.313725%,32.941176%);fill-opacity:1;" d="M 22.503906 303.5625 C 26.359375 328.675781 24.238281 354.867188 24.753906 380.628906 C 24.816406 383.378906 25.101562 386.636719 26.730469 387.890625 C 28.105469 388.957031 29.761719 388.042969 31.152344 387.019531 C 33.511719 385.28125 35.773438 383.261719 37.917969 380.976562 C 38.644531 380.199219 39.460938 379.003906 39.152344 377.742188 C 38.921875 376.683594 38.070312 376.3125 37.339844 376.140625 C 35.65625 375.746094 33.953125 375.597656 32.253906 375.699219 L 36.882812 322.4375 C 37.332031 317.332031 37.777344 312.113281 37.117188 307.066406 C 36.769531 304.433594 36.191406 301.382812 37.324219 299.308594 C 41.359375 309.015625 49.082031 314.851562 51.859375 325.519531 C 53.148438 330.472656 53.203125 335.960938 53.234375 341.261719 L 53.558594 390.628906 C 53.457031 391.90625 53.695312 393.195312 54.21875 394.210938 C 54.992188 395.371094 56.234375 395.082031 57.261719 394.640625 C 60.390625 393.3125 63.3125 391.054688 65.855469 388.007812 C 66.550781 387.171875 67.257812 385.6875 66.703125 384.675781 C 66.382812 384.222656 65.957031 383.960938 65.515625 383.945312 L 59.835938 382.785156 C 63.117188 364.714844 63.300781 345.75 63.472656 327.027344 C 63.59375 322.726562 63.472656 318.414062 63.109375 314.140625 C 62.492188 308.121094 60.925781 302.425781 59.351562 296.8125 C 56.894531 288.011719 54.382812 279.242188 51.820312 270.507812 C 51.636719 269.632812 51.265625 268.878906 50.765625 268.359375 C 50.308594 268.070312 49.808594 267.972656 49.320312 268.082031 L 33.9375 269.242188 C 30.378906 269.53125 25.328125 268.570312 22.171875 271.664062 C 15.875 277.953125 21.261719 295.445312 22.503906 303.5625 Z M 22.503906 303.5625 "/>
<path style=" stroke:none;fill-rule:nonzero;fill:rgb(12.156863%,85.882353%,68.235294%);fill-opacity:1;" d="M 26.5 158.515625 C 28.566406 153.875 31.445312 150.117188 34.324219 146.535156 C 37.832031 142.183594 41.605469 137.800781 46.089844 136.617188 C 48.664062 135.929688 51.75 136.742188 53.03125 140.09375 C 54.492188 143.886719 52.925781 148.898438 50.585938 151.53125 C 48.25 154.164062 45.324219 155.234375 42.703125 157.148438 C 40.234375 158.824219 38.144531 161.535156 36.675781 164.953125 C 35.890625 167.121094 35.234375 169.386719 34.707031 171.726562 C 33.929688 175.058594 32.730469 178.132812 31.183594 180.785156 C 29.609375 183.449219 27.378906 185.023438 25.011719 185.136719 C 23.304688 185.136719 18.835938 201.121094 17.835938 198.960938 C 16.601562 196.304688 20.078125 177.609375 21.011719 175.042969 C 23.019531 169.683594 24.222656 163.675781 26.5 158.515625 Z M 26.5 158.515625 "/>
<path style=" stroke:none;fill-rule:nonzero;fill:url(#linear2);" d="M 48.882812 146.882812 C 49.652344 146.882812 50.59375 147.125 50.941406 148.191406 C 51.359375 149.457031 50.648438 150.894531 49.945312 151.8125 C 48.371094 153.804688 46.605469 155.429688 44.707031 156.636719 C 43.710938 157.308594 42.695312 157.890625 41.667969 158.445312 C 41.019531 158.792969 39.351562 160.1875 38.675781 159.90625 C 37.03125 159.210938 38.550781 154.328125 39.058594 152.949219 C 39.667969 151.433594 40.578125 150.25 41.660156 149.5625 C 43.886719 147.804688 46.367188 146.886719 48.882812 146.882812 Z M 48.882812 146.882812 "/>
<path style=" stroke:none;fill-rule:nonzero;fill:url(#linear3);" d="M 252.40625 125.769531 C 252.125 126.792969 251.984375 127.890625 252 128.996094 C 252.203125 130.109375 252.511719 131.175781 252.917969 132.160156 C 253.554688 134.390625 253.386719 137.253906 254.589844 138.855469 C 255.476562 140.015625 256.820312 140.015625 257.984375 139.722656 C 258.21875 139.609375 258.46875 139.609375 258.703125 139.722656 C 258.847656 139.847656 258.960938 140.03125 259.027344 140.257812 C 259.421875 141.347656 259.234375 142.695312 259.351562 143.921875 C 259.363281 144.183594 259.421875 144.4375 259.519531 144.652344 C 259.742188 144.984375 260.050781 145.152344 260.363281 145.117188 C 261.4375 145.089844 262.503906 144.804688 263.515625 144.269531 C 264.363281 144.035156 265.136719 143.410156 265.738281 142.484375 C 266.121094 141.609375 266.328125 140.585938 266.339844 139.539062 C 266.453125 136.035156 266.257812 132.523438 265.753906 129.097656 C 265.5 126.46875 264.980469 123.910156 264.210938 121.515625 C 263.421875 119.097656 262.015625 117.261719 260.316406 116.421875 C 259.75 116.203125 259.171875 116.082031 258.585938 116.050781 C 257.46875 115.96875 256.347656 116.027344 255.238281 116.222656 C 254.550781 116.339844 253.617188 116.445312 253.1875 117.382812 C 252.753906 118.324219 252.917969 119.703125 252.894531 120.769531 C 252.867188 122.460938 252.703125 124.140625 252.40625 125.769531 Z M 252.40625 125.769531 "/>
<path style=" stroke:none;fill-rule:nonzero;fill:rgb(24.313725%,24.313725%,32.941176%);fill-opacity:1;" d="M 262.375 108.789062 C 259.527344 108.949219 256.703125 108.019531 254.160156 106.085938 C 253.527344 105.425781 252.753906 105.132812 251.992188 105.261719 C 251.210938 105.695312 250.699219 106.820312 250.710938 108.070312 C 250.742188 109.28125 250.949219 110.472656 251.320312 111.550781 C 251.871094 113.730469 252.613281 115.789062 253.527344 117.675781 C 254.882812 120.25 256.851562 122.199219 257.621094 125.261719 C 257.730469 125.679688 257.878906 126.1875 258.171875 126.210938 C 258.464844 126.234375 258.679688 125.46875 258.863281 124.945312 C 259.046875 124.484375 259.355469 124.164062 259.707031 124.066406 C 260.058594 123.96875 260.421875 124.105469 260.699219 124.4375 C 261.140625 125.140625 261.285156 126.144531 261.078125 127.058594 C 260.871094 127.949219 260.613281 128.808594 260.308594 129.632812 C 260.214844 129.890625 260.15625 130.175781 260.144531 130.46875 C 260.144531 131.257812 260.65625 131.777344 261.046875 132.300781 C 261.433594 132.800781 261.75 133.40625 261.980469 134.085938 C 262.15625 134.765625 262.421875 135.382812 262.753906 135.910156 C 263.039062 136.21875 263.375 136.414062 263.726562 136.476562 C 264.632812 136.71875 265.566406 136.539062 266.402344 135.964844 C 267.78125 134.84375 268.746094 132.835938 269.019531 130.515625 C 269.285156 128.207031 269.261719 125.847656 268.949219 123.554688 C 268.785156 121.964844 268.59375 120.378906 268.363281 118.8125 C 268.023438 116.492188 267.542969 114.03125 266.332031 112.5 C 265.5625 111.550781 264.597656 111.003906 264.019531 109.820312 C 263.449219 109.625 262.90625 108.753906 262.375 108.789062 Z M 262.375 108.789062 "/>
<path style=" stroke:none;fill-rule:nonzero;fill:rgb(12.156863%,85.882353%,68.235294%);fill-opacity:1;" d="M 137.523438 37.917969 L 133.882812 40.398438 C 132.898438 40.976562 131.96875 41.757812 131.128906 42.71875 C 130.089844 44.113281 129.347656 45.945312 129.007812 47.972656 C 128.671875 49.996094 128.558594 52.082031 128.667969 54.15625 C 129.347656 71.265625 128.117188 87.703125 128.667969 104.835938 C 128.757812 108.082031 128.867188 111.433594 129.738281 114.414062 C 131.421875 120.214844 135.703125 123.484375 139.886719 124.054688 C 144.066406 124.621094 148.226562 122.894531 152.277344 121.269531 C 155.484375 119.960938 158.933594 118.40625 160.964844 114.4375 C 163.980469 108.546875 162.613281 100.160156 161.449219 92.933594 C 159.714844 82.1875 158.71875 71.203125 158.480469 60.152344 C 158.386719 59.242188 158.539062 58.308594 158.902344 57.566406 C 159.292969 57.109375 159.769531 56.847656 160.261719 56.824219 L 191.433594 50.722656 C 193.667969 46.710938 193.285156 42.40625 190.722656 38.859375 C 188.160156 35.308594 159.96875 32.976562 149.90625 36.109375 C 145.957031 37.371094 141.164062 35.449219 137.523438 37.917969 Z M 137.523438 37.917969 "/>
<path style=" stroke:none;fill-rule:nonzero;fill:url(#linear4);" d="M 160.421875 90.484375 L 160.679688 95.519531 C 160.679688 95.519531 140.570312 92.421875 137.222656 86.613281 C 133.875 80.800781 136.1875 122.269531 136.1875 122.269531 C 136.1875 122.269531 130.789062 125.363281 124.617188 111.027344 C 118.445312 96.691406 128.558594 49.714844 129.039062 48.007812 C 129.515625 46.304688 160.421875 90.484375 160.421875 90.484375 Z M 160.421875 90.484375 "/>
<path style=" stroke:none;fill-rule:nonzero;fill:url(#linear5);" d="M 191.433594 40.609375 C 190.429688 40.972656 189.640625 42.128906 189.371094 43.625 C 189.257812 45.335938 189.796875 47 190.769531 47.917969 C 191.734375 48.785156 192.769531 49.453125 193.855469 49.898438 C 195.96875 51.058594 198.027344 52.695312 200.273438 52.8125 C 201.046875 52.8125 201.988281 52.542969 202.289062 51.453125 C 202.453125 50.359375 202.21875 49.21875 201.679688 48.449219 C 200.871094 46.964844 199.898438 45.699219 198.808594 44.703125 C 198.636719 44.582031 198.492188 44.394531 198.382812 44.160156 C 198.082031 43.359375 198.832031 42.441406 198.722656 41.535156 C 198.582031 40.882812 198.148438 40.476562 197.695312 40.574219 C 197.261719 40.679688 196.832031 40.863281 196.421875 41.121094 C 194.679688 41.964844 193.292969 39.855469 191.433594 40.609375 Z M 191.433594 40.609375 "/>
<path style=" stroke:none;fill-rule:nonzero;fill:rgb(24.313725%,24.313725%,32.941176%);fill-opacity:1;" d="M 131.675781 240.996094 C 131.132812 242.59375 130.953125 244.40625 131.160156 246.171875 C 131.414062 247.839844 131.988281 249.359375 132.808594 250.542969 C 133.632812 251.722656 134.554688 252.726562 135.558594 253.535156 C 137.394531 255.113281 139.414062 256.449219 141.558594 256.238281 C 141.875 256.226562 142.1875 256.113281 142.476562 255.914062 C 143.210938 255.210938 143.546875 253.863281 143.304688 252.609375 C 143.042969 251.390625 142.605469 250.273438 142.023438 249.335938 C 141.03125 247.65625 140.195312 245.785156 139.539062 243.769531 C 139.152344 242.449219 138.929688 241.042969 138.550781 239.722656 C 138.214844 238.359375 137.589844 237.203125 136.769531 236.4375 C 134.644531 234.746094 132.515625 238.480469 131.675781 240.996094 Z M 131.675781 240.996094 "/>
<path style=" stroke:none;fill-rule:nonzero;fill:rgb(24.313725%,24.313725%,32.941176%);fill-opacity:1;" d="M 155.507812 245.371094 C 155.53125 245.960938 155.652344 246.53125 155.863281 247.027344 C 156.191406 247.570312 156.605469 247.96875 157.066406 248.1875 C 160.839844 250.589844 164.652344 253.015625 168.695312 253.988281 C 169.757812 254.253906 171.15625 254.140625 171.519531 252.609375 C 171.660156 251.628906 171.5 250.605469 171.078125 249.824219 C 169.589844 246.34375 167.152344 244.117188 165.421875 240.941406 C 164.621094 239.171875 163.71875 237.507812 162.730469 235.964844 C 158.386719 230.316406 155.039062 239.464844 155.507812 245.371094 Z M 155.507812 245.371094 "/>
<use xlink:href="#surface12" mask="url(#mask2)"/>
<use xlink:href="#surface15" mask="url(#mask3)"/>
<path style=" stroke:none;fill-rule:nonzero;fill:url(#linear6);" d="M 42.632812 149.0625 C 43.140625 149.480469 43.742188 149.898438 43.90625 150.730469 C 44.160156 152.042969 43.132812 153.050781 42.703125 154.210938 C 42.175781 155.59375 42.421875 157.308594 42.347656 158.851562 C 42.195312 161.488281 41.144531 163.820312 39.570312 165.011719 C 38.683594 165.660156 37.65625 165.925781 36.882812 166.855469 C 35.203125 168.863281 35.410156 173.09375 33.796875 175.183594 C 33.21875 175.863281 32.539062 176.320312 31.816406 176.515625 C 30.828125 176.941406 29.773438 176.839844 28.828125 176.226562 C 27.890625 175.410156 27.175781 174.121094 26.816406 172.585938 C 26.078125 169.367188 25.710938 165.980469 25.734375 162.574219 C 25.574219 155.070312 25.953125 147.007812 29 141.058594 C 29.503906 140.011719 30.140625 139.125 30.875 138.449219 C 33.035156 136.605469 36.953125 137.496094 38.675781 140.269531 C 39.21875 141.40625 39.617188 142.683594 39.855469 144.039062 C 40.371094 146.144531 41.351562 147.917969 42.632812 149.0625 Z M 42.632812 149.0625 "/>
<path style=" stroke:none;fill-rule:nonzero;fill:rgb(24.313725%,24.313725%,32.941176%);fill-opacity:1;" d="M 37.007812 147.171875 C 36.296875 148.371094 35.339844 149.1875 34.292969 149.492188 C 33.382812 149.640625 32.332031 149.191406 31.605469 150.046875 C 31.015625 150.941406 30.839844 152.285156 31.167969 153.445312 C 31.429688 154.605469 31.9375 155.648438 32.183594 156.808594 C 32.824219 159.582031 32.132812 162.609375 31.414062 165.335938 C 31.195312 166.59375 30.714844 167.710938 30.039062 168.527344 C 29.507812 168.980469 28.902344 169.214844 28.289062 169.199219 C 27.101562 169.359375 25.90625 168.992188 24.855469 168.144531 C 23.746094 167.015625 22.90625 165.394531 22.449219 163.503906 C 21.214844 159.082031 21.152344 154.140625 21.253906 149.351562 C 21.257812 147.457031 21.386719 145.570312 21.636719 143.714844 C 22.640625 137.835938 25.820312 133.363281 29.785156 132.242188 C 31.953125 131.664062 34.152344 132.128906 36.335938 131.90625 C 37.585938 131.777344 39.847656 130.328125 40.757812 132.347656 C 41.667969 134.367188 40.570312 138.226562 40.085938 140.085938 C 39.390625 142.738281 38.34375 145.148438 37.007812 147.171875 Z M 37.007812 147.171875 "/>
<path style=" stroke:none;fill-rule:nonzero;fill:rgb(12.156863%,85.882353%,68.235294%);fill-opacity:1;" d="M 21.960938 178.375 C 20.554688 180.972656 19.527344 183.988281 18.945312 187.222656 C 16.246094 200.0625 16.382812 213.796875 16.554688 227.253906 L 16.96875 260.890625 C 17.03125 265.84375 17.210938 271.261719 19.410156 274.949219 C 21.605469 278.636719 25.21875 279.484375 28.511719 279.589844 C 34.886719 279.78125 41.222656 278.039062 47.136719 274.460938 C 49.136719 273.300781 51.164062 271.734375 52.453125 269.136719 C 54.769531 264.417969 53.996094 257.828125 53.15625 252.085938 C 50.886719 237.191406 48.617188 222.304688 46.34375 207.417969 C 44.800781 197.152344 42.679688 186.0625 37.425781 178.511719 C 33.382812 172.734375 25.972656 171.609375 21.960938 178.375 Z M 21.960938 178.375 "/>
<path style=" stroke:none;fill-rule:nonzero;fill:url(#linear7);" d="M 47 213.925781 C 47 213.925781 41.003906 202.882812 36.96875 207.242188 C 32.933594 211.605469 49.730469 258.394531 44.683594 275.261719 C 44.683594 275.261719 50.183594 276.191406 52.460938 269.183594 C 54.738281 262.179688 54.542969 260.726562 53.773438 257.816406 C 53 254.90625 47 213.925781 47 213.925781 Z M 47 213.925781 "/>
<path style=" stroke:none;fill-rule:nonzero;fill:rgb(12.156863%,85.882353%,68.235294%);fill-opacity:1;" d="M 38.921875 184.335938 C 38.136719 184.257812 37.351562 184.40625 36.605469 184.777344 C 35.214844 185.78125 34.175781 187.640625 33.765625 189.878906 C 31.953125 197.871094 35.039062 206.917969 39.621094 211.789062 C 44.207031 216.664062 45.878906 214.273438 51.449219 215.410156 C 52.527344 215.75 53.636719 215.75 54.714844 215.410156 C 56.496094 214.621094 57.667969 212.128906 58.648438 209.75 C 61.472656 202.847656 69.40625 183.246094 69.058594 180.636719 C 68.585938 177.027344 68.0625 177.945312 66.070312 175.796875 C 65.597656 174.980469 64.882812 174.574219 64.171875 174.714844 C 63.457031 174.859375 62.835938 175.53125 62.523438 176.503906 L 52.554688 194.066406 C 52.167969 194.75 51.675781 195.492188 51.082031 195.390625 C 50.738281 195.269531 50.425781 195.007812 50.175781 194.636719 C 46.621094 190.125 43.789062 184.335938 38.921875 184.335938 Z M 38.921875 184.335938 "/>
<path style=" stroke:none;fill-rule:nonzero;fill:url(#linear8);" d="M 60.996094 169.753906 C 60.832031 169.539062 60.746094 169.222656 60.761719 168.898438 C 60.808594 168.503906 61.101562 168.316406 61.363281 168.199219 C 61.898438 167.980469 62.449219 167.863281 63 167.851562 C 63.371094 167.902344 63.742188 167.808594 64.082031 167.585938 C 64.410156 167.238281 64.644531 166.714844 64.730469 166.125 C 65.378906 163.003906 64.789062 159.628906 64.730469 156.359375 C 64.730469 155.671875 64.835938 154.769531 65.285156 154.699219 C 66.09375 157.054688 66.6875 159.5625 67.050781 162.15625 C 67.121094 162.804688 67.242188 163.433594 67.414062 164.035156 C 67.722656 164.78125 68.113281 165.441406 68.570312 165.984375 C 69.316406 166.882812 69.894531 168.058594 70.246094 169.394531 C 70.664062 171.402344 70.144531 173.570312 69.472656 175.402344 C 69.320312 175.917969 69.046875 176.332031 68.703125 176.5625 C 68.449219 176.671875 68.183594 176.671875 67.929688 176.5625 C 66.59375 176.164062 65.382812 175.097656 64.496094 173.535156 C 63.511719 171.96875 61.980469 171.402344 60.996094 169.753906 Z M 60.996094 169.753906 "/>
<path style=" stroke:none;fill-rule:nonzero;fill:url(#linear9);" d="M 54.535156 153.621094 C 54.9375 154.1875 55.449219 154.78125 55.980469 154.570312 C 56.667969 154.316406 56.851562 152.9375 56.652344 151.914062 C 56.351562 150.957031 56.09375 149.96875 55.878906 148.957031 C 55.835938 148.6875 55.859375 148.402344 55.941406 148.15625 C 56.050781 147.9375 56.199219 147.765625 56.375 147.671875 C 57.9375 146.667969 59.613281 146.117188 61.3125 146.046875 C 61.773438 146.046875 62.414062 145.652344 62.304688 144.96875 C 62.199219 144.28125 61.765625 144.339844 61.410156 144.339844 L 58.410156 144.339844 C 58.207031 144.375 58.003906 144.300781 57.832031 144.132812 C 57.695312 143.894531 57.613281 143.597656 57.59375 143.285156 C 57.160156 141.367188 56.035156 139.984375 54.699219 139.734375 C 53.398438 139.539062 52.085938 139.746094 50.839844 140.339844 C 50.066406 140.5 49.355469 141.089844 48.851562 141.988281 C 48.257812 143.355469 48.71875 145.175781 49.265625 146.625 C 49.976562 148.4375 50.679688 148.390625 51.722656 149.28125 C 52.761719 150.175781 53.632812 152.355469 54.535156 153.621094 Z M 54.535156 153.621094 "/>
<path style=" stroke:none;fill-rule:nonzero;fill:rgb(12.156863%,85.882353%,68.235294%);fill-opacity:1;" d="M 168.472656 84.964844 C 168.761719 85.097656 169.015625 85.363281 169.203125 85.71875 C 169.316406 86.035156 169.375 86.390625 169.375 86.75 C 169.421875 88.472656 169.242188 90.191406 168.847656 91.808594 C 168.796875 92.132812 168.671875 92.417969 168.492188 92.621094 C 168.34375 92.738281 168.175781 92.804688 168.007812 92.804688 C 156.242188 93.386719 144.863281 86.4375 134.5 78.109375 C 133.1875 77.054688 131.816406 75.882812 131.105469 73.921875 C 130.609375 72.292969 130.398438 70.5 130.496094 68.714844 C 130.671875 63.085938 131.1875 57.496094 132.039062 52.011719 C 132.269531 50.304688 132.941406 47.996094 134.351562 49.132812 C 135.363281 49.980469 136.40625 52.476562 137.246094 53.773438 C 139.425781 57.007812 141.707031 60.097656 144.082031 63.054688 C 148.753906 68.777344 153.769531 73.84375 159.058594 78.191406 C 162.113281 80.703125 165.253906 82.964844 168.472656 84.964844 Z M 168.472656 84.964844 "/>
<path style=" stroke:none;fill-rule:nonzero;fill:url(#linear10);" d="M 174.058594 84.511719 C 174.472656 84.140625 175.066406 83.757812 175.351562 84.339844 C 175.636719 84.917969 175.253906 85.648438 174.890625 86.089844 C 174.527344 86.53125 174.117188 87.25 174.34375 87.816406 C 174.472656 88.09375 174.664062 88.285156 174.882812 88.363281 C 177.40625 89.652344 180.167969 88.6875 182.820312 88.988281 C 183.039062 88.992188 183.257812 89.066406 183.453125 89.210938 C 183.820312 89.609375 184.023438 90.269531 183.988281 90.949219 C 183.929688 92.574219 183.394531 94.078125 182.527344 95.054688 C 181.667969 96.011719 180.683594 96.695312 179.644531 97.0625 C 177.023438 98.382812 174.144531 97.695312 171.925781 95.21875 C 170.53125 93.917969 169.242188 92.363281 167.839844 91.101562 C 167.546875 90.902344 167.300781 90.578125 167.128906 90.171875 C 167.058594 89.933594 167.023438 89.671875 167.027344 89.40625 C 167.015625 88.523438 167.257812 87.675781 167.6875 87.074219 C 168.121094 86.476562 168.703125 86.183594 169.289062 86.273438 C 170.957031 86.367188 172.609375 85.753906 174.058594 84.511719 Z M 174.058594 84.511719 "/>
<path style=" stroke:none;fill-rule:nonzero;fill:url(#linear11);" d="M 150.964844 27.398438 C 151.046875 29.578125 150.832031 31.761719 150.332031 33.8125 C 149.8125 35.871094 148.617188 37.378906 147.175781 37.789062 C 146.851562 37.789062 146.53125 37.890625 146.234375 38.09375 C 145.835938 38.648438 145.644531 39.464844 145.726562 40.273438 L 145.632812 44.367188 C 145.664062 44.9375 145.589844 45.507812 145.417969 46.015625 C 145.179688 46.476562 144.851562 46.808594 144.476562 46.964844 C 143.628906 47.484375 142.691406 47.554688 141.8125 47.164062 C 141.050781 46.667969 140.390625 45.863281 139.910156 44.84375 C 138.597656 42.375 137.769531 39.414062 137.507812 36.28125 C 137.292969 33.578125 137.445312 30.597656 136.335938 28.464844 C 135.886719 27.800781 135.5 27.050781 135.179688 26.238281 C 134.933594 25.367188 135.179688 24.078125 135.804688 24 C 136.429688 23.917969 136.8125 24.84375 137.386719 24.824219 C 137.113281 22.824219 136.992188 20.785156 137.023438 18.746094 C 137.054688 16.6875 137.535156 14.703125 138.386719 13.09375 C 139.617188 11.1875 141.3125 10.125 143.078125 10.160156 C 145.261719 10.054688 148.386719 11.320312 149.566406 14.429688 C 150.964844 18.023438 150.957031 23.40625 150.964844 27.398438 Z M 150.964844 27.398438 "/>
<path style=" stroke:none;fill-rule:nonzero;fill:rgb(71.764706%,64.313725%,31.764706%);fill-opacity:1;" d="M 150.773438 16.667969 C 151.160156 15.148438 151.335938 13.527344 151.28125 11.902344 C 151.28125 9.988281 151.28125 8.074219 151.28125 6.101562 C 151.328125 5.011719 151.199219 3.921875 150.902344 2.921875 C 150.132812 0.871094 148.273438 0.511719 146.742188 0.90625 C 144.652344 1.609375 142.644531 2.78125 140.789062 4.382812 C 139.210938 5.480469 137.742188 6.890625 136.421875 8.582031 C 135.082031 10.296875 134.25 12.742188 134.105469 15.378906 C 134.128906 16.074219 134.105469 16.769531 134.035156 17.457031 C 133.800781 18.378906 133.496094 19.257812 133.132812 20.078125 C 132.300781 22.628906 132.988281 25.75 134.082031 28.058594 C 135.179688 30.367188 136.667969 32.234375 137.710938 34.601562 C 138.054688 34.105469 138.179688 33.355469 138.027344 32.675781 C 137.863281 32.015625 137.632812 31.402344 137.339844 30.855469 C 136.671875 29.5625 136.214844 28.050781 136.011719 26.445312 C 135.929688 25.808594 135.996094 25.152344 136.195312 24.578125 C 136.417969 24.003906 136.875 23.746094 137.292969 23.964844 C 137.472656 24.128906 137.628906 24.339844 137.753906 24.589844 C 138.109375 25.175781 138.515625 25.679688 138.96875 26.085938 C 139.03125 26.160156 139.109375 26.195312 139.191406 26.179688 C 139.3125 26.179688 139.351562 25.914062 139.367188 25.726562 C 139.53125 23.164062 138.597656 20.589844 138.953125 18.070312 C 138.976562 17.816406 139.054688 17.574219 139.175781 17.386719 C 139.304688 17.242188 139.457031 17.160156 139.613281 17.144531 C 141.929688 16.667969 144.445312 19.464844 146.644531 17.933594 C 147.359375 17.277344 147.976562 16.414062 148.464844 15.390625 C 148.789062 14.824219 149.144531 13.769531 149.652344 14.070312 C 150.09375 14.863281 150.46875 15.738281 150.773438 16.667969 Z M 150.773438 16.667969 "/>
<path style=" stroke:none;fill-rule:nonzero;fill:rgb(12.156863%,85.882353%,68.235294%);fill-opacity:1;" d="M 247.761719 189.71875 C 241.804688 199.34375 231.914062 202.40625 223.683594 206.835938 C 221.46875 202.105469 221.871094 201.515625 220.140625 196.398438 C 223.449219 196.003906 226.167969 192.429688 228.527344 188.917969 C 236.195312 177.527344 242.972656 164.859375 249.921875 152.484375 C 251.183594 150.09375 252.601562 147.90625 254.160156 145.953125 C 258.203125 141.1875 263.539062 139.816406 268.664062 139.191406 C 272.453125 138.738281 273.292969 147.125 273.925781 152.761719 C 275.902344 170.4375 275.714844 188.488281 275.523438 206.421875 C 275.527344 211.753906 275.339844 217.085938 274.960938 222.390625 C 274.710938 225.328125 274.1875 228.632812 272.429688 230.035156 C 271.613281 230.566406 270.738281 230.839844 269.851562 230.835938 C 262.4375 231.691406 254.988281 231.394531 247.617188 229.953125 C 246.417969 229.722656 245.132812 229.386719 244.328125 228.054688 C 243.800781 227.082031 243.484375 225.894531 243.417969 224.644531 C 242.988281 219.597656 244.453125 214.691406 245.332031 209.785156 C 246.433594 203.519531 248.566406 196.109375 247.761719 189.71875 Z M 247.761719 189.71875 "/>
<path style=" stroke:none;fill-rule:nonzero;fill:rgb(24.313725%,24.313725%,32.941176%);fill-opacity:1;" d="M 272.304688 227.019531 C 270.847656 248.722656 269.386719 270.496094 269.703125 292.300781 C 269.835938 301.847656 270.316406 311.40625 269.945312 320.941406 C 269.851562 323.421875 269.566406 326.261719 268.175781 327.632812 C 266.789062 329 265.015625 328.292969 263.492188 327.445312 C 261.085938 326.105469 258.761719 324.445312 256.550781 322.480469 C 256.214844 322.265625 255.941406 321.878906 255.777344 321.390625 C 255.675781 320.675781 255.863281 319.933594 256.257812 319.5 C 257.800781 317.460938 260.824219 318.492188 261.765625 315.707031 C 261.976562 314.976562 262.078125 314.183594 262.066406 313.386719 C 262.535156 303.199219 262.15625 292.964844 260.941406 282.917969 C 260.46875 279.4375 259.84375 275.886719 259.359375 272.363281 C 258.78125 268.222656 258.402344 264.023438 258.015625 259.835938 L 256.867188 247.308594 C 253.457031 257.816406 249.71875 268.070312 245.648438 278.070312 C 245.570312 295.910156 244.296875 315.023438 244.058594 332.851562 C 244.058594 334.570312 243.949219 336.492188 243.101562 337.652344 C 242.476562 338.375 241.714844 338.78125 240.925781 338.8125 C 236.574219 339.511719 231.507812 336.492188 230.324219 330.125 C 230.152344 329.464844 230.152344 328.734375 230.324219 328.074219 C 231.097656 325.984375 233.371094 328.234375 234.753906 327.074219 C 235.527344 326.402344 235.742188 324.824219 235.828125 323.457031 C 236.835938 307.632812 236.460938 291.679688 234.707031 276.003906 C 234.152344 271.015625 233.449219 265.992188 233.660156 260.925781 C 233.953125 253.617188 236.113281 246.820312 238.234375 240.230469 L 241.929688 228.773438 C 242.351562 227.082031 243.078125 225.605469 244.027344 224.503906 C 244.898438 223.804688 245.867188 223.433594 246.851562 223.414062 C 254.3125 222.484375 265.074219 224.339844 272.304688 227.019531 Z M 272.304688 227.019531 "/>
<path style=" stroke:none;fill-rule:nonzero;fill:url(#linear12);" d="M 215.433594 196.039062 C 213.730469 195.15625 212.070312 193.71875 210.273438 193.871094 C 210.089844 194.300781 210.089844 194.851562 210.273438 195.285156 C 210.410156 195.738281 210.644531 196.121094 210.78125 196.574219 C 210.835938 196.699219 210.851562 196.855469 210.820312 197 C 210.757812 197.175781 210.605469 197.210938 210.472656 197.222656 L 204.03125 197.753906 C 204.324219 200.8125 205.554688 203.484375 207.355469 204.96875 C 209.152344 206.421875 211.167969 207.140625 213.203125 207.058594 C 214.304688 207.117188 215.40625 206.917969 216.46875 206.476562 C 218.011719 205.804688 219.324219 204.425781 220.804688 203.566406 C 221.226562 203.378906 221.621094 203.09375 221.984375 202.71875 C 223.234375 201.257812 222.671875 197.917969 221.265625 197.105469 C 220.507812 196.875 219.726562 196.824219 218.953125 196.957031 C 217.753906 196.921875 216.570312 196.613281 215.433594 196.039062 Z M 215.433594 196.039062 "/>
<use xlink:href="#surface18" mask="url(#mask4)"/>
<use xlink:href="#surface21" mask="url(#mask5)"/>
<use xlink:href="#surface24" mask="url(#mask6)"/>
<use xlink:href="#surface27" mask="url(#mask7)"/>
</g>
</svg>
