<svg width="1920" height="1080" viewBox="0 0 1920 1080" fill="none" xmlns="http://www.w3.org/2000/svg">
<rect width="1920" height="1080" fill="white"/>
<path d="M870.355 235.448C850.829 215.922 850.829 184.264 870.355 164.738L924.738 110.355C944.264 90.8291 975.922 90.8291 995.448 110.355L1049.64 164.552C1069.17 184.078 1069.17 215.736 1049.64 235.262L995.262 289.645C975.736 309.171 944.078 309.171 924.552 289.645L870.355 235.448Z" fill="#1FDBAE"/>
<rect x="870.277" y="199.982" width="127.385" height="127.196" rx="40" transform="rotate(-45 870.277 199.982)" fill="#02A2AF"/>
<path d="M947.436 167.636C947.436 162.113 951.913 157.636 957.436 157.636H970.615C971.719 157.636 972.615 158.531 972.615 159.636V232.195C972.615 237.718 968.137 242.195 962.615 242.195H949.436C948.331 242.195 947.436 241.299 947.436 240.195V167.636Z" fill="white"/>
<path d="M992.305 187.305C997.828 187.305 1002.3 191.782 1002.3 197.305L1002.3 210.484C1002.3 211.588 1001.41 212.484 1000.3 212.484L927.746 212.484C922.223 212.484 917.746 208.006 917.746 202.484L917.746 189.305C917.746 188.2 918.641 187.305 919.746 187.305L992.305 187.305Z" fill="white"/>
<path d="M885.344 334.4V340.736H876.272V368H869.648V340.736H860.624V334.4H885.344ZM902.722 343.328C905.954 343.328 908.706 344.56 910.978 347.024C913.282 349.456 914.434 352.448 914.434 356C914.434 359.552 913.282 362.56 910.978 365.024C908.706 367.456 905.954 368.672 902.722 368.672C899.362 368.672 896.77 367.504 894.946 365.168V368H888.754V334.4H894.946V346.832C896.77 344.496 899.362 343.328 902.722 343.328ZM896.818 360.896C898.066 362.144 899.65 362.768 901.57 362.768C903.49 362.768 905.074 362.144 906.322 360.896C907.602 359.616 908.242 357.984 908.242 356C908.242 354.016 907.602 352.4 906.322 351.152C905.074 349.872 903.49 349.232 901.57 349.232C899.65 349.232 898.066 349.872 896.818 351.152C895.57 352.4 894.946 354.016 894.946 356C894.946 357.984 895.57 359.616 896.818 360.896ZM924.033 358.544C924.865 361.552 927.121 363.056 930.801 363.056C933.169 363.056 934.961 362.256 936.177 360.656L941.169 363.536C938.801 366.96 935.313 368.672 930.705 368.672C926.737 368.672 923.553 367.472 921.153 365.072C918.753 362.672 917.553 359.648 917.553 356C917.553 352.384 918.737 349.376 921.105 346.976C923.473 344.544 926.513 343.328 930.225 343.328C933.745 343.328 936.641 344.544 938.913 346.976C941.217 349.408 942.369 352.416 942.369 356C942.369 356.8 942.289 357.648 942.129 358.544H924.033ZM923.937 353.744H936.177C935.825 352.112 935.089 350.896 933.969 350.096C932.881 349.296 931.633 348.896 930.225 348.896C928.561 348.896 927.185 349.328 926.097 350.192C925.009 351.024 924.289 352.208 923.937 353.744ZM960.659 343.328C963.891 343.328 966.643 344.56 968.915 347.024C971.219 349.456 972.371 352.448 972.371 356C972.371 359.552 971.219 362.56 968.915 365.024C966.643 367.456 963.891 368.672 960.659 368.672C957.299 368.672 954.707 367.504 952.883 365.168V368H946.691V334.4H952.883V346.832C954.707 344.496 957.299 343.328 960.659 343.328ZM954.755 360.896C956.003 362.144 957.587 362.768 959.507 362.768C961.427 362.768 963.011 362.144 964.259 360.896C965.539 359.616 966.179 357.984 966.179 356C966.179 354.016 965.539 352.4 964.259 351.152C963.011 349.872 961.427 349.232 959.507 349.232C957.587 349.232 956.003 349.872 954.755 351.152C953.507 352.4 952.883 354.016 952.883 356C952.883 357.984 953.507 359.616 954.755 360.896ZM977.026 356.48V350.528H995.026V356.48H977.026ZM1007.88 361.664H1020.7V368H1001.26V334.4H1007.88V361.664ZM1027.25 341.12C1026.22 341.12 1025.33 340.752 1024.56 340.016C1023.82 339.248 1023.46 338.352 1023.46 337.328C1023.46 336.304 1023.82 335.408 1024.56 334.64C1025.33 333.872 1026.22 333.488 1027.25 333.488C1028.3 333.488 1029.2 333.872 1029.94 334.64C1030.7 335.408 1031.09 336.304 1031.09 337.328C1031.09 338.352 1030.7 339.248 1029.94 340.016C1029.2 340.752 1028.3 341.12 1027.25 341.12ZM1024.18 368V344H1030.37V368H1024.18ZM1058.16 368H1050.96L1042.23 357.104V368H1036.04V334.4H1042.23V354.56L1050.48 344H1057.88L1048.23 355.856L1058.16 368Z" fill="#1FDBAE"/>
<path d="M862.324 488H866.86V468.4H862.324V488ZM882.18 467.224V474.532C881.088 473.3 879.52 472.712 877.672 472.712C873.416 472.712 870.14 475.736 870.14 480.468C870.14 485.2 873.416 488.224 877.672 488.224C879.688 488.224 881.284 487.58 882.376 486.264V488H886.548V467.224H882.18ZM878.428 484.64C876.244 484.64 874.564 483.072 874.564 480.468C874.564 477.864 876.244 476.296 878.428 476.296C880.584 476.296 882.264 477.864 882.264 480.468C882.264 483.072 880.584 484.64 878.428 484.64ZM905.346 480.524C905.346 475.68 901.93 472.712 897.506 472.712C892.914 472.712 889.47 475.96 889.47 480.468C889.47 484.948 892.858 488.224 898.066 488.224C900.782 488.224 902.882 487.384 904.282 485.788L901.958 483.268C900.922 484.248 899.774 484.724 898.178 484.724C895.882 484.724 894.286 483.576 893.866 481.7H905.262C905.29 481.336 905.346 480.86 905.346 480.524ZM897.534 476.016C899.494 476.016 900.922 477.248 901.23 479.152H893.81C894.118 477.22 895.546 476.016 897.534 476.016ZM917.41 472.712C915.366 472.712 913.602 473.412 912.426 474.7V472.936H908.254V488H912.622V480.552C912.622 477.78 914.134 476.492 916.234 476.492C918.166 476.492 919.286 477.612 919.286 480.048V488H923.654V479.376C923.654 474.784 920.966 472.712 917.41 472.712ZM936.154 484.192C935.678 484.556 935.034 484.752 934.39 484.752C933.214 484.752 932.514 484.052 932.514 482.764V476.632H936.266V473.272H932.514V469.604H928.146V473.272H925.822V476.632H928.146V482.82C928.146 486.404 930.218 488.224 933.774 488.224C935.118 488.224 936.434 487.916 937.33 487.272L936.154 484.192ZM941.966 470.836C943.59 470.836 944.682 469.772 944.682 468.316C944.682 466.972 943.59 465.964 941.966 465.964C940.342 465.964 939.25 467.028 939.25 468.4C939.25 469.772 940.342 470.836 941.966 470.836ZM939.782 488H944.15V472.936H939.782V488ZM963.464 470.836C965.088 470.836 966.18 469.772 966.18 468.316C966.18 466.972 965.088 465.964 963.464 465.964C961.84 465.964 960.748 467.028 960.748 468.4C960.748 469.772 961.84 470.836 963.464 470.836ZM954.98 470.444C955.652 470.444 956.268 470.64 956.744 470.976L957.892 467.812C957.08 467.252 955.792 467 954.56 467C950.808 467 948.736 469.212 948.736 472.6V473.272H946.412V476.632H948.736V488H953.104V476.632H956.856V473.272H952.992V472.628C952.992 471.144 953.692 470.444 954.98 470.444ZM961.28 488H965.648V472.936H961.28V488ZM976.976 488.224C980.14 488.224 982.632 486.824 983.724 484.416L980.336 482.568C979.524 484.024 978.32 484.64 976.948 484.64C974.736 484.64 973 483.1 973 480.468C973 477.836 974.736 476.296 976.948 476.296C978.32 476.296 979.524 476.94 980.336 478.368L983.724 476.548C982.632 474.084 980.14 472.712 976.976 472.712C972.076 472.712 968.576 475.932 968.576 480.468C968.576 485.004 972.076 488.224 976.976 488.224ZM992.315 472.712C989.907 472.712 987.471 473.356 985.819 474.532L987.387 477.584C988.479 476.716 990.131 476.184 991.727 476.184C994.079 476.184 995.199 477.276 995.199 479.152H991.727C987.135 479.152 985.259 481 985.259 483.66C985.259 486.264 987.359 488.224 990.887 488.224C993.099 488.224 994.667 487.496 995.479 486.124V488H999.567V479.404C999.567 474.84 996.907 472.712 992.315 472.712ZM991.979 485.284C990.439 485.284 989.515 484.556 989.515 483.464C989.515 482.456 990.159 481.7 992.203 481.7H995.199V483.24C994.695 484.612 993.435 485.284 991.979 485.284ZM1012.06 484.192C1011.58 484.556 1010.94 484.752 1010.3 484.752C1009.12 484.752 1008.42 484.052 1008.42 482.764V476.632H1012.17V473.272H1008.42V469.604H1004.05V473.272H1001.73V476.632H1004.05V482.82C1004.05 486.404 1006.12 488.224 1009.68 488.224C1011.02 488.224 1012.34 487.916 1013.24 487.272L1012.06 484.192ZM1017.87 470.836C1019.5 470.836 1020.59 469.772 1020.59 468.316C1020.59 466.972 1019.5 465.964 1017.87 465.964C1016.25 465.964 1015.16 467.028 1015.16 468.4C1015.16 469.772 1016.25 470.836 1017.87 470.836ZM1015.69 488H1020.06V472.936H1015.69V488ZM1031.28 488.224C1036.07 488.224 1039.54 485.004 1039.54 480.468C1039.54 475.932 1036.07 472.712 1031.28 472.712C1026.49 472.712 1022.99 475.932 1022.99 480.468C1022.99 485.004 1026.49 488.224 1031.28 488.224ZM1031.28 484.64C1029.09 484.64 1027.41 483.072 1027.41 480.468C1027.41 477.864 1029.09 476.296 1031.28 476.296C1033.46 476.296 1035.11 477.864 1035.11 480.468C1035.11 483.072 1033.46 484.64 1031.28 484.64ZM1051.61 472.712C1049.57 472.712 1047.81 473.412 1046.63 474.7V472.936H1042.46V488H1046.83V480.552C1046.83 477.78 1048.34 476.492 1050.44 476.492C1052.37 476.492 1053.49 477.612 1053.49 480.048V488H1057.86V479.376C1057.86 474.784 1055.17 472.712 1051.61 472.712Z" fill="#57E4C2"/>
<path d="M791.3 535L791.282 522.4H789.806L784.622 531.256L779.366 522.4H777.89V535H779.618V525.874L784.172 533.47H785L789.554 525.82L789.572 535H791.3ZM798.303 525.37C796.773 525.37 795.351 525.802 794.361 526.594L795.081 527.89C795.819 527.26 796.971 526.864 798.105 526.864C799.815 526.864 800.661 527.71 800.661 529.168V529.51H797.925C795.081 529.51 794.091 530.77 794.091 532.3C794.091 533.956 795.459 535.108 797.619 535.108C799.113 535.108 800.175 534.604 800.751 533.74V535H802.389V529.24C802.389 526.63 800.913 525.37 798.303 525.37ZM797.907 533.776C796.593 533.776 795.801 533.182 795.801 532.228C795.801 531.418 796.287 530.752 797.997 530.752H800.661V532.084C800.229 533.182 799.203 533.776 797.907 533.776ZM810.411 533.2C810.051 533.488 809.565 533.65 809.061 533.65C808.107 533.65 807.567 533.074 807.567 532.048V526.882H810.303V525.46H807.567V523.372H805.839V525.46H804.219V526.882H805.839V532.12C805.839 534.046 806.937 535.108 808.863 535.108C809.637 535.108 810.429 534.892 810.951 534.442L810.411 533.2ZM814.696 527.062V525.46H813.04V535H814.768V530.248C814.768 528.16 815.92 527.026 817.774 527.026C817.9 527.026 818.026 527.026 818.17 527.044V525.37C816.496 525.37 815.308 525.946 814.696 527.062ZM821.164 523.624C821.848 523.624 822.334 523.12 822.334 522.472C822.334 521.86 821.83 521.374 821.164 521.374C820.498 521.374 819.994 521.878 819.994 522.508C819.994 523.138 820.498 523.624 821.164 523.624ZM820.3 535H822.028V525.46H820.3V535ZM829.485 535.108C831.195 535.108 832.617 534.388 833.373 533.056L832.059 532.228C831.447 533.164 830.511 533.596 829.467 533.596C827.595 533.596 826.191 532.3 826.191 530.23C826.191 528.196 827.595 526.882 829.467 526.882C830.511 526.882 831.447 527.314 832.059 528.25L833.373 527.404C832.617 526.072 831.195 525.37 829.485 525.37C826.551 525.37 824.445 527.386 824.445 530.23C824.445 533.074 826.551 535.108 829.485 535.108ZM842.775 525.46V530.392C842.775 532.444 841.623 533.56 839.823 533.56C838.185 533.56 837.249 532.624 837.249 530.752V525.46H835.521V530.95C835.521 533.758 837.159 535.108 839.625 535.108C840.975 535.108 842.163 534.55 842.865 533.56V535H844.503V525.46H842.775ZM847.792 535H849.52V521.644H847.792V535ZM861.442 530.284C861.442 527.35 859.48 525.37 856.726 525.37C853.972 525.37 851.938 527.404 851.938 530.23C851.938 533.074 853.99 535.108 857.068 535.108C858.652 535.108 859.966 534.568 860.83 533.56L859.876 532.444C859.174 533.218 858.238 533.596 857.122 533.596C855.232 533.596 853.882 532.48 853.666 530.806H861.406C861.424 530.644 861.442 530.428 861.442 530.284ZM856.726 526.828C858.4 526.828 859.606 527.962 859.786 529.564H853.666C853.846 527.944 855.07 526.828 856.726 526.828ZM869.089 527.836C869.737 527.836 870.277 527.314 870.277 526.594C870.277 525.874 869.737 525.37 869.089 525.37C868.423 525.37 867.865 525.874 867.865 526.594C867.865 527.314 868.423 527.836 869.089 527.836ZM869.089 535.108C869.737 535.108 870.277 534.586 870.277 533.866C870.277 533.146 869.737 532.642 869.089 532.642C868.423 532.642 867.865 533.146 867.865 533.866C867.865 534.586 868.423 535.108 869.089 535.108Z" fill="#004348"/>
<rect x="776.5" y="550.5" width="367" height="34" rx="4.5" fill="#F6F9FC" stroke="#E8EFF7"/>
<path d="M791.3 622L791.282 609.4H789.806L784.622 618.256L779.366 609.4H777.89V622H779.618V612.874L784.172 620.47H785L789.554 612.82L789.572 622H791.3ZM798.915 622.108C801.777 622.108 803.865 620.074 803.865 617.23C803.865 614.386 801.777 612.37 798.915 612.37C796.053 612.37 793.947 614.386 793.947 617.23C793.947 620.074 796.053 622.108 798.915 622.108ZM798.915 620.596C797.079 620.596 795.693 619.264 795.693 617.23C795.693 615.196 797.079 613.882 798.915 613.882C800.751 613.882 802.119 615.196 802.119 617.23C802.119 619.264 800.751 620.596 798.915 620.596ZM811.079 620.2C810.719 620.488 810.233 620.65 809.729 620.65C808.775 620.65 808.235 620.074 808.235 619.048V613.882H810.971V612.46H808.235V610.372H806.507V612.46H804.887V613.882H806.507V619.12C806.507 621.046 807.605 622.108 809.531 622.108C810.305 622.108 811.097 621.892 811.619 621.442L811.079 620.2ZM825.814 608.644V613.9C825.022 612.874 823.834 612.37 822.484 612.37C819.694 612.37 817.66 614.314 817.66 617.23C817.66 620.146 819.694 622.108 822.484 622.108C823.888 622.108 825.112 621.568 825.886 620.488V622H827.542V608.644H825.814ZM822.628 620.596C820.792 620.596 819.406 619.264 819.406 617.23C819.406 615.196 820.792 613.882 822.628 613.882C824.446 613.882 825.832 615.196 825.832 617.23C825.832 619.264 824.446 620.596 822.628 620.596ZM839.434 617.284C839.434 614.35 837.472 612.37 834.718 612.37C831.964 612.37 829.93 614.404 829.93 617.23C829.93 620.074 831.982 622.108 835.06 622.108C836.644 622.108 837.958 621.568 838.822 620.56L837.868 619.444C837.166 620.218 836.23 620.596 835.114 620.596C833.224 620.596 831.874 619.48 831.658 617.806H839.398C839.416 617.644 839.434 617.428 839.434 617.284ZM834.718 613.828C836.392 613.828 837.598 614.962 837.778 616.564H831.658C831.838 614.944 833.062 613.828 834.718 613.828ZM851.725 612.37C850.321 612.37 849.097 612.91 848.323 613.972V612.46H846.667V625.492H848.395V620.56C849.187 621.586 850.375 622.108 851.725 622.108C854.515 622.108 856.549 620.164 856.549 617.23C856.549 614.314 854.515 612.37 851.725 612.37ZM851.581 620.596C849.763 620.596 848.377 619.264 848.377 617.23C848.377 615.214 849.763 613.882 851.581 613.882C853.417 613.882 854.803 615.214 854.803 617.23C854.803 619.264 853.417 620.596 851.581 620.596ZM862.323 612.37C860.793 612.37 859.371 612.802 858.381 613.594L859.101 614.89C859.839 614.26 860.991 613.864 862.125 613.864C863.835 613.864 864.681 614.71 864.681 616.168V616.51H861.945C859.101 616.51 858.111 617.77 858.111 619.3C858.111 620.956 859.479 622.108 861.639 622.108C863.133 622.108 864.195 621.604 864.771 620.74V622H866.409V616.24C866.409 613.63 864.933 612.37 862.323 612.37ZM861.927 620.776C860.613 620.776 859.821 620.182 859.821 619.228C859.821 618.418 860.307 617.752 862.017 617.752H864.681V619.084C864.249 620.182 863.223 620.776 861.927 620.776ZM872.343 622.108C874.881 622.108 876.465 621.01 876.465 619.282C876.465 615.574 870.417 617.41 870.417 615.16C870.417 614.404 871.155 613.846 872.667 613.846C873.603 613.846 874.557 614.044 875.421 614.602L876.159 613.234C875.331 612.694 873.927 612.37 872.685 612.37C870.237 612.37 868.707 613.522 868.707 615.232C868.707 619.03 874.737 617.176 874.737 619.318C874.737 620.128 874.071 620.614 872.469 620.614C871.227 620.614 869.931 620.2 869.121 619.624L868.401 620.992C869.193 621.622 870.759 622.108 872.343 622.108ZM881.36 622.108C883.898 622.108 885.482 621.01 885.482 619.282C885.482 615.574 879.434 617.41 879.434 615.16C879.434 614.404 880.172 613.846 881.684 613.846C882.62 613.846 883.574 614.044 884.438 614.602L885.176 613.234C884.348 612.694 882.944 612.37 881.702 612.37C879.254 612.37 877.724 613.522 877.724 615.232C877.724 619.03 883.754 617.176 883.754 619.318C883.754 620.128 883.088 620.614 881.486 620.614C880.244 620.614 878.948 620.2 878.138 619.624L877.418 620.992C878.21 621.622 879.776 622.108 881.36 622.108ZM896.264 617.284C896.264 614.35 894.302 612.37 891.548 612.37C888.794 612.37 886.76 614.404 886.76 617.23C886.76 620.074 888.812 622.108 891.89 622.108C893.474 622.108 894.788 621.568 895.652 620.56L894.698 619.444C893.996 620.218 893.06 620.596 891.944 620.596C890.054 620.596 888.704 619.48 888.488 617.806H896.228C896.246 617.644 896.264 617.428 896.264 617.284ZM891.548 613.828C893.222 613.828 894.428 614.962 894.608 616.564H888.488C888.668 614.944 889.892 613.828 891.548 613.828ZM903.911 614.836C904.559 614.836 905.099 614.314 905.099 613.594C905.099 612.874 904.559 612.37 903.911 612.37C903.245 612.37 902.687 612.874 902.687 613.594C902.687 614.314 903.245 614.836 903.911 614.836ZM903.911 622.108C904.559 622.108 905.099 621.586 905.099 620.866C905.099 620.146 904.559 619.642 903.911 619.642C903.245 619.642 902.687 620.146 902.687 620.866C902.687 621.586 903.245 622.108 903.911 622.108Z" fill="#004348"/>
<rect x="776.5" y="637.5" width="367" height="34" rx="4.5" fill="#F6F9FC" stroke="#E8EFF7"/>
<rect x="894" y="692" width="132" height="44" rx="10" fill="#1FDBAE"/>
<path d="M934.692 720H943.62V718.02H937.032V707.4H934.692V720ZM949.484 720.126C952.472 720.126 954.614 718.074 954.614 715.194C954.614 712.314 952.472 710.28 949.484 710.28C946.532 710.28 944.372 712.314 944.372 715.194C944.372 718.074 946.532 720.126 949.484 720.126ZM949.484 718.2C947.864 718.2 946.64 717.03 946.64 715.194C946.64 713.358 947.864 712.188 949.484 712.188C951.122 712.188 952.346 713.358 952.346 715.194C952.346 717.03 951.122 718.2 949.484 718.2ZM964.163 710.388V711.666C963.371 710.712 962.183 710.28 960.833 710.28C958.079 710.28 955.973 712.116 955.973 714.906C955.973 717.696 958.079 719.568 960.833 719.568C962.129 719.568 963.263 719.154 964.055 718.29V718.794C964.055 720.738 963.119 721.71 960.995 721.71C959.663 721.71 958.295 721.26 957.449 720.558L956.441 722.25C957.539 723.15 959.321 723.618 961.121 723.618C964.487 723.618 966.305 722.034 966.305 718.542V710.388H964.163ZM961.175 717.66C959.465 717.66 958.241 716.544 958.241 714.906C958.241 713.286 959.465 712.188 961.175 712.188C962.867 712.188 964.091 713.286 964.091 714.906C964.091 716.544 962.867 717.66 961.175 717.66ZM970.397 708.804C971.243 708.804 971.837 708.192 971.837 707.4C971.837 706.662 971.225 706.104 970.397 706.104C969.569 706.104 968.957 706.698 968.957 707.454C968.957 708.21 969.569 708.804 970.397 708.804ZM969.263 720H971.513V710.388H969.263V720ZM979.92 710.28C978.516 710.28 977.346 710.748 976.608 711.63V710.388H974.466V720H976.716V715.14C976.716 713.214 977.796 712.242 979.398 712.242C980.838 712.242 981.684 713.07 981.684 714.78V720H983.934V714.492C983.934 711.594 982.224 710.28 979.92 710.28Z" fill="white"/>
</svg>
