<svg width="210" height="289" viewBox="0 0 210 289" fill="none" xmlns="http://www.w3.org/2000/svg">
<path d="M15.3554 140.448C-4.17085 120.922 -4.17088 89.2639 15.3553 69.7377L69.7376 15.3553C89.2639 -4.17086 120.922 -4.17086 140.448 15.3554L194.645 69.5517C214.171 89.0779 214.171 120.736 194.645 140.262L140.262 194.645C120.736 214.171 89.0779 214.171 69.5517 194.645L15.3554 140.448Z" fill="#1FDBAE"/>
<rect x="15.2771" y="104.982" width="127.385" height="127.196" rx="40" transform="rotate(-45 15.2771 104.982)" fill="#02A2AF"/>
<path d="M92.4358 72.6359C92.4358 67.113 96.9129 62.6359 102.436 62.6359H115.615C116.719 62.6359 117.615 63.5313 117.615 64.6359V137.195C117.615 142.718 113.137 147.195 107.615 147.195H94.4358C93.3312 147.195 92.4358 146.299 92.4358 145.195V72.6359Z" fill="white"/>
<path d="M137.305 92.3048C142.828 92.3048 147.305 96.782 147.305 102.305L147.305 115.484C147.305 116.588 146.409 117.484 145.305 117.484L72.7458 117.484C67.2229 117.484 62.7458 113.006 62.7458 107.484L62.7458 94.3048C62.7458 93.2002 63.6412 92.3048 64.7458 92.3048L137.305 92.3048Z" fill="white"/>
<path d="M30.344 239.4V245.736H21.272V273H14.648V245.736H5.624V239.4H30.344ZM47.7219 248.328C50.9539 248.328 53.7059 249.56 55.9779 252.024C58.2819 254.456 59.4339 257.448 59.4339 261C59.4339 264.552 58.2819 267.56 55.9779 270.024C53.7059 272.456 50.9539 273.672 47.7219 273.672C44.3619 273.672 41.7699 272.504 39.9459 270.168V273H33.7539V239.4H39.9459V251.832C41.7699 249.496 44.3619 248.328 47.7219 248.328ZM41.8179 265.896C43.0659 267.144 44.6499 267.768 46.5699 267.768C48.4899 267.768 50.0739 267.144 51.3219 265.896C52.6019 264.616 53.2419 262.984 53.2419 261C53.2419 259.016 52.6019 257.4 51.3219 256.152C50.0739 254.872 48.4899 254.232 46.5699 254.232C44.6499 254.232 43.0659 254.872 41.8179 256.152C40.5699 257.4 39.9459 259.016 39.9459 261C39.9459 262.984 40.5699 264.616 41.8179 265.896ZM69.0328 263.544C69.8648 266.552 72.1208 268.056 75.8008 268.056C78.1688 268.056 79.9608 267.256 81.1768 265.656L86.1688 268.536C83.8008 271.96 80.3128 273.672 75.7048 273.672C71.7368 273.672 68.5528 272.472 66.1528 270.072C63.7528 267.672 62.5527 264.648 62.5527 261C62.5527 257.384 63.7368 254.376 66.1048 251.976C68.4728 249.544 71.5128 248.328 75.2248 248.328C78.7448 248.328 81.6408 249.544 83.9128 251.976C86.2168 254.408 87.3688 257.416 87.3688 261C87.3688 261.8 87.2888 262.648 87.1288 263.544H69.0328ZM68.9368 258.744H81.1768C80.8248 257.112 80.0888 255.896 78.9688 255.096C77.8808 254.296 76.6328 253.896 75.2248 253.896C73.5608 253.896 72.1848 254.328 71.0968 255.192C70.0088 256.024 69.2888 257.208 68.9368 258.744ZM105.659 248.328C108.891 248.328 111.643 249.56 113.915 252.024C116.219 254.456 117.371 257.448 117.371 261C117.371 264.552 116.219 267.56 113.915 270.024C111.643 272.456 108.891 273.672 105.659 273.672C102.299 273.672 99.7074 272.504 97.8834 270.168V273H91.6914V239.4H97.8834V251.832C99.7074 249.496 102.299 248.328 105.659 248.328ZM99.7554 265.896C101.003 267.144 102.587 267.768 104.507 267.768C106.427 267.768 108.011 267.144 109.259 265.896C110.539 264.616 111.179 262.984 111.179 261C111.179 259.016 110.539 257.4 109.259 256.152C108.011 254.872 106.427 254.232 104.507 254.232C102.587 254.232 101.003 254.872 99.7554 256.152C98.5074 257.4 97.8834 259.016 97.8834 261C97.8834 262.984 98.5074 264.616 99.7554 265.896ZM122.026 261.48V255.528H140.026V261.48H122.026ZM152.885 266.664H165.701V273H146.261V239.4H152.885V266.664ZM172.248 246.12C171.224 246.12 170.328 245.752 169.56 245.016C168.824 244.248 168.456 243.352 168.456 242.328C168.456 241.304 168.824 240.408 169.56 239.64C170.328 238.872 171.224 238.488 172.248 238.488C173.304 238.488 174.2 238.872 174.936 239.64C175.704 240.408 176.088 241.304 176.088 242.328C176.088 243.352 175.704 244.248 174.936 245.016C174.2 245.752 173.304 246.12 172.248 246.12ZM169.176 273V249H175.368V273H169.176ZM203.163 273H195.963L187.227 262.104V273H181.035V239.4H187.227V259.56L195.483 249H202.875L193.227 260.856L203.163 273Z" fill="#1FDBAE"/>
</svg>
