<svg width="118" height="36" viewBox="0 0 118 36" fill="none" xmlns="http://www.w3.org/2000/svg">
<rect width="11.2" height="35" rx="5.6" transform="matrix(1 0 0 -1 9.80005 35)" fill="#D2D6DB"/>
<rect width="11.2" height="11.2" rx="5.6" transform="matrix(0 -1 -1 0 21 11.2)" fill="#EBEBEC"/>
<path d="M9.80005 5.6C9.80005 2.5072 12.3073 0 15.4 0H21V5.6C21 8.6928 18.4928 11.2 15.4 11.2H9.80005V5.6Z" fill="#F1F1F2" fill-opacity="0.75"/>
<rect width="21" height="21" rx="5.6" transform="matrix(1 0 0 -1 0 35)" fill="#676878"/>
<rect width="11.2" height="11.2" rx="4.2" transform="matrix(1 0 0 -1 0 35)" fill="#D2D6DB"/>
<path d="M36.4111 33.8896C35.7839 34.4048 35.0335 34.808 34.1599 35.0992C33.3087 35.3904 32.4351 35.536 31.5391 35.536C30.0383 35.536 28.7055 35.2336 27.5407 34.6288C26.3983 34.024 25.5023 33.1728 24.8527 32.0752C24.2255 30.9552 23.9119 29.6672 23.9119 28.2112C23.9119 26.7776 24.2479 25.512 24.9199 24.4144C25.5919 23.2944 26.4879 22.432 27.6079 21.8272C28.7279 21.2224 29.9375 20.92 31.2367 20.92C33.3647 20.92 35.1231 21.5024 36.5119 22.6672L34.9327 24.7168C34.4847 24.3808 33.9695 24.1008 33.3871 23.8768C32.8047 23.6304 32.1775 23.5072 31.5055 23.5072C30.6767 23.5072 29.9151 23.72 29.2207 24.1456C28.5487 24.5488 28.0111 25.1088 27.6079 25.8256C27.2271 26.5424 27.0367 27.3376 27.0367 28.2112C27.0367 29.0848 27.2383 29.88 27.6415 30.5968C28.0671 31.3136 28.6383 31.8848 29.3551 32.3104C30.0719 32.736 30.8895 32.9488 31.8079 32.9488C32.9503 32.9488 33.9471 32.6128 34.7983 31.9408L36.4111 33.8896ZM39.5713 28.1104C39.5713 26.744 39.8961 25.5008 40.5457 24.3808C41.2177 23.2384 42.1361 22.3424 43.3009 21.6928C44.4881 21.0432 45.8209 20.7184 47.2993 20.7184C48.7777 20.7184 50.0881 21.0432 51.2305 21.6928C52.3953 22.3424 53.2913 23.2272 53.9185 24.3472C54.5681 25.4672 54.8929 26.7216 54.8929 28.1104C54.8929 29.4992 54.5681 30.7648 53.9185 31.9072C53.2913 33.0272 52.3953 33.912 51.2305 34.5616C50.0657 35.2112 48.7329 35.536 47.2321 35.536C45.7761 35.536 44.4657 35.2336 43.3009 34.6288C42.1361 34.0016 41.2177 33.128 40.5457 32.008C39.8961 30.888 39.5713 29.5888 39.5713 28.1104ZM42.7297 28.144C42.7297 29.0176 42.9201 29.824 43.3009 30.5632C43.7041 31.3024 44.2417 31.8848 44.9137 32.3104C45.6081 32.736 46.3697 32.9488 47.1985 32.9488C48.4977 32.9488 49.5729 32.4896 50.4241 31.5712C51.2753 30.6528 51.7009 29.5104 51.7009 28.144C51.7009 26.7776 51.2753 25.6352 50.4241 24.7168C49.5729 23.776 48.4977 23.3056 47.1985 23.3056C46.3473 23.3056 45.5857 23.5296 44.9137 23.9776C44.2417 24.4032 43.7041 24.9856 43.3009 25.7248C42.9201 26.464 42.7297 27.2704 42.7297 28.144ZM68.0615 20.752C69.3607 20.752 70.4359 21.144 71.2871 21.928C72.1383 22.6896 72.5751 23.6864 72.5975 24.9184V35.2H69.4391V25.9936C69.3943 25.2096 69.1591 24.5936 68.7335 24.1456C68.3079 23.6976 67.6695 23.4624 66.8183 23.44C65.5863 23.44 64.5671 23.9328 63.7607 24.9184C62.9543 25.904 62.5511 27.1584 62.5511 28.6816V35.2H59.4263V21.2896H62.2487L62.4503 23.9776C62.9431 22.9696 63.6823 22.1856 64.6679 21.6256C65.6535 21.0432 66.7847 20.752 68.0615 20.752ZM81.459 9.16001V35.2H78.3342V9.16001H81.459ZM100.17 21.2896V35.2H97.3478L97.1462 32.5456C96.6758 33.4864 95.9478 34.2592 94.9622 34.864C93.9766 35.4464 92.879 35.7376 91.6694 35.7376C90.3926 35.7376 89.3398 35.3568 88.511 34.5952C87.7046 33.8112 87.279 32.8032 87.2342 31.5712V21.2896H90.359V30.4624C90.4038 31.2464 90.6278 31.8736 91.031 32.344C91.4566 32.792 92.0838 33.0272 92.9126 33.0496C93.6742 33.0496 94.3686 32.8256 94.9958 32.3776C95.623 31.9072 96.1158 31.2688 96.4742 30.4624C96.855 29.656 97.0454 28.76 97.0454 27.7744V21.2896H100.17ZM109.876 35.5024C108.846 35.5024 107.86 35.3232 106.92 34.9648C106.001 34.6064 105.251 34.08 104.668 33.3856L106.012 31.5712C106.572 32.1088 107.155 32.5232 107.76 32.8144C108.387 33.1056 109.003 33.2512 109.608 33.2512C110.347 33.2512 110.952 33.1056 111.422 32.8144C111.892 32.5232 112.128 32.0752 112.128 31.4704C112.128 31 111.982 30.6192 111.691 30.328C111.4 30.0368 111.064 29.824 110.683 29.6896C110.324 29.5552 109.708 29.3536 108.835 29.0848C106.46 28.3232 105.273 26.968 105.273 25.0192C105.273 23.8544 105.699 22.8576 106.55 22.0288C107.424 21.2 108.633 20.7856 110.179 20.7856C111.164 20.7856 112.038 20.9088 112.8 21.1552C113.561 21.4016 114.267 21.7936 114.916 22.3312L113.673 24.2464C113.315 23.8656 112.856 23.5632 112.296 23.3392C111.758 23.1152 111.243 22.992 110.75 22.9696C110.123 22.9696 109.585 23.1264 109.137 23.44C108.689 23.7312 108.465 24.1344 108.465 24.6496C108.465 25.0752 108.611 25.4336 108.902 25.7248C109.193 25.9936 109.496 26.1952 109.809 26.3296C110.123 26.4416 110.739 26.6432 111.657 26.9344C112.8 27.3152 113.684 27.808 114.312 28.4128C114.961 29.0176 115.286 29.8352 115.286 30.8656C115.286 32.2096 114.816 33.3184 113.875 34.192C112.934 35.0656 111.601 35.5024 109.876 35.5024Z" fill="#676878"/>
</svg>
