<?xml version="1.0" encoding="UTF-8"?>
<svg xmlns="http://www.w3.org/2000/svg" xmlns:xlink="http://www.w3.org/1999/xlink" width="300pt" height="257pt" viewBox="0 0 300 257" version="1.1">
<defs>
<filter id="alpha" filterUnits="objectBoundingBox" x="0%" y="0%" width="100%" height="100%">
  <feColorMatrix type="matrix" in="SourceGraphic" values="0 0 0 0 1 0 0 0 0 1 0 0 0 0 1 0 0 0 1 0"/>
</filter>
<mask id="mask0">
  <g filter="url(#alpha)">
<rect x="0" y="0" width="300" height="257" style="fill:rgb(0%,0%,0%);fill-opacity:0.180392;stroke:none;"/>
  </g>
</mask>
<clipPath id="clip1">
  <rect x="0" y="0" width="300" height="257"/>
</clipPath>
<g id="surface5" clip-path="url(#clip1)">
<path style=" stroke:none;fill-rule:nonzero;fill:rgb(12.156863%,85.882353%,68.235294%);fill-opacity:1;" d="M 23.242188 204.039062 C 23.242188 204.039062 -5.054688 189.992188 0.785156 153.726562 C 6.625 117.460938 63.894531 85.839844 86.375 62.121094 C 108.859375 38.40625 132.152344 -2.363281 192.382812 0.128906 C 252.613281 2.621094 251.800781 43.050781 280.054688 57.789062 C 308.308594 72.523438 281.714844 123.734375 284.210938 135.992188 C 286.703125 148.253906 318.589844 185.300781 280.210938 210.886719 C 241.828125 236.472656 23.242188 204.039062 23.242188 204.039062 Z M 23.242188 204.039062 "/>
</g>
<linearGradient id="linear0" gradientUnits="userSpaceOnUse" x1="401.65" y1="531.54" x2="412.84" y2="766.45" gradientTransform="matrix(0.429301,0,0,0.429883,-22.825947,0.0209468)">
<stop offset="0" style="stop-color:rgb(0%,0%,0%);stop-opacity:0;"/>
<stop offset="0.97" style="stop-color:rgb(0%,0%,0%);stop-opacity:1;"/>
</linearGradient>
<linearGradient id="linear1" gradientUnits="userSpaceOnUse" x1="343.73" y1="-19.89" x2="352.93" y2="557.12" gradientTransform="matrix(0.429301,0,0,0.429883,0,0.0209468)">
<stop offset="0" style="stop-color:rgb(100%,100%,100%);stop-opacity:1;"/>
<stop offset="1" style="stop-color:rgb(100%,100%,100%);stop-opacity:0;"/>
</linearGradient>
<linearGradient id="linear2" gradientUnits="userSpaceOnUse" x1="347.72" y1="229.94" x2="317.85" y2="238.37" gradientTransform="matrix(0.429301,0,0,0.429883,-22.825947,0.0209468)">
<stop offset="0" style="stop-color:rgb(92.54902%,76.862745%,84.313725%);stop-opacity:1;"/>
<stop offset="0.42" style="stop-color:rgb(93.72549%,83.137255%,81.960784%);stop-opacity:1;"/>
<stop offset="1" style="stop-color:rgb(94.901961%,91.764706%,78.823529%);stop-opacity:1;"/>
</linearGradient>
<linearGradient id="linear3" gradientUnits="userSpaceOnUse" x1="187.08" y1="72.58" x2="175.47" y2="306.81" gradientTransform="matrix(0.429301,0,0,0.429883,0,0.0209468)">
<stop offset="0" style="stop-color:rgb(100%,100%,100%);stop-opacity:1;"/>
<stop offset="1" style="stop-color:rgb(100%,100%,100%);stop-opacity:0;"/>
</linearGradient>
<linearGradient id="linear4" gradientUnits="userSpaceOnUse" x1="254.98" y1="145.35" x2="260.59" y2="145.35" gradientTransform="matrix(0.429301,0,0,0.429883,-22.825947,0.0209468)">
<stop offset="0" style="stop-color:rgb(92.54902%,76.862745%,84.313725%);stop-opacity:1;"/>
<stop offset="0.42" style="stop-color:rgb(93.72549%,83.137255%,81.960784%);stop-opacity:1;"/>
<stop offset="1" style="stop-color:rgb(94.901961%,91.764706%,78.823529%);stop-opacity:1;"/>
</linearGradient>
<linearGradient id="linear5" gradientUnits="userSpaceOnUse" x1="211.53" y1="146.59" x2="219.07" y2="146.59" gradientTransform="matrix(0.429301,0,0,0.429883,-22.825947,0.0209468)">
<stop offset="0" style="stop-color:rgb(92.54902%,76.862745%,84.313725%);stop-opacity:1;"/>
<stop offset="0.42" style="stop-color:rgb(93.72549%,83.137255%,81.960784%);stop-opacity:1;"/>
<stop offset="1" style="stop-color:rgb(94.901961%,91.764706%,78.823529%);stop-opacity:1;"/>
</linearGradient>
<linearGradient id="linear6" gradientUnits="userSpaceOnUse" x1="215.55" y1="147.29" x2="214.69" y2="151.2" gradientTransform="matrix(0.429301,0,0,0.429883,-22.825947,0.0209468)">
<stop offset="0" style="stop-color:rgb(92.54902%,76.862745%,84.313725%);stop-opacity:1;"/>
<stop offset="0.42" style="stop-color:rgb(93.72549%,83.137255%,81.960784%);stop-opacity:1;"/>
<stop offset="1" style="stop-color:rgb(94.901961%,91.764706%,78.823529%);stop-opacity:1;"/>
</linearGradient>
<linearGradient id="linear7" gradientUnits="userSpaceOnUse" x1="1035.91" y1="145.99" x2="1035.06" y2="149.9" gradientTransform="matrix(-0.429301,0,0,0.429883,532.144646,0.0209468)">
<stop offset="0" style="stop-color:rgb(92.54902%,76.862745%,84.313725%);stop-opacity:1;"/>
<stop offset="0.42" style="stop-color:rgb(93.72549%,83.137255%,81.960784%);stop-opacity:1;"/>
<stop offset="1" style="stop-color:rgb(94.901961%,91.764706%,78.823529%);stop-opacity:1;"/>
</linearGradient>
<linearGradient id="linear8" gradientUnits="userSpaceOnUse" x1="344.61" y1="225.29" x2="482.94" y2="225.29" gradientTransform="matrix(0.429301,0,0,0.429883,-22.825947,0.0209468)">
<stop offset="0" style="stop-color:rgb(92.54902%,76.862745%,84.313725%);stop-opacity:1;"/>
<stop offset="0.42" style="stop-color:rgb(93.72549%,83.137255%,81.960784%);stop-opacity:1;"/>
<stop offset="1" style="stop-color:rgb(94.901961%,91.764706%,78.823529%);stop-opacity:1;"/>
</linearGradient>
<linearGradient id="linear9" gradientUnits="userSpaceOnUse" x1="410.4" y1="309.41" x2="407.64" y2="637.47" gradientTransform="matrix(0.429301,0,0,0.429883,-22.825947,0.0209468)">
<stop offset="0" style="stop-color:rgb(0%,0%,0%);stop-opacity:0;"/>
<stop offset="0.97" style="stop-color:rgb(0%,0%,0%);stop-opacity:1;"/>
</linearGradient>
<linearGradient id="linear10" gradientUnits="userSpaceOnUse" x1="543.37" y1="340.22" x2="513.15" y2="518.27" gradientTransform="matrix(0.429301,0,0,0.429883,0,0.0209468)">
<stop offset="0" style="stop-color:rgb(0%,0%,0%);stop-opacity:0;"/>
<stop offset="0.97" style="stop-color:rgb(0%,0%,0%);stop-opacity:1;"/>
</linearGradient>
<linearGradient id="linear11" gradientUnits="userSpaceOnUse" x1="532.19" y1="250.07" x2="645.19" y2="250.07" gradientTransform="matrix(0.429301,0,0,0.429883,-22.825947,0.0209468)">
<stop offset="0" style="stop-color:rgb(92.54902%,76.862745%,84.313725%);stop-opacity:1;"/>
<stop offset="0.42" style="stop-color:rgb(93.72549%,83.137255%,81.960784%);stop-opacity:1;"/>
<stop offset="1" style="stop-color:rgb(94.901961%,91.764706%,78.823529%);stop-opacity:1;"/>
</linearGradient>
<linearGradient id="linear12" gradientUnits="userSpaceOnUse" x1="234" y1="169.8" x2="237.72" y2="186.95" gradientTransform="matrix(0.429301,0,0,0.429883,-22.825947,0.0209468)">
<stop offset="0" style="stop-color:rgb(92.54902%,76.862745%,84.313725%);stop-opacity:1;"/>
<stop offset="0.42" style="stop-color:rgb(93.72549%,83.137255%,81.960784%);stop-opacity:1;"/>
<stop offset="1" style="stop-color:rgb(94.901961%,91.764706%,78.823529%);stop-opacity:1;"/>
</linearGradient>
<linearGradient id="linear13" gradientUnits="userSpaceOnUse" x1="225.86" y1="118.14" x2="245.01" y2="153.58" gradientTransform="matrix(0.429301,0,0,0.429883,-22.825947,0.0209468)">
<stop offset="0" style="stop-color:rgb(92.54902%,76.862745%,84.313725%);stop-opacity:1;"/>
<stop offset="0.42" style="stop-color:rgb(93.72549%,83.137255%,81.960784%);stop-opacity:1;"/>
<stop offset="1" style="stop-color:rgb(94.901961%,91.764706%,78.823529%);stop-opacity:1;"/>
</linearGradient>
<linearGradient id="linear14" gradientUnits="userSpaceOnUse" x1="485.39" y1="284.89" x2="396.05" y2="582.01" gradientTransform="matrix(0.429301,0,0,0.429883,-22.825947,0.0209468)">
<stop offset="0" style="stop-color:rgb(100%,100%,100%);stop-opacity:1;"/>
<stop offset="0.89" style="stop-color:rgb(100%,100%,100%);stop-opacity:0;"/>
</linearGradient>
<linearGradient id="linear15" gradientUnits="userSpaceOnUse" x1="344.74" y1="399.82" x2="343.8" y2="636.59" gradientTransform="matrix(0.429301,0,0,0.429883,0,0.0209468)">
<stop offset="0" style="stop-color:rgb(0%,0%,0%);stop-opacity:0;"/>
<stop offset="0.97" style="stop-color:rgb(0%,0%,0%);stop-opacity:1;"/>
</linearGradient>
<linearGradient id="linear16" gradientUnits="userSpaceOnUse" x1="349.95" y1="295.4" x2="344.36" y2="551.75" gradientTransform="matrix(0.429301,0,0,0.429883,0,0.0209468)">
<stop offset="0" style="stop-color:rgb(100%,100%,100%);stop-opacity:1;"/>
<stop offset="0.6" style="stop-color:rgb(100%,100%,100%);stop-opacity:0.478431;"/>
<stop offset="0.87" style="stop-color:rgb(100%,100%,100%);stop-opacity:0.129412;"/>
<stop offset="1" style="stop-color:rgb(100%,100%,100%);stop-opacity:0;"/>
</linearGradient>
<linearGradient id="linear17" gradientUnits="userSpaceOnUse" x1="348.28" y1="399.83" x2="347.35" y2="636.61" gradientTransform="matrix(0.429301,0,0,0.429883,0,0.0209468)">
<stop offset="0" style="stop-color:rgb(0%,0%,0%);stop-opacity:0;"/>
<stop offset="0.97" style="stop-color:rgb(0%,0%,0%);stop-opacity:1;"/>
</linearGradient>
<linearGradient id="linear18" gradientUnits="userSpaceOnUse" x1="353.65" y1="306.57" x2="348.05" y2="562.93" gradientTransform="matrix(0.429301,0,0,0.429883,0,0.0209468)">
<stop offset="0" style="stop-color:rgb(100%,100%,100%);stop-opacity:1;"/>
<stop offset="1" style="stop-color:rgb(100%,100%,100%);stop-opacity:0;"/>
</linearGradient>
<linearGradient id="linear19" gradientUnits="userSpaceOnUse" x1="359.05" y1="455.76" x2="348.79" y2="798.8" gradientTransform="matrix(0.429301,0,0,0.429883,0,0.0209468)">
<stop offset="0" style="stop-color:rgb(0%,0%,0%);stop-opacity:0;"/>
<stop offset="0.97" style="stop-color:rgb(0%,0%,0%);stop-opacity:1;"/>
</linearGradient>
<linearGradient id="linear20" gradientUnits="userSpaceOnUse" x1="1368" y1="235.8" x2="1338.13" y2="244.23" gradientTransform="matrix(-0.429301,0,0,0.429883,767.929766,0.0209468)">
<stop offset="0" style="stop-color:rgb(92.54902%,76.862745%,84.313725%);stop-opacity:1;"/>
<stop offset="0.42" style="stop-color:rgb(93.72549%,83.137255%,81.960784%);stop-opacity:1;"/>
<stop offset="1" style="stop-color:rgb(94.901961%,91.764706%,78.823529%);stop-opacity:1;"/>
</linearGradient>
<linearGradient id="linear21" gradientUnits="userSpaceOnUse" x1="394.52" y1="313.84" x2="371.37" y2="464.33" gradientTransform="matrix(0.429301,0,0,0.429883,-22.825947,0.0209468)">
<stop offset="0" style="stop-color:rgb(92.54902%,76.862745%,84.313725%);stop-opacity:1;"/>
<stop offset="0.42" style="stop-color:rgb(93.72549%,83.137255%,81.960784%);stop-opacity:1;"/>
<stop offset="1" style="stop-color:rgb(94.901961%,91.764706%,78.823529%);stop-opacity:1;"/>
</linearGradient>
<linearGradient id="linear22" gradientUnits="userSpaceOnUse" x1="593.46" y1="245.74" x2="660.05" y2="341.21" gradientTransform="matrix(0.429301,0,0,0.429883,-22.825947,0.0209468)">
<stop offset="0" style="stop-color:rgb(92.54902%,76.862745%,84.313725%);stop-opacity:1;"/>
<stop offset="0.42" style="stop-color:rgb(93.72549%,83.137255%,81.960784%);stop-opacity:1;"/>
<stop offset="1" style="stop-color:rgb(94.901961%,91.764706%,78.823529%);stop-opacity:1;"/>
</linearGradient>
</defs>
<g id="surface1">
<use xlink:href="#surface5" mask="url(#mask0)"/>
<path style=" stroke:none;fill-rule:nonzero;fill:rgb(12.156863%,85.882353%,68.235294%);fill-opacity:1;" d="M 0.785156 239.855469 L 0.785156 250.605469 C 0.785156 250.605469 2.152344 257.332031 14.667969 256.960938 C 27.1875 256.59375 291.859375 256.960938 291.859375 256.960938 C 291.859375 256.960938 298.636719 255.855469 299.988281 250.328125 L 299.988281 239.855469 Z M 0.785156 239.855469 "/>
<path style=" stroke:none;fill-rule:nonzero;fill:url(#linear0);" d="M 0.785156 239.855469 L 0.785156 250.605469 C 0.785156 250.605469 2.152344 257.332031 14.667969 256.960938 C 27.1875 256.59375 291.859375 256.960938 291.859375 256.960938 C 291.859375 256.960938 298.636719 255.855469 299.988281 250.328125 L 299.988281 239.855469 Z M 0.785156 239.855469 "/>
<path style=" stroke:none;fill-rule:nonzero;fill:rgb(12.156863%,85.882353%,68.235294%);fill-opacity:1;" d="M 261.960938 186.214844 L 35.085938 186.214844 C 29.710938 186.214844 25.355469 181.855469 25.355469 176.894531 L 25.355469 37.914062 C 25.355469 32.113281 29.710938 27.75 35.085938 27.75 L 261.960938 27.75 C 267.328125 27.757812 271.675781 32.117188 271.675781 37.492188 L 271.675781 176.476562 C 271.675781 181.851562 267.328125 186.207031 261.960938 186.214844 Z M 261.960938 186.214844 "/>
<path style=" stroke:none;fill-rule:nonzero;fill:rgb(12.156863%,85.882353%,68.235294%);fill-opacity:1;" d="M 40.136719 33.480469 L 256.8125 33.480469 C 261.816406 33.480469 265.871094 37.539062 265.871094 42.550781 L 265.871094 168.527344 C 265.871094 173.535156 261.816406 177.597656 256.8125 177.597656 L 40.136719 177.597656 C 35.132812 177.597656 31.078125 173.535156 31.078125 168.527344 L 31.078125 42.550781 C 31.078125 37.539062 35.132812 33.480469 40.136719 33.480469 Z M 40.136719 33.480469 "/>
<path style=" stroke:none;fill-rule:nonzero;fill:url(#linear1);" d="M 41.042969 33.480469 L 257.71875 33.480469 C 262.722656 33.480469 266.777344 37.539062 266.777344 42.550781 L 266.777344 168.527344 C 266.777344 173.535156 262.722656 177.597656 257.71875 177.597656 L 41.042969 177.597656 C 36.039062 177.597656 31.984375 173.535156 31.984375 168.527344 L 31.984375 42.550781 C 31.984375 37.539062 36.039062 33.480469 41.042969 33.480469 Z M 41.042969 33.480469 "/>
<path style=" stroke:none;fill-rule:nonzero;fill:url(#linear2);" d="M 125.773438 95.425781 C 125.773438 95.425781 122.910156 91.851562 120.574219 94.800781 C 118.238281 97.75 121.710938 104.75 127.21875 104.875 C 132.726562 105 125.773438 95.425781 125.773438 95.425781 Z M 125.773438 95.425781 "/>
<path style=" stroke:none;fill-rule:nonzero;fill:url(#linear3);" d="M 46.152344 45.101562 L 110.574219 45.101562 L 110.574219 96.15625 L 46.152344 96.15625 Z M 46.152344 45.101562 "/>
<path style=" stroke:none;fill-rule:nonzero;fill:url(#linear4);" d="M 89.007812 61.277344 C 89.066406 61.574219 89.054688 61.878906 88.96875 62.164062 C 88.855469 62.691406 88.621094 63.183594 88.285156 63.601562 C 87.941406 64.019531 87.433594 64.269531 86.890625 64.289062 C 86.816406 64.296875 86.742188 64.269531 86.6875 64.214844 C 86.660156 64.171875 86.644531 64.125 86.644531 64.074219 C 86.613281 63.273438 86.574219 62.0625 87.074219 61.390625 C 87.539062 60.816406 88.730469 60.273438 89.007812 61.277344 Z M 89.007812 61.277344 "/>
<path style=" stroke:none;fill-rule:nonzero;fill:url(#linear5);" d="M 68.613281 61.234375 C 68.210938 61.476562 67.96875 61.914062 67.984375 62.382812 C 67.964844 62.863281 68.117188 63.335938 68.414062 63.710938 C 68.675781 64.015625 68.984375 64.273438 69.332031 64.472656 C 69.742188 64.785156 70.230469 64.976562 70.742188 65.027344 C 70.882812 65.042969 71.027344 64.992188 71.125 64.886719 C 71.1875 64.796875 71.214844 64.691406 71.207031 64.585938 C 71.257812 63.347656 70.625 60.261719 68.613281 61.234375 Z M 68.613281 61.234375 "/>
<path style=" stroke:none;fill-rule:nonzero;fill:url(#linear6);" d="M 70.445312 63.402344 C 70.113281 63.453125 69.777344 63.3125 69.585938 63.039062 C 69.269531 62.582031 69.15625 62.027344 68.726562 62.273438 C 68.296875 62.515625 68.578125 63.449219 68.941406 63.960938 C 69.304688 64.472656 70.511719 64.859375 70.71875 64.511719 C 70.925781 64.164062 70.445312 63.402344 70.445312 63.402344 Z M 70.445312 63.402344 "/>
<path style=" stroke:none;fill-rule:nonzero;fill:url(#linear7);" d="M 86.691406 62.84375 C 87.019531 62.894531 87.34375 62.75 87.53125 62.480469 C 87.851562 62.023438 87.960938 61.46875 88.390625 61.71875 C 88.816406 61.96875 88.542969 62.890625 88.175781 63.402344 C 87.804688 63.914062 86.605469 64.304688 86.402344 63.953125 C 86.195312 63.601562 86.691406 62.84375 86.691406 62.84375 Z M 86.691406 62.84375 "/>
<path style="fill:none;stroke-width:0.74;stroke-linecap:butt;stroke-linejoin:miter;stroke:rgb(42.352941%,38.431373%,100%);stroke-opacity:1;stroke-miterlimit:10;" d="M 258.863996 413.081742 L 260.683813 413.081742 C 259.628319 415.117181 258.863996 413.081742 258.863996 413.081742 Z M 258.863996 413.081742 " transform="matrix(0.429301,0,0,0.429883,-22.825947,0.0209468)"/>
<path style=" stroke:none;fill-rule:nonzero;fill:url(#linear8);" d="M 165.058594 127.695312 C 165.058594 127.695312 164.230469 131.996094 169.253906 135.660156 C 168.03125 137.429688 164.746094 140.820312 159.144531 142.382812 C 156.660156 143.058594 154.078125 143.316406 151.503906 143.144531 C 147.109375 142.898438 143.238281 141.019531 140.140625 138.804688 L 139.65625 138.449219 C 137.257812 136.636719 135.09375 134.535156 133.214844 132.1875 C 136.917969 129.839844 140.011719 126.734375 136.761719 123.980469 C 136.742188 123.960938 136.722656 123.945312 136.699219 123.929688 C 136.667969 123.902344 136.632812 123.875 136.597656 123.847656 L 136.539062 123.796875 C 124.175781 114.222656 125.148438 81.238281 125.148438 81.238281 C 137.683594 33.523438 168.539062 55.050781 175.195312 57.59375 C 181.847656 60.140625 186.597656 75.90625 183.59375 93.371094 C 180.105469 113.578125 165.058594 127.695312 165.058594 127.695312 Z M 165.058594 127.695312 "/>
<path style=" stroke:none;fill-rule:nonzero;fill:rgb(12.156863%,85.882353%,68.235294%);fill-opacity:1;" d="M 220.042969 177.597656 L 89.105469 177.597656 C 89.535156 176.78125 90.058594 174.433594 90.53125 168.402344 C 92.628906 141.496094 125.917969 135.863281 125.917969 135.863281 C 127.574219 135.203125 129.191406 134.449219 130.765625 133.617188 L 135.890625 139.632812 C 137.332031 141.324219 141.128906 142.609375 141.128906 142.609375 C 160.722656 152.1875 169.277344 140.773438 171.457031 137 C 178.839844 140.816406 197.539062 146.6875 207.820312 154.472656 C 219.109375 163.007812 220.042969 177.597656 220.042969 177.597656 Z M 220.042969 177.597656 "/>
<path style=" stroke:none;fill-rule:nonzero;fill:rgb(12.156863%,85.882353%,68.235294%);fill-opacity:1;" d="M 215.761719 177.597656 L 220.480469 133.664062 L 240.890625 133.664062 L 242.820312 177.988281 Z M 215.761719 177.597656 "/>
<path style=" stroke:none;fill-rule:nonzero;fill:url(#linear9);" d="M 216.980469 166.261719 L 215.765625 177.597656 L 89.085938 177.597656 C 89.511719 176.78125 90.039062 174.433594 90.507812 168.402344 C 92.628906 141.496094 125.917969 135.863281 125.917969 135.863281 C 127.574219 135.203125 129.191406 134.449219 130.765625 133.617188 L 135.890625 139.632812 C 137.332031 141.324219 141.128906 142.609375 141.128906 142.609375 C 160.722656 152.1875 169.277344 140.773438 171.457031 137 C 178.839844 140.816406 197.539062 146.6875 207.820312 154.472656 C 211.820312 157.566406 214.96875 161.621094 216.980469 166.261719 Z M 216.980469 166.261719 "/>
<path style=" stroke:none;fill-rule:nonzero;fill:url(#linear10);" d="M 242.820312 177.988281 L 215.765625 177.597656 L 216.980469 166.261719 L 220.480469 133.664062 L 240.890625 133.664062 Z M 242.820312 177.988281 "/>
<path style=" stroke:none;fill-rule:nonzero;fill:url(#linear11);" d="M 253.957031 99.839844 C 253.625 100.765625 251.695312 103.902344 249.945312 106.980469 C 248.429688 109.648438 247.058594 112.269531 247 113.355469 C 246.875 115.683594 243.789062 125.929688 240.375 129.050781 C 238.269531 130.976562 239.230469 133.660156 239.230469 133.660156 L 234.867188 133.800781 L 221.558594 134.230469 C 221.558594 134.230469 222.640625 132.183594 221.085938 131.355469 C 219.53125 130.523438 205.632812 113.566406 205.632812 113.566406 C 205.632812 113.566406 206.640625 108.59375 212.621094 111.910156 C 218.601562 115.230469 219.59375 117.898438 221.078125 117.621094 C 222.5625 117.339844 222.695312 94.480469 222.695312 94.480469 C 222.695312 94.480469 223.007812 84.027344 225.777344 82.113281 C 228.546875 80.195312 228.058594 89.042969 228.058594 89.042969 L 229.886719 101.035156 C 229.886719 101.035156 234.371094 81.988281 235.726562 81.125 C 237.078125 80.265625 239.738281 80.996094 239.078125 84.664062 C 238.921875 85.523438 238.027344 95.003906 238.027344 95.003906 L 237.289062 101.21875 C 237.289062 101.21875 244.320312 85.953125 245.601562 85.460938 C 246.886719 84.964844 248.914062 85.578125 248.300781 88.160156 C 247.683594 90.742188 244.59375 104.019531 244.5 104.433594 C 244.757812 104.128906 250.785156 96.871094 252.226562 96.152344 C 253.667969 95.433594 254.570312 98.121094 253.957031 99.839844 Z M 253.957031 99.839844 "/>
<path style=" stroke:none;fill-rule:nonzero;fill:rgb(100%,100%,100%);fill-opacity:1;" d="M 172.046875 135.863281 C 172.046875 135.863281 169.667969 146.648438 157.140625 147.296875 C 137.628906 148.3125 129.972656 132.660156 129.972656 132.660156 L 132.292969 130.988281 C 132.292969 130.988281 132.605469 131.449219 133.203125 132.191406 C 135.585938 135.164062 142.453125 142.632812 151.503906 143.171875 C 161.851562 143.765625 167.550781 138.140625 169.253906 135.683594 C 169.390625 135.484375 169.519531 135.277344 169.636719 135.0625 Z M 172.046875 135.863281 "/>
<path style=" stroke:none;fill-rule:nonzero;fill:rgb(12.156863%,85.882353%,68.235294%);fill-opacity:1;" d="M 53.976562 96.15625 C 53.976562 96.15625 53.148438 82.578125 64.46875 76.8125 C 75.789062 71.042969 102.542969 75.992188 101.171875 96.15625 Z M 53.976562 96.15625 "/>
<path style=" stroke:none;fill-rule:nonzero;fill:url(#linear12);" d="M 73.703125 67.28125 L 73.703125 71.28125 C 73.703125 73.15625 72.351562 74.757812 70.503906 75.070312 L 67.695312 75.539062 C 67.695312 75.539062 71.742188 84.359375 80.207031 82.023438 C 88.671875 79.691406 89.046875 77.339844 89.046875 77.339844 L 87.03125 76.640625 C 85.3125 76.039062 84.160156 74.421875 84.152344 72.597656 L 84.128906 67.28125 Z M 73.703125 67.28125 "/>
<path style=" stroke:none;fill-rule:nonzero;fill:url(#linear13);" d="M 69.902344 58.679688 C 69.902344 58.679688 69.617188 64.453125 73.046875 69.140625 C 76.761719 74.226562 81.914062 75.160156 85.359375 69.140625 C 86.355469 67.421875 88.191406 58.1875 87.449219 54.996094 C 86.707031 51.800781 74.4375 42.703125 69.902344 58.679688 Z M 69.902344 58.679688 "/>
<path style=" stroke:none;fill-rule:nonzero;fill:rgb(24.705882%,23.921569%,33.72549%);fill-opacity:1;" d="M 68.28125 54.128906 C 68.539062 53.972656 68.773438 53.773438 68.972656 53.546875 C 69.144531 53.207031 69.226562 52.828125 69.207031 52.445312 C 69.402344 49.867188 71.675781 47.894531 74.070312 46.921875 C 78.363281 45.171875 83.691406 45.914062 87.132812 49.070312 C 88.375 50.207031 89.457031 51.648438 91.070312 52.136719 C 91.402344 52.1875 91.714844 52.320312 91.980469 52.523438 C 92.5 53.03125 92.113281 53.933594 91.574219 54.421875 C 91.441406 54.523438 91.335938 54.652344 91.265625 54.800781 C 91.105469 55.230469 91.667969 55.59375 92.125 55.738281 C 91.714844 56.296875 91.195312 56.769531 90.605469 57.125 C 90.90625 57.15625 91.003906 57.589844 90.847656 57.847656 C 90.660156 58.085938 90.425781 58.28125 90.15625 58.421875 C 89.40625 58.953125 89.027344 59.851562 88.546875 60.640625 C 88.066406 61.425781 87.3125 62.191406 86.402344 62.132812 C 86.953125 60.035156 86.714844 57.808594 85.734375 55.871094 C 81.546875 57 77.148438 55.652344 72.957031 54.503906 C 72.644531 54.378906 72.300781 54.378906 71.988281 54.503906 C 71.453125 54.8125 71.625 55.617188 71.871094 56.183594 C 71.339844 56.183594 71.078125 56.824219 70.972656 57.347656 C 70.816406 58.125 70.726562 58.914062 70.707031 59.707031 C 70.707031 60.179688 71.050781 61.746094 70.832031 62.082031 C 70.402344 62.742188 69.773438 61.695312 69.398438 61.191406 C 68.1875 59.5625 66.199219 55.8125 68.28125 54.128906 Z M 68.28125 54.128906 "/>
<path style=" stroke:none;fill-rule:nonzero;fill:rgb(12.156863%,85.882353%,68.235294%);fill-opacity:1;" d="M 35.085938 186.214844 L 1.789062 236.316406 C 0.59375 238.117188 0.484375 240.433594 1.503906 242.34375 C 2.523438 244.253906 4.511719 245.445312 6.675781 245.445312 L 294.121094 245.445312 C 296.339844 245.445312 298.367188 244.199219 299.367188 242.214844 C 300.367188 240.234375 300.164062 237.859375 298.84375 236.074219 L 261.96875 186.207031 Z M 35.085938 186.214844 "/>
<path style=" stroke:none;fill-rule:nonzero;fill:url(#linear14);" d="M 35.085938 186.214844 L 1.789062 236.316406 C 0.59375 238.117188 0.484375 240.433594 1.503906 242.34375 C 2.523438 244.253906 4.511719 245.445312 6.675781 245.445312 L 294.121094 245.445312 C 296.339844 245.445312 298.367188 244.199219 299.367188 242.214844 C 300.367188 240.234375 300.164062 237.859375 298.84375 236.074219 L 261.96875 186.207031 Z M 35.085938 186.214844 "/>
<path style=" stroke:none;fill-rule:nonzero;fill:url(#linear15);" d="M 256.058594 195.203125 L 39.753906 195.203125 L 41.722656 191.257812 L 253.101562 191.257812 Z M 256.058594 195.203125 "/>
<path style=" stroke:none;fill-rule:nonzero;fill:url(#linear16);" d="M 260.375 200.984375 L 36.867188 200.984375 L 39.753906 195.203125 L 256.058594 195.203125 Z M 260.375 200.984375 "/>
<path style=" stroke:none;fill-rule:nonzero;fill:url(#linear17);" d="M 264.9375 207.089844 L 33.820312 207.089844 L 36.867188 200.984375 L 260.375 200.984375 Z M 264.9375 207.089844 "/>
<path style=" stroke:none;fill-rule:nonzero;fill:url(#linear18);" d="M 269.046875 212.585938 L 31.078125 212.585938 L 33.820312 207.089844 L 264.9375 207.089844 Z M 269.046875 212.585938 "/>
<path style=" stroke:none;fill-rule:nonzero;fill:url(#linear19);" d="M 111.035156 216.398438 L 189.417969 216.398438 L 200.460938 234.542969 L 105.511719 234.542969 Z M 111.035156 216.398438 "/>
<path style=" stroke:none;fill-rule:nonzero;fill:rgb(24.705882%,23.921569%,33.72549%);fill-opacity:1;" d="M 122.882812 52.21875 C 122.921875 52.984375 123.105469 53.761719 122.925781 54.507812 C 122.691406 55.195312 122.328125 55.832031 121.847656 56.378906 C 117.1875 62.675781 116.964844 71.109375 116.929688 78.949219 C 116.929688 80.925781 116.929688 82.941406 117.496094 84.832031 C 118.058594 86.660156 119.136719 88.273438 120.199219 89.863281 C 120.710938 90.628906 124.859375 95.324219 125.78125 95.425781 C 127.015625 95.558594 123.375 74.851562 148.070312 72.851562 C 150.539062 72.648438 152.984375 72.960938 155.460938 73.039062 C 156.925781 73.089844 158.390625 72.902344 159.855469 72.960938 C 162.324219 73.058594 164.703125 73.851562 167.035156 74.640625 C 171.265625 76.0625 175.765625 77.683594 178.378906 81.300781 L 180.738281 80.007812 L 181.09375 88.578125 L 181.183594 90.632812 L 181.710938 103.097656 L 187.136719 94.898438 C 190.519531 89.789062 194.03125 83.476562 191.542969 77.878906 C 190.363281 75.238281 187.992188 73.242188 186.980469 70.53125 C 185.578125 66.75 187.128906 62.523438 186.683594 58.515625 C 185.824219 50.707031 177.558594 45.664062 169.757812 44.832031 C 168.019531 44.648438 166.261719 44.609375 164.542969 44.285156 C 162.84375 43.914062 161.175781 43.421875 159.546875 42.8125 C 156.183594 41.660156 152.308594 40.660156 149.242188 42.457031 C 148.042969 43.160156 147.097656 44.246094 145.808594 44.820312 C 143.585938 45.820312 141.019531 45.046875 138.59375 44.789062 C 133.816406 44.300781 122.542969 45.339844 122.882812 52.21875 Z M 122.882812 52.21875 "/>
<path style=" stroke:none;fill-rule:nonzero;fill:url(#linear20);" d="M 181.324219 97.945312 C 181.324219 97.945312 184.1875 94.371094 186.519531 97.320312 C 188.851562 100.269531 185.382812 107.269531 179.878906 107.394531 C 174.375 107.515625 181.324219 97.945312 181.324219 97.945312 Z M 181.324219 97.945312 "/>
<path style=" stroke:none;fill-rule:nonzero;fill:url(#linear21);" d="M 159.144531 142.382812 C 159.144531 142.382812 150.832031 146.640625 140.140625 138.804688 L 139.65625 138.449219 C 137.285156 136.605469 135.128906 134.503906 133.214844 132.1875 C 136.917969 129.839844 140.011719 126.734375 136.761719 123.980469 C 138.367188 125.273438 148.089844 132.753906 154.578125 130.984375 C 161.582031 129.074219 159.199219 142.117188 159.144531 142.382812 Z M 159.144531 142.382812 "/>
<path style=" stroke:none;fill-rule:nonzero;fill:url(#linear22);" d="M 249.945312 106.984375 C 248.429688 109.652344 247.058594 112.273438 247 113.359375 C 246.875 115.691406 243.789062 125.933594 240.375 129.054688 C 238.269531 130.980469 239.230469 133.664062 239.230469 133.664062 L 234.867188 133.804688 L 234.4375 133.761719 C 234.4375 133.761719 236.035156 127.359375 231.984375 124.535156 C 227.9375 121.710938 223.164062 118.636719 223.769531 115.199219 C 224.375 111.761719 227.578125 104.144531 235.789062 108.320312 C 244 112.5 249.945312 106.984375 249.945312 106.984375 Z M 249.945312 106.984375 "/>
<path style=" stroke:none;fill-rule:nonzero;fill:rgb(100%,100%,100%);fill-opacity:1;" d="M 240.984375 50.539062 C 240.984375 52.839844 239.125 54.703125 236.828125 54.703125 C 234.535156 54.703125 232.671875 52.839844 232.671875 50.539062 C 232.671875 48.242188 234.535156 46.378906 236.828125 46.378906 C 239.125 46.378906 240.984375 48.242188 240.984375 50.539062 Z M 240.984375 50.539062 "/>
</g>
</svg>
